<svg xmlns="http://www.w3.org/2000/svg" width="375" viewBox="0 0 375 375" height="375" version="1.0"><defs><clipPath id="a"><path d="M 13.339844 162 L 127.339844 162 L 127.339844 220.367188 L 13.339844 220.367188 Z M 13.339844 162"/></clipPath><clipPath id="b"><path d="M 48 161.160156 L 93 161.160156 L 93 180 L 48 180 Z M 48 161.160156"/></clipPath><clipPath id="c"><path d="M 19 201 L 54 201 L 54 220.367188 L 19 220.367188 Z M 19 201"/></clipPath><clipPath id="d"><path d="M 52.351562 173.488281 L 88 173.488281 L 88 190.992188 L 52.351562 190.992188 Z M 52.351562 173.488281"/></clipPath><clipPath id="e"><path d="M 52.351562 173.488281 L 88.175781 173.488281 L 88.175781 190.992188 L 52.351562 190.992188 Z M 52.351562 173.488281"/></clipPath><clipPath id="f"><path d="M 61 177 L 70 177 L 70 185.132812 L 61 185.132812 Z M 61 177"/></clipPath><clipPath id="g"><path d="M 72 178 L 81 178 L 81 185.132812 L 72 185.132812 Z M 72 178"/></clipPath><clipPath id="h"><path d="M 37.628906 95 L 102.761719 95 L 102.761719 149 L 37.628906 149 Z M 37.628906 95"/></clipPath></defs><g clip-path="url(#a)"><path fill="#008037" d="M 37.625 162.933594 L 103.113281 162.933594 L 127.242188 220.332031 L 13.5 220.332031 L 37.625 162.933594"/></g><path fill="#F8A62B" d="M 80.328125 180.28125 C 80.328125 182.589844 75.917969 184.457031 70.484375 184.457031 C 65.042969 184.457031 60.636719 182.589844 60.636719 180.28125 C 60.636719 177.972656 65.042969 176.097656 70.484375 176.097656 C 75.917969 176.097656 80.328125 177.972656 80.328125 180.28125"/><path fill="#FBD14E" d="M 80.125 179.265625 C 80.125 181.578125 75.761719 183.445312 70.382812 183.445312 C 65 183.445312 60.636719 181.578125 60.636719 179.265625 C 60.636719 176.957031 65 175.082031 70.382812 175.082031 C 75.761719 175.082031 80.125 176.957031 80.125 179.265625"/><g clip-path="url(#b)"><path fill="#E33924" d="M 70.753906 110.09375 C 70.628906 110.09375 70.5 110.101562 70.371094 110.101562 C 70.238281 110.101562 70.109375 110.09375 69.984375 110.09375 C 58.03125 110.09375 48.339844 120.140625 48.339844 132.535156 C 48.339844 134.644531 49.164062 139.535156 50.402344 141.5625 L 70.371094 179.265625 L 90.335938 141.5625 C 91.574219 139.535156 92.398438 134.644531 92.398438 132.53125 C 92.398438 120.140625 82.714844 110.09375 70.753906 110.09375"/></g><path stroke-linecap="square" transform="matrix(.05927 0 0 -.05893 -55.63 290.49)" fill="none" d="M 2792.969574 1846.823784 C 2792.969574 1846.823784 2781.501135 1847.884442 2763.112085 1847.818151" stroke="#351F16" stroke-width="20" stroke-miterlimit="10"/><path fill="#351F16" d="M 104.46875 181.28125 C 103.175781 181.46875 101.980469 181.75 100.875 182.121094 L 100.3125 182.3125 L 100.695312 183.429688 L 101.257812 183.238281 C 102.292969 182.886719 103.417969 182.625 104.640625 182.449219 L 105.226562 182.363281 L 105.054688 181.199219 Z M 97.515625 183.757812 C 96.417969 184.503906 95.523438 185.390625 94.828125 186.417969 L 94.496094 186.902344 L 95.476562 187.5625 L 95.808594 187.074219 C 96.421875 186.175781 97.214844 185.394531 98.183594 184.730469 L 98.675781 184.398438 L 98.003906 183.425781 Z M 93.351562 189.890625 C 93.101562 191.03125 93.015625 192.265625 93.09375 193.597656 L 93.125 194.1875 L 94.308594 194.121094 L 94.277344 193.53125 C 94.207031 192.304688 94.285156 191.175781 94.511719 190.144531 L 94.636719 189.566406 L 93.480469 189.316406 Z M 92.964844 196.96875 C 92.707031 198.050781 92.261719 199.078125 91.632812 200.054688 L 91.3125 200.546875 L 92.308594 201.1875 L 92.628906 200.691406 C 93.332031 199.601562 93.828125 198.453125 94.121094 197.246094 L 94.257812 196.671875 L 93.105469 196.398438 Z M 89.386719 202.605469 C 88.5625 203.324219 87.613281 203.972656 86.542969 204.558594 L 86.023438 204.84375 L 86.59375 205.875 L 87.113281 205.589844 C 88.257812 204.964844 89.277344 204.265625 90.167969 203.492188 L 90.613281 203.105469 L 89.835938 202.21875 Z M 83.359375 205.972656 C 82.3125 206.347656 81.183594 206.675781 79.984375 206.960938 L 79.40625 207.09375 L 79.679688 208.242188 L 80.257812 208.105469 C 81.5 207.8125 82.671875 207.472656 83.761719 207.078125 L 84.320312 206.878906 L 83.917969 205.769531 Z M 76.511719 207.613281 C 75.386719 207.777344 74.210938 207.90625 72.980469 208 L 72.390625 208.046875 L 72.484375 209.222656 L 73.074219 209.175781 C 74.328125 209.078125 75.53125 208.945312 76.683594 208.777344 L 77.269531 208.691406 L 77.097656 207.527344 Z M 69.429688 208.179688 C 68.351562 208.203125 67.238281 208.207031 66.09375 208.1875 L 65.847656 208.1875 L 65.257812 208.183594 L 65.25 209.359375 L 65.839844 209.363281 L 66.074219 209.367188 C 67.234375 209.386719 68.5625 209.378906 70.050781 209.34375 L 70.023438 208.164062 Z M 62.230469 208.265625 C 61.019531 208.316406 59.820312 208.386719 58.628906 208.480469 L 58.035156 208.523438 L 58.128906 209.699219 L 58.71875 209.652344 C 59.898438 209.5625 61.082031 209.492188 62.277344 209.441406 L 62.871094 209.417969 L 62.820312 208.242188 Z M 55.039062 208.828125 C 53.789062 208.976562 52.59375 209.144531 51.445312 209.339844 L 50.863281 209.4375 L 51.0625 210.597656 L 51.644531 210.5 C 52.773438 210.308594 53.949219 210.144531 55.179688 209.996094 L 55.765625 209.929688 L 55.628906 208.757812 Z M 47.882812 210.050781 C 46.621094 210.347656 45.449219 210.679688 44.371094 211.039062 L 43.8125 211.230469 L 44.191406 212.34375 L 44.75 212.15625 C 45.792969 211.808594 46.929688 211.488281 48.15625 211.199219 L 48.734375 211.0625 L 48.460938 209.914062 Z M 40.984375 212.4375 C 39.75 213.066406 38.71875 213.757812 37.886719 214.515625 L 37.453125 214.914062 L 38.253906 215.78125 L 38.691406 215.382812 C 39.441406 214.699219 40.386719 214.066406 41.523438 213.488281 L 42.050781 213.21875 L 41.511719 212.167969 Z M 40.984375 212.4375"/><g clip-path="url(#c)"><path stroke-linecap="square" transform="matrix(.05927 0 0 -.05893 -55.63 290.49)" fill="none" d="M 1550.818904 1232.172657 C 1547.721107 1223.024484 1545.8097 1213.213401 1545.480147 1202.805697" stroke="#351F16" stroke-width="20" stroke-miterlimit="10"/></g><g clip-path="url(#d)"><path fill="#FBD14E" d="M 87.992188 182.242188 C 87.992188 182.808594 87.878906 183.375 87.652344 183.929688 C 87.425781 184.488281 87.089844 185.03125 86.644531 185.554688 C 86.199219 186.082031 85.652344 186.578125 85.003906 187.050781 C 84.359375 187.523438 83.625 187.960938 82.800781 188.363281 C 81.976562 188.765625 81.082031 189.125 80.113281 189.441406 C 79.144531 189.757812 78.125 190.023438 77.046875 190.242188 C 75.972656 190.460938 74.863281 190.625 73.722656 190.734375 C 72.582031 190.84375 71.425781 190.902344 70.261719 190.902344 C 69.097656 190.902344 67.945312 190.84375 66.804688 190.734375 C 65.664062 190.625 64.554688 190.460938 63.476562 190.242188 C 62.402344 190.023438 61.378906 189.757812 60.414062 189.441406 C 59.445312 189.125 58.550781 188.765625 57.726562 188.363281 C 56.902344 187.960938 56.167969 187.523438 55.519531 187.050781 C 54.875 186.578125 54.328125 186.082031 53.882812 185.554688 C 53.4375 185.03125 53.101562 184.488281 52.875 183.929688 C 52.648438 183.375 52.53125 182.808594 52.53125 182.242188 C 52.53125 181.671875 52.648438 181.109375 52.875 180.550781 C 53.101562 179.996094 53.4375 179.453125 53.882812 178.925781 C 54.328125 178.402344 54.875 177.902344 55.519531 177.429688 C 56.167969 176.957031 56.902344 176.519531 57.726562 176.117188 C 58.550781 175.714844 59.445312 175.355469 60.414062 175.042969 C 61.378906 174.726562 62.402344 174.457031 63.476562 174.242188 C 64.554688 174.023438 65.664062 173.859375 66.804688 173.75 C 67.945312 173.636719 69.097656 173.582031 70.261719 173.582031 C 71.425781 173.582031 72.582031 173.636719 73.722656 173.75 C 74.863281 173.859375 75.972656 174.023438 77.046875 174.242188 C 78.125 174.457031 79.144531 174.726562 80.113281 175.042969 C 81.082031 175.355469 81.976562 175.714844 82.800781 176.117188 C 83.625 176.519531 84.359375 176.957031 85.003906 177.429688 C 85.652344 177.902344 86.199219 178.402344 86.644531 178.925781 C 87.089844 179.453125 87.425781 179.996094 87.652344 180.550781 C 87.878906 181.109375 87.992188 181.671875 87.992188 182.242188 Z M 87.992188 182.242188"/></g><g clip-path="url(#e)"><path fill="#F8A62B" d="M 70.261719 174.5625 C 72.605469 174.5625 74.875 174.785156 77.019531 175.226562 C 79.058594 175.648438 80.894531 176.25 82.457031 177.015625 C 83.945312 177.746094 85.15625 178.621094 85.953125 179.535156 C 86.710938 180.417969 87.097656 181.324219 87.097656 182.242188 C 87.097656 183.15625 86.710938 184.066406 85.953125 184.945312 C 85.15625 185.863281 83.945312 186.734375 82.457031 187.464844 C 80.894531 188.230469 79.058594 188.832031 77.019531 189.253906 C 74.882812 189.699219 72.613281 189.921875 70.261719 189.921875 C 67.914062 189.921875 65.648438 189.699219 63.507812 189.253906 C 61.464844 188.832031 59.632812 188.230469 58.070312 187.464844 C 56.582031 186.734375 55.371094 185.863281 54.574219 184.945312 C 53.816406 184.066406 53.429688 183.15625 53.429688 182.242188 C 53.429688 181.324219 53.816406 180.417969 54.574219 179.535156 C 55.371094 178.621094 56.582031 177.746094 58.070312 177.015625 C 59.632812 176.25 61.464844 175.648438 63.507812 175.226562 C 65.648438 174.792969 67.921875 174.5625 70.261719 174.5625 M 70.261719 173.488281 C 60.371094 173.488281 52.355469 177.410156 52.355469 182.242188 C 52.355469 187.074219 60.371094 190.992188 70.261719 190.992188 C 80.15625 190.992188 88.171875 187.078125 88.171875 182.242188 C 88.171875 177.410156 80.15625 173.488281 70.261719 173.488281 Z M 70.261719 173.488281"/></g><g clip-path="url(#f)"><path fill="#73C9A8" d="M 68.898438 184.363281 C 68.199219 184.851562 67.324219 185.035156 66.472656 185.085938 C 65.617188 185.132812 64.746094 185.0625 63.953125 184.75 C 63.15625 184.4375 62.441406 183.871094 62.0625 183.109375 C 61.613281 182.207031 61.667969 181.152344 61.695312 180.144531 C 61.71875 179.273438 61.714844 178.394531 61.683594 177.523438 C 62.226562 177.785156 62.777344 178.019531 63.332031 178.242188 C 64.625 178.757812 65.957031 179.175781 67.316406 179.46875 C 67.332031 179.671875 67.347656 179.878906 67.359375 180.082031 C 67.410156 180.765625 67.496094 181.519531 68.007812 181.972656 C 68.507812 182.417969 69.375 182.542969 69.527344 183.195312 C 69.632812 183.652344 69.285156 184.09375 68.898438 184.363281"/></g><g clip-path="url(#g)"><path fill="#73C9A8" d="M 79.925781 184.363281 C 79.222656 184.851562 78.347656 185.035156 77.496094 185.085938 C 76.644531 185.132812 75.773438 185.0625 74.976562 184.75 C 74.179688 184.4375 73.46875 183.871094 73.085938 183.109375 C 72.640625 182.207031 72.691406 181.152344 72.71875 180.144531 C 72.71875 180.074219 72.722656 180.003906 72.722656 179.929688 C 73.742188 179.878906 74.757812 179.742188 75.757812 179.519531 C 76.617188 179.324219 77.46875 179.0625 78.285156 178.730469 C 78.320312 179.183594 78.351562 179.632812 78.382812 180.082031 C 78.433594 180.765625 78.515625 181.519531 79.03125 181.972656 C 79.53125 182.417969 80.398438 182.542969 80.550781 183.195312 C 80.660156 183.652344 80.308594 184.09375 79.925781 184.363281"/></g><path fill="#8AD6B8" d="M 88.246094 162.089844 C 88.199219 164.730469 87.789062 167.386719 86.84375 169.863281 C 85.941406 172.234375 84.554688 174.429688 82.636719 176.105469 C 80.683594 177.808594 78.277344 178.949219 75.757812 179.519531 C 73.054688 180.132812 70.238281 180.070312 67.527344 179.511719 C 66.09375 179.21875 64.691406 178.785156 63.332031 178.242188 C 62.03125 177.71875 60.722656 177.121094 59.570312 176.316406 C 57.472656 174.847656 56.089844 172.613281 55.335938 170.195312 C 54.460938 167.402344 54.460938 164.421875 54.667969 161.53125 C 54.890625 158.433594 55.265625 155.347656 55.695312 152.269531 C 55.839844 151.238281 56 150.210938 56.160156 149.183594 L 56.199219 149.195312 C 59.734375 150.289062 63.53125 149.742188 67.234375 149.652344 C 68.996094 149.609375 70.761719 149.667969 72.519531 149.832031 C 73.859375 149.957031 75.203125 150.144531 76.546875 150.132812 C 77.746094 150.121094 78.941406 149.957031 80.132812 149.789062 C 82.300781 149.484375 84.472656 149.179688 86.640625 148.871094 C 86.746094 149.449219 86.851562 150.019531 86.953125 150.59375 C 87.089844 151.339844 87.226562 152.085938 87.355469 152.835938 C 87.878906 155.886719 88.304688 158.980469 88.246094 162.089844"/><path fill="#F9B0C1" d="M 54.972656 146.03125 C 54.882812 146.03125 54.796875 145.984375 54.75 145.902344 C 54.695312 145.808594 54.707031 145.691406 54.78125 145.609375 L 54.839844 145.539062 C 54.886719 145.484375 54.957031 145.453125 55.03125 145.453125 C 55.0625 145.453125 55.089844 145.457031 55.121094 145.46875 C 55.222656 145.507812 55.289062 145.601562 55.289062 145.710938 L 55.289062 145.738281 C 55.300781 145.875 55.207031 146 55.070312 146.019531 L 55.019531 146.027344 L 54.972656 146.03125"/><path fill="#5C43A4" d="M 55.03125 145.195312 C 54.886719 145.195312 54.746094 145.257812 54.644531 145.371094 L 54.585938 145.4375 C 54.441406 145.601562 54.417969 145.839844 54.527344 146.027344 C 54.617188 146.191406 54.789062 146.289062 54.972656 146.289062 C 55.003906 146.289062 55.03125 146.285156 55.0625 146.28125 L 55.109375 146.273438 C 55.378906 146.230469 55.570312 145.984375 55.542969 145.714844 L 55.542969 145.710938 C 55.542969 145.496094 55.410156 145.304688 55.210938 145.230469 C 55.152344 145.207031 55.089844 145.195312 55.03125 145.195312 Z M 55.03125 145.710938 L 55.03125 145.765625 L 54.972656 145.777344 L 55.03125 145.710938"/><path fill="#A565B9" d="M 88.644531 147.058594 C 88.617188 147.375 88.574219 147.695312 88.515625 148.011719 C 88.484375 148.171875 88.445312 148.339844 88.339844 148.464844 C 88.183594 148.648438 87.921875 148.691406 87.683594 148.726562 C 85.164062 149.082031 82.648438 149.433594 80.132812 149.789062 C 78.941406 149.957031 77.746094 150.121094 76.546875 150.132812 C 75.203125 150.144531 73.859375 149.957031 72.519531 149.832031 C 70.761719 149.667969 68.996094 149.609375 67.234375 149.652344 C 63.53125 149.742188 59.734375 150.289062 56.199219 149.195312 C 55.953125 149.117188 55.699219 149.027344 55.527344 148.835938 C 55.363281 148.648438 55.304688 148.386719 55.257812 148.140625 C 55.15625 147.582031 55.085938 147.023438 55.054688 146.457031 C 55.503906 146.386719 55.949219 146.320312 56.394531 146.261719 C 56.671875 146.230469 56.953125 146.199219 57.234375 146.171875 C 57.945312 146.109375 58.65625 146.085938 59.375 146.128906 C 61.300781 146.242188 63.113281 146.96875 64.949219 147.492188 C 66.785156 148.019531 68.632812 148.230469 70.539062 148.070312 C 71.128906 148.019531 71.714844 147.945312 72.300781 147.851562 C 72.542969 147.8125 72.78125 147.769531 73.023438 147.726562 L 73.027344 147.726562 C 75.90625 147.203125 78.730469 146.339844 81.664062 146.25 C 83.542969 146.191406 85.402344 146.554688 87.261719 146.855469 L 87.265625 146.855469 C 87.511719 146.894531 87.753906 146.933594 88 146.96875 C 88.214844 147 88.429688 147.03125 88.644531 147.058594"/><g clip-path="url(#h)"><path fill="#F575C1" d="M 102.492188 132.324219 C 102.246094 135.488281 101.558594 138.691406 100.03125 141.5 C 98.558594 144.207031 96.191406 146.492188 93.066406 147.058594 C 91.367188 147.367188 89.683594 147.21875 88 146.96875 C 87.753906 146.933594 87.507812 146.894531 87.265625 146.855469 L 87.261719 146.855469 C 85.402344 146.554688 83.542969 146.191406 81.664062 146.25 C 78.730469 146.339844 75.90625 147.203125 73.027344 147.726562 L 73.023438 147.726562 C 72.78125 147.773438 72.542969 147.8125 72.300781 147.851562 C 71.714844 147.945312 71.128906 148.019531 70.539062 148.070312 C 68.632812 148.230469 66.785156 148.019531 64.949219 147.492188 C 63.113281 146.96875 61.300781 146.242188 59.375 146.128906 C 58.65625 146.085938 57.945312 146.109375 57.234375 146.171875 C 56.953125 146.199219 56.671875 146.230469 56.394531 146.261719 C 53.601562 146.617188 50.832031 147.390625 48.011719 146.8125 C 44.941406 146.1875 42.328125 144.140625 40.550781 141.617188 C 38.492188 138.699219 37.667969 135.117188 37.652344 131.585938 C 37.632812 127.792969 38.445312 123.984375 39.617188 120.390625 C 42.546875 111.382812 49.066406 102.429688 57.792969 98.320312 C 65.355469 94.761719 73.953125 95.394531 81.34375 99.03125 C 84.667969 100.671875 87.769531 102.761719 90.628906 105.113281 C 93.414062 107.410156 95.871094 110.050781 97.78125 113.117188 C 99.550781 115.960938 100.863281 119.097656 101.660156 122.347656 C 102.457031 125.601562 102.757812 128.984375 102.492188 132.324219"/></g><path fill="#459178" d="M 68.789062 162.628906 C 68.574219 161.925781 68.082031 161.261719 67.324219 160.65625 C 66.957031 160.359375 66.558594 160.101562 66.179688 159.847656 C 65.914062 159.675781 65.644531 159.496094 65.386719 159.308594 C 63.769531 158.132812 62.382812 156.375 61.269531 154.089844 C 61.210938 153.960938 61.054688 153.910156 60.929688 153.972656 C 60.800781 154.035156 60.746094 154.1875 60.808594 154.3125 C 61.960938 156.675781 63.398438 158.496094 65.085938 159.722656 C 65.351562 159.917969 65.628906 160.101562 65.898438 160.277344 C 66.269531 160.519531 66.652344 160.773438 67 161.054688 C 67.679688 161.597656 68.117188 162.175781 68.300781 162.777344 C 68.519531 163.492188 68.347656 164.253906 67.871094 164.671875 C 67.65625 164.859375 67.367188 164.996094 67.007812 165.082031 C 66.265625 165.257812 65.402344 165.179688 64.511719 164.851562 C 62.890625 164.257812 61.398438 162.9375 60.308594 161.128906 C 59.269531 159.402344 58.671875 157.433594 58.191406 155.722656 C 58.152344 155.585938 58.011719 155.503906 57.875 155.542969 C 57.738281 155.582031 57.660156 155.722656 57.695312 155.859375 C 58.1875 157.601562 58.796875 159.613281 59.871094 161.394531 C 61.019531 163.300781 62.605469 164.699219 64.335938 165.332031 C 64.972656 165.566406 65.601562 165.6875 66.195312 165.6875 C 66.515625 165.6875 66.828125 165.648438 67.128906 165.578125 C 67.566406 165.472656 67.933594 165.296875 68.207031 165.054688 C 68.832031 164.507812 69.066406 163.53125 68.789062 162.628906"/><path fill="#459178" d="M 86.625 154.800781 C 86.484375 154.78125 86.355469 154.875 86.335938 155.015625 C 86.054688 156.945312 85.539062 158.5 84.765625 159.761719 C 83.828125 161.292969 82.5 162.378906 81.015625 162.816406 C 80.417969 162.996094 79.886719 163.03125 79.433594 162.925781 C 78.90625 162.804688 78.472656 162.46875 78.292969 162.046875 C 77.984375 161.304688 78.464844 160.429688 78.964844 159.90625 C 79.449219 159.40625 80.050781 159 80.632812 158.613281 C 81.3125 158.160156 82.015625 157.691406 82.566406 157.050781 C 83.828125 155.582031 84.042969 153.5 84.089844 151.65625 C 84.09375 151.515625 83.980469 151.398438 83.839844 151.394531 C 83.691406 151.386719 83.582031 151.5 83.578125 151.644531 C 83.53125 153.484375 83.328125 155.375 82.175781 156.714844 C 81.671875 157.304688 81.03125 157.734375 80.347656 158.1875 C 79.742188 158.589844 79.117188 159.011719 78.597656 159.550781 C 77.957031 160.21875 77.417969 161.273438 77.820312 162.242188 C 78.0625 162.820312 78.621094 163.265625 79.316406 163.425781 C 79.523438 163.472656 79.738281 163.496094 79.96875 163.496094 C 80.339844 163.496094 80.738281 163.433594 81.164062 163.308594 C 82.765625 162.832031 84.203125 161.667969 85.203125 160.027344 C 86.015625 158.707031 86.550781 157.089844 86.84375 155.089844 C 86.863281 154.949219 86.765625 154.820312 86.625 154.800781"/><path fill="#BC3D8D" d="M 92.070312 140.28125 C 91.386719 142.710938 90.183594 144.839844 88.59375 146.433594 C 88.425781 146.601562 88.226562 146.792969 88 146.96875 C 87.753906 146.933594 87.511719 146.894531 87.265625 146.855469 C 87.648438 146.628906 87.976562 146.328125 88.230469 146.074219 C 89.761719 144.539062 90.917969 142.488281 91.578125 140.144531 C 92.148438 138.113281 92.363281 135.800781 92.214844 133.277344 C 92.207031 133.136719 92.316406 133.015625 92.453125 133.007812 C 92.59375 133 92.71875 133.105469 92.726562 133.25 C 92.878906 135.828125 92.65625 138.195312 92.070312 140.28125"/><path fill="#BC3D8D" d="M 57.234375 146.171875 C 56.953125 146.199219 56.671875 146.230469 56.394531 146.261719 C 56.078125 146.035156 55.761719 145.746094 55.457031 145.394531 C 53.925781 143.636719 53.210938 141.375 52.71875 139.394531 C 52.277344 137.636719 51.894531 135.578125 52.367188 133.628906 C 52.398438 133.492188 52.539062 133.40625 52.675781 133.4375 C 52.8125 133.472656 52.898438 133.609375 52.863281 133.746094 C 52.417969 135.589844 52.792969 137.574219 53.214844 139.269531 C 53.695312 141.191406 54.382812 143.378906 55.84375 145.058594 C 56.300781 145.582031 56.765625 145.957031 57.234375 146.171875"/><path fill="#BC3D8D" d="M 73.023438 147.726562 C 72.78125 147.769531 72.542969 147.8125 72.300781 147.851562 C 71.753906 147.421875 71.324219 146.878906 70.980469 146.394531 C 68.699219 143.183594 67.660156 139.09375 68.136719 135.183594 C 68.152344 135.042969 68.28125 134.941406 68.417969 134.960938 C 68.558594 134.976562 68.660156 135.105469 68.644531 135.246094 C 68.183594 139.03125 69.1875 142.988281 71.398438 146.097656 C 71.800781 146.667969 72.335938 147.328125 73.023438 147.726562"/><path fill="#2C6A55" d="M 66.71875 151.960938 C 66.675781 151.699219 66.449219 151.417969 66.160156 151.492188 C 66.0625 151.515625 65.984375 151.578125 65.925781 151.65625 C 65.878906 151.714844 65.84375 151.78125 65.828125 151.855469 C 65.792969 151.980469 65.785156 152.113281 65.804688 152.242188 C 65.84375 152.503906 66.117188 152.722656 66.390625 152.640625 C 66.546875 152.59375 66.644531 152.460938 66.695312 152.308594 C 66.734375 152.195312 66.734375 152.074219 66.71875 151.960938"/><path fill="#2C6A55" d="M 78.550781 151.960938 C 78.507812 151.699219 78.28125 151.417969 77.988281 151.492188 C 77.890625 151.515625 77.816406 151.578125 77.757812 151.65625 C 77.710938 151.714844 77.675781 151.78125 77.65625 151.855469 C 77.628906 151.980469 77.617188 152.113281 77.636719 152.242188 C 77.675781 152.503906 77.949219 152.722656 78.21875 152.640625 C 78.378906 152.59375 78.476562 152.460938 78.527344 152.308594 C 78.566406 152.195312 78.566406 152.074219 78.550781 151.960938"/><path fill="#2C6A55" d="M 73.550781 153.519531 C 73.433594 153.519531 73.371094 153.609375 73.355469 153.710938 C 73.292969 154.222656 73.125 155.035156 72.4375 154.957031 C 71.839844 154.890625 71.578125 154.257812 71.546875 153.730469 C 71.535156 153.484375 71.152344 153.484375 71.164062 153.730469 C 71.1875 154.113281 71.28125 154.503906 71.511719 154.8125 C 71.738281 155.113281 72.0625 155.308594 72.4375 155.34375 C 72.816406 155.378906 73.15625 155.1875 73.378906 154.886719 C 73.632812 154.546875 73.6875 154.121094 73.742188 153.710938 C 73.753906 153.609375 73.644531 153.519531 73.550781 153.519531"/><path fill="#B0E4D1" d="M 79.746094 153.507812 C 79.5625 153.238281 79.277344 153.074219 78.980469 152.957031 C 78.261719 152.683594 76.5 152.90625 76.625 154.011719 C 76.695312 154.664062 77.554688 154.960938 78.109375 155.011719 C 78.695312 155.066406 79.4375 154.886719 79.761719 154.355469 C 79.921875 154.089844 79.917969 153.761719 79.746094 153.507812"/><path fill="#B0E4D1" d="M 67.800781 153.507812 C 67.617188 153.238281 67.332031 153.074219 67.035156 152.957031 C 66.316406 152.683594 64.550781 152.90625 64.675781 154.011719 C 64.75 154.664062 65.605469 154.960938 66.160156 155.011719 C 66.746094 155.066406 67.488281 154.886719 67.816406 154.355469 C 67.976562 154.089844 67.972656 153.761719 67.800781 153.507812"/><path fill="#FFF" d="M 46.945312 119.328125 C 46.847656 124.359375 46.765625 124.4375 41.730469 124.535156 C 46.765625 124.636719 46.847656 124.714844 46.945312 129.742188 C 47.042969 124.714844 47.121094 124.636719 52.15625 124.535156 C 47.121094 124.4375 47.042969 124.359375 46.945312 119.328125"/><path fill="#FFF" d="M 59.289062 131.472656 C 59.230469 134.472656 59.183594 134.519531 56.179688 134.582031 C 59.183594 134.636719 59.230469 134.6875 59.289062 137.683594 C 59.347656 134.6875 59.394531 134.636719 62.398438 134.582031 C 59.394531 134.519531 59.347656 134.472656 59.289062 131.472656"/><path fill="#FFF" d="M 67.984375 97.375 C 67.925781 100.375 67.878906 100.421875 64.878906 100.480469 C 67.878906 100.539062 67.925781 100.585938 67.984375 103.585938 C 68.042969 100.585938 68.089844 100.539062 71.09375 100.480469 C 68.089844 100.421875 68.042969 100.375 67.984375 97.375"/><path fill="#FFF" d="M 70.976562 105.597656 C 70.917969 108.59375 70.871094 108.644531 67.871094 108.699219 C 70.871094 108.757812 70.917969 108.808594 70.976562 111.804688 C 71.035156 108.808594 71.082031 108.757812 74.085938 108.699219 C 71.082031 108.644531 71.035156 108.59375 70.976562 105.597656"/><path fill="#FFF" d="M 80.046875 124.714844 C 80.007812 126.871094 79.972656 126.90625 77.8125 126.949219 C 79.972656 126.992188 80.007812 127.023438 80.046875 129.183594 C 80.089844 127.023438 80.125 126.992188 82.285156 126.949219 C 80.125 126.90625 80.089844 126.871094 80.046875 124.714844"/><path fill="#FFF" d="M 96.882812 115.558594 C 96.839844 117.71875 96.804688 117.753906 94.644531 117.792969 C 96.804688 117.835938 96.839844 117.871094 96.882812 120.027344 C 96.921875 117.871094 96.957031 117.835938 99.117188 117.792969 C 96.957031 117.753906 96.921875 117.71875 96.882812 115.558594"/><path fill="#FFF" d="M 94.078125 138.074219 C 94.035156 140.234375 94 140.265625 91.839844 140.308594 C 94 140.351562 94.035156 140.382812 94.078125 142.542969 C 94.117188 140.382812 94.152344 140.351562 96.3125 140.308594 C 94.152344 140.265625 94.117188 140.234375 94.078125 138.074219"/><path fill="#FFF" d="M 58.632812 166.195312 C 58.59375 168.355469 58.554688 168.386719 56.398438 168.429688 C 58.554688 168.472656 58.59375 168.503906 58.632812 170.664062 C 58.675781 168.503906 58.710938 168.472656 60.867188 168.429688 C 58.710938 168.386719 58.675781 168.355469 58.632812 166.195312"/><g fill="#F0F"><g><g><path d="M 20.703125 -7.828125 C 20.367188 -7.097656 19.96875 -6.734375 19.5 -6.734375 C 19.03125 -6.734375 18.632812 -7.097656 18.3125 -7.828125 L 8.6875 -28.796875 L 8.6875 -1.796875 C 8.6875 -0.597656 8.09375 0 6.90625 0 L 4.515625 0 C 3.316406 0 2.71875 -0.597656 2.71875 -1.796875 L 2.71875 -39.5 C 2.71875 -40.695312 3.316406 -41.296875 4.515625 -41.296875 L 6.578125 -41.296875 C 7.554688 -41.296875 8.257812 -40.84375 8.6875 -39.9375 L 19.390625 -17.546875 L 30.046875 -39.9375 C 30.441406 -40.84375 31.144531 -41.296875 32.15625 -41.296875 L 34.234375 -41.296875 C 35.421875 -41.296875 36.015625 -40.695312 36.015625 -39.5 L 36.015625 -1.796875 C 36.015625 -0.597656 35.421875 0 34.234375 0 L 31.84375 0 C 30.644531 0 30.046875 -0.597656 30.046875 -1.796875 L 30.046875 -28.625 Z M 20.703125 -7.828125" transform="translate(180.918 155.551)"/></g></g></g><g fill="#F0F"><g><g><path d="M 12.21875 0.546875 C 9.90625 0.546875 7.941406 -0.0546875 6.328125 -1.265625 C 4.710938 -2.484375 3.476562 -4.160156 2.625 -6.296875 C 1.78125 -8.429688 1.359375 -10.878906 1.359375 -13.640625 C 1.359375 -16.359375 1.851562 -18.820312 2.84375 -21.03125 C 3.84375 -23.238281 5.226562 -24.992188 7 -26.296875 C 8.78125 -27.597656 10.863281 -28.25 13.25 -28.25 C 16.363281 -28.25 18.953125 -27.585938 21.015625 -26.265625 C 23.085938 -24.941406 24.628906 -23.226562 25.640625 -21.125 C 26.660156 -19.03125 27.171875 -16.804688 27.171875 -14.453125 C 27.171875 -14.304688 27.171875 -14.160156 27.171875 -14.015625 C 27.421875 -11.585938 27.707031 -9.382812 28.03125 -7.40625 C 28.351562 -5.4375 28.679688 -3.800781 29.015625 -2.5 C 29.046875 -2.394531 29.0625 -2.25 29.0625 -2.0625 C 29.0625 -0.976562 28.5 -0.34375 27.375 -0.15625 L 24.28125 0.21875 C 23.269531 0.320312 22.640625 -0.09375 22.390625 -1.03125 C 22.242188 -1.613281 22.113281 -2.210938 22 -2.828125 C 20.769531 -1.773438 19.335938 -0.945312 17.703125 -0.34375 C 16.078125 0.25 14.25 0.546875 12.21875 0.546875 Z M 12.21875 -2.71875 C 14 -2.71875 15.46875 -3.304688 16.625 -4.484375 C 17.78125 -5.660156 18.65625 -7.15625 19.25 -8.96875 C 19.851562 -10.78125 20.15625 -12.644531 20.15625 -14.5625 C 20.15625 -14.5625 20.15625 -14.566406 20.15625 -14.578125 C 20.15625 -14.597656 20.15625 -14.664062 20.15625 -14.78125 C 20.113281 -14.957031 20.09375 -15.15625 20.09375 -15.375 C 20.09375 -15.550781 20.09375 -15.710938 20.09375 -15.859375 C 19.988281 -17.453125 19.664062 -18.945312 19.125 -20.34375 C 18.582031 -21.738281 17.820312 -22.859375 16.84375 -23.703125 C 15.863281 -24.554688 14.664062 -24.984375 13.25 -24.984375 C 12.488281 -24.984375 11.726562 -24.429688 10.96875 -23.328125 C 10.207031 -22.222656 9.570312 -20.800781 9.0625 -19.0625 C 8.5625 -17.332031 8.3125 -15.523438 8.3125 -13.640625 C 8.3125 -11.753906 8.507812 -9.976562 8.90625 -8.3125 C 9.300781 -6.644531 9.804688 -5.296875 10.421875 -4.265625 C 11.046875 -3.234375 11.644531 -2.71875 12.21875 -2.71875 Z M 12.21875 -2.71875" transform="translate(219.648 155.551)"/></g></g></g><g fill="#F0F"><g><g><path d="M 9.9375 9.015625 C 9.9375 9.523438 9.753906 9.957031 9.390625 10.3125 C 9.035156 10.675781 8.601562 10.859375 8.09375 10.859375 L 5.65625 10.859375 C 5.144531 10.859375 4.707031 10.675781 4.34375 10.3125 C 3.976562 9.957031 3.796875 9.523438 3.796875 9.015625 L 3.796875 -25.859375 C 3.796875 -26.367188 3.976562 -26.800781 4.34375 -27.15625 C 4.707031 -27.519531 5.144531 -27.703125 5.65625 -27.703125 L 8.09375 -27.703125 C 9.03125 -27.703125 9.628906 -27.25 9.890625 -26.34375 C 11.660156 -27.613281 14.101562 -28.25 17.21875 -28.25 C 19.789062 -28.25 22.082031 -27.601562 24.09375 -26.3125 C 26.101562 -25.03125 27.6875 -23.320312 28.84375 -21.1875 C 30.007812 -19.050781 30.59375 -16.695312 30.59375 -14.125 C 30.59375 -11.550781 30.046875 -9.195312 28.953125 -7.0625 C 27.867188 -4.925781 26.359375 -3.210938 24.421875 -1.921875 C 22.484375 -0.640625 20.210938 0 17.609375 0 C 16.046875 0 14.617188 -0.222656 13.328125 -0.671875 C 12.046875 -1.128906 10.914062 -1.773438 9.9375 -2.609375 Z M 17.4375 -3.3125 C 19.175781 -3.3125 20.578125 -3.828125 21.640625 -4.859375 C 22.710938 -5.890625 23.492188 -7.238281 23.984375 -8.90625 C 24.472656 -10.570312 24.71875 -12.3125 24.71875 -14.125 C 24.71875 -15.9375 24.390625 -17.675781 23.734375 -19.34375 C 23.085938 -21.007812 22.191406 -22.363281 21.046875 -23.40625 C 19.910156 -24.457031 18.632812 -24.984375 17.21875 -24.984375 C 15.1875 -24.984375 13.472656 -24.023438 12.078125 -22.109375 C 10.691406 -20.191406 10 -17.441406 10 -13.859375 C 10 -11.859375 10.414062 -10.0625 11.25 -8.46875 C 12.082031 -6.875 13.078125 -5.613281 14.234375 -4.6875 C 15.390625 -3.769531 16.457031 -3.3125 17.4375 -3.3125 Z M 17.4375 -3.3125" transform="translate(250.556 155.551)"/></g></g></g><g fill="#F0F"><g><g><path d="M 12.21875 0.546875 C 9.90625 0.546875 7.941406 -0.0546875 6.328125 -1.265625 C 4.710938 -2.484375 3.476562 -4.160156 2.625 -6.296875 C 1.78125 -8.429688 1.359375 -10.878906 1.359375 -13.640625 C 1.359375 -16.359375 1.851562 -18.820312 2.84375 -21.03125 C 3.84375 -23.238281 5.226562 -24.992188 7 -26.296875 C 8.78125 -27.597656 10.863281 -28.25 13.25 -28.25 C 16.363281 -28.25 18.953125 -27.585938 21.015625 -26.265625 C 23.085938 -24.941406 24.628906 -23.226562 25.640625 -21.125 C 26.660156 -19.03125 27.171875 -16.804688 27.171875 -14.453125 C 27.171875 -14.304688 27.171875 -14.160156 27.171875 -14.015625 C 27.421875 -11.585938 27.707031 -9.382812 28.03125 -7.40625 C 28.351562 -5.4375 28.679688 -3.800781 29.015625 -2.5 C 29.046875 -2.394531 29.0625 -2.25 29.0625 -2.0625 C 29.0625 -0.976562 28.5 -0.34375 27.375 -0.15625 L 24.28125 0.21875 C 23.269531 0.320312 22.640625 -0.09375 22.390625 -1.03125 C 22.242188 -1.613281 22.113281 -2.210938 22 -2.828125 C 20.769531 -1.773438 19.335938 -0.945312 17.703125 -0.34375 C 16.078125 0.25 14.25 0.546875 12.21875 0.546875 Z M 12.21875 -2.71875 C 14 -2.71875 15.46875 -3.304688 16.625 -4.484375 C 17.78125 -5.660156 18.65625 -7.15625 19.25 -8.96875 C 19.851562 -10.78125 20.15625 -12.644531 20.15625 -14.5625 C 20.15625 -14.5625 20.15625 -14.566406 20.15625 -14.578125 C 20.15625 -14.597656 20.15625 -14.664062 20.15625 -14.78125 C 20.113281 -14.957031 20.09375 -15.15625 20.09375 -15.375 C 20.09375 -15.550781 20.09375 -15.710938 20.09375 -15.859375 C 19.988281 -17.453125 19.664062 -18.945312 19.125 -20.34375 C 18.582031 -21.738281 17.820312 -22.859375 16.84375 -23.703125 C 15.863281 -24.554688 14.664062 -24.984375 13.25 -24.984375 C 12.488281 -24.984375 11.726562 -24.429688 10.96875 -23.328125 C 10.207031 -22.222656 9.570312 -20.800781 9.0625 -19.0625 C 8.5625 -17.332031 8.3125 -15.523438 8.3125 -13.640625 C 8.3125 -11.753906 8.507812 -9.976562 8.90625 -8.3125 C 9.300781 -6.644531 9.804688 -5.296875 10.421875 -4.265625 C 11.046875 -3.234375 11.644531 -2.71875 12.21875 -2.71875 Z M 12.21875 -2.71875" transform="translate(282.768 155.551)"/></g></g></g><g fill="#0FF"><g><g><path d="M 20.703125 -7.828125 C 20.367188 -7.097656 19.96875 -6.734375 19.5 -6.734375 C 19.03125 -6.734375 18.632812 -7.097656 18.3125 -7.828125 L 8.6875 -28.796875 L 8.6875 -1.796875 C 8.6875 -0.597656 8.09375 0 6.90625 0 L 4.515625 0 C 3.316406 0 2.71875 -0.597656 2.71875 -1.796875 L 2.71875 -39.5 C 2.71875 -40.695312 3.316406 -41.296875 4.515625 -41.296875 L 6.578125 -41.296875 C 7.554688 -41.296875 8.257812 -40.84375 8.6875 -39.9375 L 19.390625 -17.546875 L 30.046875 -39.9375 C 30.441406 -40.84375 31.144531 -41.296875 32.15625 -41.296875 L 34.234375 -41.296875 C 35.421875 -41.296875 36.015625 -40.695312 36.015625 -39.5 L 36.015625 -1.796875 C 36.015625 -0.597656 35.421875 0 34.234375 0 L 31.84375 0 C 30.644531 0 30.046875 -0.597656 30.046875 -1.796875 L 30.046875 -28.625 Z M 20.703125 -7.828125" transform="translate(175.92 152.665)"/></g></g></g><g fill="#0FF"><g><g><path d="M 12.21875 0.546875 C 9.90625 0.546875 7.941406 -0.0546875 6.328125 -1.265625 C 4.710938 -2.484375 3.476562 -4.160156 2.625 -6.296875 C 1.78125 -8.429688 1.359375 -10.878906 1.359375 -13.640625 C 1.359375 -16.359375 1.851562 -18.820312 2.84375 -21.03125 C 3.84375 -23.238281 5.226562 -24.992188 7 -26.296875 C 8.78125 -27.597656 10.863281 -28.25 13.25 -28.25 C 16.363281 -28.25 18.953125 -27.585938 21.015625 -26.265625 C 23.085938 -24.941406 24.628906 -23.226562 25.640625 -21.125 C 26.660156 -19.03125 27.171875 -16.804688 27.171875 -14.453125 C 27.171875 -14.304688 27.171875 -14.160156 27.171875 -14.015625 C 27.421875 -11.585938 27.707031 -9.382812 28.03125 -7.40625 C 28.351562 -5.4375 28.679688 -3.800781 29.015625 -2.5 C 29.046875 -2.394531 29.0625 -2.25 29.0625 -2.0625 C 29.0625 -0.976562 28.5 -0.34375 27.375 -0.15625 L 24.28125 0.21875 C 23.269531 0.320312 22.640625 -0.09375 22.390625 -1.03125 C 22.242188 -1.613281 22.113281 -2.210938 22 -2.828125 C 20.769531 -1.773438 19.335938 -0.945312 17.703125 -0.34375 C 16.078125 0.25 14.25 0.546875 12.21875 0.546875 Z M 12.21875 -2.71875 C 14 -2.71875 15.46875 -3.304688 16.625 -4.484375 C 17.78125 -5.660156 18.65625 -7.15625 19.25 -8.96875 C 19.851562 -10.78125 20.15625 -12.644531 20.15625 -14.5625 C 20.15625 -14.5625 20.15625 -14.566406 20.15625 -14.578125 C 20.15625 -14.597656 20.15625 -14.664062 20.15625 -14.78125 C 20.113281 -14.957031 20.09375 -15.15625 20.09375 -15.375 C 20.09375 -15.550781 20.09375 -15.710938 20.09375 -15.859375 C 19.988281 -17.453125 19.664062 -18.945312 19.125 -20.34375 C 18.582031 -21.738281 17.820312 -22.859375 16.84375 -23.703125 C 15.863281 -24.554688 14.664062 -24.984375 13.25 -24.984375 C 12.488281 -24.984375 11.726562 -24.429688 10.96875 -23.328125 C 10.207031 -22.222656 9.570312 -20.800781 9.0625 -19.0625 C 8.5625 -17.332031 8.3125 -15.523438 8.3125 -13.640625 C 8.3125 -11.753906 8.507812 -9.976562 8.90625 -8.3125 C 9.300781 -6.644531 9.804688 -5.296875 10.421875 -4.265625 C 11.046875 -3.234375 11.644531 -2.71875 12.21875 -2.71875 Z M 12.21875 -2.71875" transform="translate(214.65 152.665)"/></g></g></g><g fill="#0FF"><g><g><path d="M 9.9375 9.015625 C 9.9375 9.523438 9.753906 9.957031 9.390625 10.3125 C 9.035156 10.675781 8.601562 10.859375 8.09375 10.859375 L 5.65625 10.859375 C 5.144531 10.859375 4.707031 10.675781 4.34375 10.3125 C 3.976562 9.957031 3.796875 9.523438 3.796875 9.015625 L 3.796875 -25.859375 C 3.796875 -26.367188 3.976562 -26.800781 4.34375 -27.15625 C 4.707031 -27.519531 5.144531 -27.703125 5.65625 -27.703125 L 8.09375 -27.703125 C 9.03125 -27.703125 9.628906 -27.25 9.890625 -26.34375 C 11.660156 -27.613281 14.101562 -28.25 17.21875 -28.25 C 19.789062 -28.25 22.082031 -27.601562 24.09375 -26.3125 C 26.101562 -25.03125 27.6875 -23.320312 28.84375 -21.1875 C 30.007812 -19.050781 30.59375 -16.695312 30.59375 -14.125 C 30.59375 -11.550781 30.046875 -9.195312 28.953125 -7.0625 C 27.867188 -4.925781 26.359375 -3.210938 24.421875 -1.921875 C 22.484375 -0.640625 20.210938 0 17.609375 0 C 16.046875 0 14.617188 -0.222656 13.328125 -0.671875 C 12.046875 -1.128906 10.914062 -1.773438 9.9375 -2.609375 Z M 17.4375 -3.3125 C 19.175781 -3.3125 20.578125 -3.828125 21.640625 -4.859375 C 22.710938 -5.890625 23.492188 -7.238281 23.984375 -8.90625 C 24.472656 -10.570312 24.71875 -12.3125 24.71875 -14.125 C 24.71875 -15.9375 24.390625 -17.675781 23.734375 -19.34375 C 23.085938 -21.007812 22.191406 -22.363281 21.046875 -23.40625 C 19.910156 -24.457031 18.632812 -24.984375 17.21875 -24.984375 C 15.1875 -24.984375 13.472656 -24.023438 12.078125 -22.109375 C 10.691406 -20.191406 10 -17.441406 10 -13.859375 C 10 -11.859375 10.414062 -10.0625 11.25 -8.46875 C 12.082031 -6.875 13.078125 -5.613281 14.234375 -4.6875 C 15.390625 -3.769531 16.457031 -3.3125 17.4375 -3.3125 Z M 17.4375 -3.3125" transform="translate(245.558 152.665)"/></g></g></g><g fill="#0FF"><g><g><path d="M 12.21875 0.546875 C 9.90625 0.546875 7.941406 -0.0546875 6.328125 -1.265625 C 4.710938 -2.484375 3.476562 -4.160156 2.625 -6.296875 C 1.78125 -8.429688 1.359375 -10.878906 1.359375 -13.640625 C 1.359375 -16.359375 1.851562 -18.820312 2.84375 -21.03125 C 3.84375 -23.238281 5.226562 -24.992188 7 -26.296875 C 8.78125 -27.597656 10.863281 -28.25 13.25 -28.25 C 16.363281 -28.25 18.953125 -27.585938 21.015625 -26.265625 C 23.085938 -24.941406 24.628906 -23.226562 25.640625 -21.125 C 26.660156 -19.03125 27.171875 -16.804688 27.171875 -14.453125 C 27.171875 -14.304688 27.171875 -14.160156 27.171875 -14.015625 C 27.421875 -11.585938 27.707031 -9.382812 28.03125 -7.40625 C 28.351562 -5.4375 28.679688 -3.800781 29.015625 -2.5 C 29.046875 -2.394531 29.0625 -2.25 29.0625 -2.0625 C 29.0625 -0.976562 28.5 -0.34375 27.375 -0.15625 L 24.28125 0.21875 C 23.269531 0.320312 22.640625 -0.09375 22.390625 -1.03125 C 22.242188 -1.613281 22.113281 -2.210938 22 -2.828125 C 20.769531 -1.773438 19.335938 -0.945312 17.703125 -0.34375 C 16.078125 0.25 14.25 0.546875 12.21875 0.546875 Z M 12.21875 -2.71875 C 14 -2.71875 15.46875 -3.304688 16.625 -4.484375 C 17.78125 -5.660156 18.65625 -7.15625 19.25 -8.96875 C 19.851562 -10.78125 20.15625 -12.644531 20.15625 -14.5625 C 20.15625 -14.5625 20.15625 -14.566406 20.15625 -14.578125 C 20.15625 -14.597656 20.15625 -14.664062 20.15625 -14.78125 C 20.113281 -14.957031 20.09375 -15.15625 20.09375 -15.375 C 20.09375 -15.550781 20.09375 -15.710938 20.09375 -15.859375 C 19.988281 -17.453125 19.664062 -18.945312 19.125 -20.34375 C 18.582031 -21.738281 17.820312 -22.859375 16.84375 -23.703125 C 15.863281 -24.554688 14.664062 -24.984375 13.25 -24.984375 C 12.488281 -24.984375 11.726562 -24.429688 10.96875 -23.328125 C 10.207031 -22.222656 9.570312 -20.800781 9.0625 -19.0625 C 8.5625 -17.332031 8.3125 -15.523438 8.3125 -13.640625 C 8.3125 -11.753906 8.507812 -9.976562 8.90625 -8.3125 C 9.300781 -6.644531 9.804688 -5.296875 10.421875 -4.265625 C 11.046875 -3.234375 11.644531 -2.71875 12.21875 -2.71875 Z M 12.21875 -2.71875" transform="translate(277.77 152.665)"/></g></g></g><g fill="#FFF"><g><g><path d="M 20.703125 -7.828125 C 20.367188 -7.097656 19.96875 -6.734375 19.5 -6.734375 C 19.03125 -6.734375 18.632812 -7.097656 18.3125 -7.828125 L 8.6875 -28.796875 L 8.6875 -1.796875 C 8.6875 -0.597656 8.09375 0 6.90625 0 L 4.515625 0 C 3.316406 0 2.71875 -0.597656 2.71875 -1.796875 L 2.71875 -39.5 C 2.71875 -40.695312 3.316406 -41.296875 4.515625 -41.296875 L 6.578125 -41.296875 C 7.554688 -41.296875 8.257812 -40.84375 8.6875 -39.9375 L 19.390625 -17.546875 L 30.046875 -39.9375 C 30.441406 -40.84375 31.144531 -41.296875 32.15625 -41.296875 L 34.234375 -41.296875 C 35.421875 -41.296875 36.015625 -40.695312 36.015625 -39.5 L 36.015625 -1.796875 C 36.015625 -0.597656 35.421875 0 34.234375 0 L 31.84375 0 C 30.644531 0 30.046875 -0.597656 30.046875 -1.796875 L 30.046875 -28.625 Z M 20.703125 -7.828125" transform="translate(178.419 154.108)"/></g></g></g><g fill="#FFF"><g><g><path d="M 12.21875 0.546875 C 9.90625 0.546875 7.941406 -0.0546875 6.328125 -1.265625 C 4.710938 -2.484375 3.476562 -4.160156 2.625 -6.296875 C 1.78125 -8.429688 1.359375 -10.878906 1.359375 -13.640625 C 1.359375 -16.359375 1.851562 -18.820312 2.84375 -21.03125 C 3.84375 -23.238281 5.226562 -24.992188 7 -26.296875 C 8.78125 -27.597656 10.863281 -28.25 13.25 -28.25 C 16.363281 -28.25 18.953125 -27.585938 21.015625 -26.265625 C 23.085938 -24.941406 24.628906 -23.226562 25.640625 -21.125 C 26.660156 -19.03125 27.171875 -16.804688 27.171875 -14.453125 C 27.171875 -14.304688 27.171875 -14.160156 27.171875 -14.015625 C 27.421875 -11.585938 27.707031 -9.382812 28.03125 -7.40625 C 28.351562 -5.4375 28.679688 -3.800781 29.015625 -2.5 C 29.046875 -2.394531 29.0625 -2.25 29.0625 -2.0625 C 29.0625 -0.976562 28.5 -0.34375 27.375 -0.15625 L 24.28125 0.21875 C 23.269531 0.320312 22.640625 -0.09375 22.390625 -1.03125 C 22.242188 -1.613281 22.113281 -2.210938 22 -2.828125 C 20.769531 -1.773438 19.335938 -0.945312 17.703125 -0.34375 C 16.078125 0.25 14.25 0.546875 12.21875 0.546875 Z M 12.21875 -2.71875 C 14 -2.71875 15.46875 -3.304688 16.625 -4.484375 C 17.78125 -5.660156 18.65625 -7.15625 19.25 -8.96875 C 19.851562 -10.78125 20.15625 -12.644531 20.15625 -14.5625 C 20.15625 -14.5625 20.15625 -14.566406 20.15625 -14.578125 C 20.15625 -14.597656 20.15625 -14.664062 20.15625 -14.78125 C 20.113281 -14.957031 20.09375 -15.15625 20.09375 -15.375 C 20.09375 -15.550781 20.09375 -15.710938 20.09375 -15.859375 C 19.988281 -17.453125 19.664062 -18.945312 19.125 -20.34375 C 18.582031 -21.738281 17.820312 -22.859375 16.84375 -23.703125 C 15.863281 -24.554688 14.664062 -24.984375 13.25 -24.984375 C 12.488281 -24.984375 11.726562 -24.429688 10.96875 -23.328125 C 10.207031 -22.222656 9.570312 -20.800781 9.0625 -19.0625 C 8.5625 -17.332031 8.3125 -15.523438 8.3125 -13.640625 C 8.3125 -11.753906 8.507812 -9.976562 8.90625 -8.3125 C 9.300781 -6.644531 9.804688 -5.296875 10.421875 -4.265625 C 11.046875 -3.234375 11.644531 -2.71875 12.21875 -2.71875 Z M 12.21875 -2.71875" transform="translate(217.149 154.108)"/></g></g></g><g fill="#FFF"><g><g><path d="M 9.9375 9.015625 C 9.9375 9.523438 9.753906 9.957031 9.390625 10.3125 C 9.035156 10.675781 8.601562 10.859375 8.09375 10.859375 L 5.65625 10.859375 C 5.144531 10.859375 4.707031 10.675781 4.34375 10.3125 C 3.976562 9.957031 3.796875 9.523438 3.796875 9.015625 L 3.796875 -25.859375 C 3.796875 -26.367188 3.976562 -26.800781 4.34375 -27.15625 C 4.707031 -27.519531 5.144531 -27.703125 5.65625 -27.703125 L 8.09375 -27.703125 C 9.03125 -27.703125 9.628906 -27.25 9.890625 -26.34375 C 11.660156 -27.613281 14.101562 -28.25 17.21875 -28.25 C 19.789062 -28.25 22.082031 -27.601562 24.09375 -26.3125 C 26.101562 -25.03125 27.6875 -23.320312 28.84375 -21.1875 C 30.007812 -19.050781 30.59375 -16.695312 30.59375 -14.125 C 30.59375 -11.550781 30.046875 -9.195312 28.953125 -7.0625 C 27.867188 -4.925781 26.359375 -3.210938 24.421875 -1.921875 C 22.484375 -0.640625 20.210938 0 17.609375 0 C 16.046875 0 14.617188 -0.222656 13.328125 -0.671875 C 12.046875 -1.128906 10.914062 -1.773438 9.9375 -2.609375 Z M 17.4375 -3.3125 C 19.175781 -3.3125 20.578125 -3.828125 21.640625 -4.859375 C 22.710938 -5.890625 23.492188 -7.238281 23.984375 -8.90625 C 24.472656 -10.570312 24.71875 -12.3125 24.71875 -14.125 C 24.71875 -15.9375 24.390625 -17.675781 23.734375 -19.34375 C 23.085938 -21.007812 22.191406 -22.363281 21.046875 -23.40625 C 19.910156 -24.457031 18.632812 -24.984375 17.21875 -24.984375 C 15.1875 -24.984375 13.472656 -24.023438 12.078125 -22.109375 C 10.691406 -20.191406 10 -17.441406 10 -13.859375 C 10 -11.859375 10.414062 -10.0625 11.25 -8.46875 C 12.082031 -6.875 13.078125 -5.613281 14.234375 -4.6875 C 15.390625 -3.769531 16.457031 -3.3125 17.4375 -3.3125 Z M 17.4375 -3.3125" transform="translate(248.057 154.108)"/></g></g></g><g fill="#FFF"><g><g><path d="M 12.21875 0.546875 C 9.90625 0.546875 7.941406 -0.0546875 6.328125 -1.265625 C 4.710938 -2.484375 3.476562 -4.160156 2.625 -6.296875 C 1.78125 -8.429688 1.359375 -10.878906 1.359375 -13.640625 C 1.359375 -16.359375 1.851562 -18.820312 2.84375 -21.03125 C 3.84375 -23.238281 5.226562 -24.992188 7 -26.296875 C 8.78125 -27.597656 10.863281 -28.25 13.25 -28.25 C 16.363281 -28.25 18.953125 -27.585938 21.015625 -26.265625 C 23.085938 -24.941406 24.628906 -23.226562 25.640625 -21.125 C 26.660156 -19.03125 27.171875 -16.804688 27.171875 -14.453125 C 27.171875 -14.304688 27.171875 -14.160156 27.171875 -14.015625 C 27.421875 -11.585938 27.707031 -9.382812 28.03125 -7.40625 C 28.351562 -5.4375 28.679688 -3.800781 29.015625 -2.5 C 29.046875 -2.394531 29.0625 -2.25 29.0625 -2.0625 C 29.0625 -0.976562 28.5 -0.34375 27.375 -0.15625 L 24.28125 0.21875 C 23.269531 0.320312 22.640625 -0.09375 22.390625 -1.03125 C 22.242188 -1.613281 22.113281 -2.210938 22 -2.828125 C 20.769531 -1.773438 19.335938 -0.945312 17.703125 -0.34375 C 16.078125 0.25 14.25 0.546875 12.21875 0.546875 Z M 12.21875 -2.71875 C 14 -2.71875 15.46875 -3.304688 16.625 -4.484375 C 17.78125 -5.660156 18.65625 -7.15625 19.25 -8.96875 C 19.851562 -10.78125 20.15625 -12.644531 20.15625 -14.5625 C 20.15625 -14.5625 20.15625 -14.566406 20.15625 -14.578125 C 20.15625 -14.597656 20.15625 -14.664062 20.15625 -14.78125 C 20.113281 -14.957031 20.09375 -15.15625 20.09375 -15.375 C 20.09375 -15.550781 20.09375 -15.710938 20.09375 -15.859375 C 19.988281 -17.453125 19.664062 -18.945312 19.125 -20.34375 C 18.582031 -21.738281 17.820312 -22.859375 16.84375 -23.703125 C 15.863281 -24.554688 14.664062 -24.984375 13.25 -24.984375 C 12.488281 -24.984375 11.726562 -24.429688 10.96875 -23.328125 C 10.207031 -22.222656 9.570312 -20.800781 9.0625 -19.0625 C 8.5625 -17.332031 8.3125 -15.523438 8.3125 -13.640625 C 8.3125 -11.753906 8.507812 -9.976562 8.90625 -8.3125 C 9.300781 -6.644531 9.804688 -5.296875 10.421875 -4.265625 C 11.046875 -3.234375 11.644531 -2.71875 12.21875 -2.71875 Z M 12.21875 -2.71875" transform="translate(280.269 154.108)"/></g></g></g><g fill="#F0F"><g><g><path d="M 20.703125 -7.828125 C 20.367188 -7.097656 19.96875 -6.734375 19.5 -6.734375 C 19.03125 -6.734375 18.632812 -7.097656 18.3125 -7.828125 L 8.6875 -28.796875 L 8.6875 -1.796875 C 8.6875 -0.597656 8.09375 0 6.90625 0 L 4.515625 0 C 3.316406 0 2.71875 -0.597656 2.71875 -1.796875 L 2.71875 -39.5 C 2.71875 -40.695312 3.316406 -41.296875 4.515625 -41.296875 L 6.578125 -41.296875 C 7.554688 -41.296875 8.257812 -40.84375 8.6875 -39.9375 L 19.390625 -17.546875 L 30.046875 -39.9375 C 30.441406 -40.84375 31.144531 -41.296875 32.15625 -41.296875 L 34.234375 -41.296875 C 35.421875 -41.296875 36.015625 -40.695312 36.015625 -39.5 L 36.015625 -1.796875 C 36.015625 -0.597656 35.421875 0 34.234375 0 L 31.84375 0 C 30.644531 0 30.046875 -0.597656 30.046875 -1.796875 L 30.046875 -28.625 Z M 20.703125 -7.828125" transform="translate(158.152 213.284)"/></g></g></g><g fill="#F0F"><g><g><path d="M 12.21875 0.546875 C 9.90625 0.546875 7.941406 -0.0546875 6.328125 -1.265625 C 4.710938 -2.484375 3.476562 -4.160156 2.625 -6.296875 C 1.78125 -8.429688 1.359375 -10.878906 1.359375 -13.640625 C 1.359375 -16.359375 1.851562 -18.820312 2.84375 -21.03125 C 3.84375 -23.238281 5.226562 -24.992188 7 -26.296875 C 8.78125 -27.597656 10.863281 -28.25 13.25 -28.25 C 16.363281 -28.25 18.953125 -27.585938 21.015625 -26.265625 C 23.085938 -24.941406 24.628906 -23.226562 25.640625 -21.125 C 26.660156 -19.03125 27.171875 -16.804688 27.171875 -14.453125 C 27.171875 -14.304688 27.171875 -14.160156 27.171875 -14.015625 C 27.421875 -11.585938 27.707031 -9.382812 28.03125 -7.40625 C 28.351562 -5.4375 28.679688 -3.800781 29.015625 -2.5 C 29.046875 -2.394531 29.0625 -2.25 29.0625 -2.0625 C 29.0625 -0.976562 28.5 -0.34375 27.375 -0.15625 L 24.28125 0.21875 C 23.269531 0.320312 22.640625 -0.09375 22.390625 -1.03125 C 22.242188 -1.613281 22.113281 -2.210938 22 -2.828125 C 20.769531 -1.773438 19.335938 -0.945312 17.703125 -0.34375 C 16.078125 0.25 14.25 0.546875 12.21875 0.546875 Z M 12.21875 -2.71875 C 14 -2.71875 15.46875 -3.304688 16.625 -4.484375 C 17.78125 -5.660156 18.65625 -7.15625 19.25 -8.96875 C 19.851562 -10.78125 20.15625 -12.644531 20.15625 -14.5625 C 20.15625 -14.5625 20.15625 -14.566406 20.15625 -14.578125 C 20.15625 -14.597656 20.15625 -14.664062 20.15625 -14.78125 C 20.113281 -14.957031 20.09375 -15.15625 20.09375 -15.375 C 20.09375 -15.550781 20.09375 -15.710938 20.09375 -15.859375 C 19.988281 -17.453125 19.664062 -18.945312 19.125 -20.34375 C 18.582031 -21.738281 17.820312 -22.859375 16.84375 -23.703125 C 15.863281 -24.554688 14.664062 -24.984375 13.25 -24.984375 C 12.488281 -24.984375 11.726562 -24.429688 10.96875 -23.328125 C 10.207031 -22.222656 9.570312 -20.800781 9.0625 -19.0625 C 8.5625 -17.332031 8.3125 -15.523438 8.3125 -13.640625 C 8.3125 -11.753906 8.507812 -9.976562 8.90625 -8.3125 C 9.300781 -6.644531 9.804688 -5.296875 10.421875 -4.265625 C 11.046875 -3.234375 11.644531 -2.71875 12.21875 -2.71875 Z M 21.78125 -40.484375 C 22.351562 -40.484375 22.640625 -40.210938 22.640625 -39.671875 C 22.640625 -39.378906 22.566406 -39.09375 22.421875 -38.8125 C 22.347656 -38.664062 22.117188 -38.3125 21.734375 -37.75 C 21.359375 -37.1875 20.925781 -36.539062 20.4375 -35.8125 C 19.957031 -35.09375 19.515625 -34.429688 19.109375 -33.828125 C 18.710938 -33.234375 18.460938 -32.847656 18.359375 -32.671875 C 18.140625 -32.304688 17.820312 -31.878906 17.40625 -31.390625 C 16.988281 -30.898438 16.613281 -30.65625 16.28125 -30.65625 L 12.96875 -30.65625 C 12.539062 -30.65625 12.328125 -30.910156 12.328125 -31.421875 C 12.328125 -31.816406 12.453125 -32.234375 12.703125 -32.671875 C 12.804688 -32.890625 13.019531 -33.273438 13.34375 -33.828125 C 13.675781 -34.390625 14.023438 -35.023438 14.390625 -35.734375 C 14.753906 -36.441406 15.085938 -37.082031 15.390625 -37.65625 C 15.703125 -38.238281 15.910156 -38.640625 16.015625 -38.859375 C 16.265625 -39.296875 16.535156 -39.675781 16.828125 -40 C 17.117188 -40.320312 17.519531 -40.484375 18.03125 -40.484375 Z M 21.78125 -40.484375" transform="translate(196.882 213.284)"/></g></g></g><g fill="#F0F"><g><g><path d="M 5.96875 6.734375 C 5.570312 6.335938 5.375 5.90625 5.375 5.4375 C 5.375 4.488281 5.921875 3.835938 7.015625 3.484375 L 8.75 2.9375 C 8.851562 2.894531 9 2.875 9.1875 2.875 C 9.800781 2.875 10.285156 3.144531 10.640625 3.6875 C 11.585938 5.070312 12.378906 5.976562 13.015625 6.40625 C 13.648438 6.84375 14.472656 7.0625 15.484375 7.0625 C 17.441406 7.0625 18.972656 6.632812 20.078125 5.78125 C 21.179688 4.9375 21.734375 3.625 21.734375 1.84375 L 21.734375 -1.953125 C 20.785156 -1.160156 19.722656 -0.546875 18.546875 -0.109375 C 17.367188 0.328125 16.054688 0.546875 14.609375 0.546875 C 12.035156 0.546875 9.769531 -0.09375 7.8125 -1.375 C 5.863281 -2.664062 4.34375 -4.425781 3.25 -6.65625 C 2.164062 -8.882812 1.625 -11.390625 1.625 -14.171875 C 1.625 -16.929688 2.113281 -19.359375 3.09375 -21.453125 C 4.070312 -23.554688 5.472656 -25.210938 7.296875 -26.421875 C 9.128906 -27.640625 11.332031 -28.25 13.90625 -28.25 C 15.539062 -28.25 17.007812 -28.050781 18.3125 -27.65625 C 19.613281 -27.257812 20.753906 -26.695312 21.734375 -25.96875 C 21.765625 -26.476562 21.941406 -26.894531 22.265625 -27.21875 C 22.597656 -27.539062 23.035156 -27.703125 23.578125 -27.703125 L 26.296875 -27.703125 C 26.804688 -27.703125 27.238281 -27.519531 27.59375 -27.15625 C 27.957031 -26.800781 28.140625 -26.367188 28.140625 -25.859375 L 28.140625 1.84375 C 28.140625 3.507812 27.585938 4.976562 26.484375 6.25 C 25.378906 7.519531 23.863281 8.515625 21.9375 9.234375 C 20.019531 9.960938 17.867188 10.328125 15.484375 10.328125 C 11.609375 10.328125 8.4375 9.128906 5.96875 6.734375 Z M 14.609375 -2.765625 C 15.734375 -2.765625 16.835938 -3.144531 17.921875 -3.90625 C 19.015625 -4.664062 19.910156 -5.867188 20.609375 -7.515625 C 21.316406 -9.171875 21.671875 -11.285156 21.671875 -13.859375 C 21.671875 -17.804688 21 -20.640625 19.65625 -22.359375 C 18.320312 -24.078125 16.40625 -24.9375 13.90625 -24.9375 C 13 -24.9375 12.09375 -24.546875 11.1875 -23.765625 C 10.28125 -22.984375 9.53125 -21.796875 8.9375 -20.203125 C 8.34375 -18.609375 8.046875 -16.597656 8.046875 -14.171875 C 8.046875 -12.003906 8.269531 -10.0625 8.71875 -8.34375 C 9.175781 -6.625 9.882812 -5.265625 10.84375 -4.265625 C 11.800781 -3.265625 13.054688 -2.765625 14.609375 -2.765625 Z M 14.609375 -2.765625" transform="translate(227.79 213.284)"/></g></g></g><g fill="#F0F"><g><g><path d="M 11.84375 -34.609375 C 11.84375 -34.097656 11.660156 -33.660156 11.296875 -33.296875 C 10.929688 -32.941406 10.5 -32.765625 10 -32.765625 L 6.734375 -32.765625 C 6.222656 -32.765625 5.785156 -32.941406 5.421875 -33.296875 C 5.066406 -33.660156 4.890625 -34.097656 4.890625 -34.609375 L 4.890625 -37.8125 C 4.890625 -38.320312 5.066406 -38.753906 5.421875 -39.109375 C 5.785156 -39.472656 6.222656 -39.65625 6.734375 -39.65625 L 10 -39.65625 C 10.5 -39.65625 10.929688 -39.472656 11.296875 -39.109375 C 11.660156 -38.753906 11.84375 -38.320312 11.84375 -37.8125 Z M 11.84375 -1.84375 C 11.84375 -1.34375 11.660156 -0.910156 11.296875 -0.546875 C 10.929688 -0.179688 10.5 0 10 0 L 6.734375 0 C 6.222656 0 5.785156 -0.179688 5.421875 -0.546875 C 5.066406 -0.910156 4.890625 -1.34375 4.890625 -1.84375 L 4.890625 -25.859375 C 4.890625 -26.367188 5.066406 -26.800781 5.421875 -27.15625 C 5.785156 -27.519531 6.222656 -27.703125 6.734375 -27.703125 L 10 -27.703125 C 10.5 -27.703125 10.929688 -27.519531 11.296875 -27.15625 C 11.660156 -26.800781 11.84375 -26.367188 11.84375 -25.859375 Z M 11.84375 -1.84375" transform="translate(259.73 213.284)"/></g></g></g><g fill="#F0F"><g><g><path d="M 27.984375 -20.265625 C 28.085938 -20.015625 28.140625 -19.78125 28.140625 -19.5625 C 28.140625 -19.09375 27.957031 -18.703125 27.59375 -18.390625 C 27.238281 -18.078125 26.804688 -17.882812 26.296875 -17.8125 L 23.359375 -17.546875 C 22.921875 -17.515625 22.53125 -17.625 22.1875 -17.875 C 21.84375 -18.125 21.617188 -18.46875 21.515625 -18.90625 C 20.972656 -20.71875 20.148438 -22.179688 19.046875 -23.296875 C 17.941406 -24.421875 16.609375 -24.984375 15.046875 -24.984375 C 13.847656 -24.984375 12.757812 -24.476562 11.78125 -23.46875 C 10.8125 -22.457031 10.035156 -21.097656 9.453125 -19.390625 C 8.867188 -17.691406 8.578125 -15.828125 8.578125 -13.796875 C 8.578125 -10.316406 9.191406 -7.597656 10.421875 -5.640625 C 11.660156 -3.691406 13.457031 -2.71875 15.8125 -2.71875 C 17.40625 -2.71875 18.691406 -3.3125 19.671875 -4.5 C 20.648438 -5.695312 21.375 -7.398438 21.84375 -9.609375 C 22.09375 -10.660156 22.722656 -11.148438 23.734375 -11.078125 L 26.84375 -10.8125 C 27.34375 -10.769531 27.765625 -10.585938 28.109375 -10.265625 C 28.453125 -9.941406 28.625 -9.546875 28.625 -9.078125 C 28.625 -8.929688 28.585938 -8.75 28.515625 -8.53125 C 27.722656 -5.8125 26.222656 -3.617188 24.015625 -1.953125 C 21.804688 -0.285156 19.070312 0.546875 15.8125 0.546875 C 11.320312 0.546875 7.832031 -0.742188 5.34375 -3.328125 C 2.863281 -5.921875 1.625 -9.410156 1.625 -13.796875 C 1.625 -16.546875 2.191406 -19.007812 3.328125 -21.1875 C 4.472656 -23.363281 6.050781 -25.082031 8.0625 -26.34375 C 10.070312 -27.613281 12.398438 -28.25 15.046875 -28.25 C 17.035156 -28.25 18.890625 -27.882812 20.609375 -27.15625 C 22.335938 -26.4375 23.84375 -25.476562 25.125 -24.28125 C 26.414062 -23.082031 27.367188 -21.742188 27.984375 -20.265625 Z M 27.984375 -20.265625" transform="translate(276.461 213.284)"/></g></g></g><g fill="#F0F"><g><g><path d="M 14.5625 -28.25 C 17.238281 -28.25 19.59375 -27.601562 21.625 -26.3125 C 23.65625 -25.03125 25.238281 -23.285156 26.375 -21.078125 C 27.519531 -18.867188 28.09375 -16.367188 28.09375 -13.578125 C 28.09375 -10.898438 27.554688 -8.492188 26.484375 -6.359375 C 25.410156 -4.222656 23.914062 -2.535156 22 -1.296875 C 20.082031 -0.0664062 17.835938 0.546875 15.265625 0.546875 C 12.546875 0.546875 10.160156 -0.078125 8.109375 -1.328125 C 6.066406 -2.578125 4.472656 -4.285156 3.328125 -6.453125 C 2.191406 -8.628906 1.625 -11.097656 1.625 -13.859375 C 1.625 -16.640625 2.15625 -19.117188 3.21875 -21.296875 C 4.289062 -23.472656 5.796875 -25.175781 7.734375 -26.40625 C 9.671875 -27.632812 11.945312 -28.25 14.5625 -28.25 Z M 14.5625 -24.984375 C 13.144531 -24.984375 11.929688 -24.503906 10.921875 -23.546875 C 9.910156 -22.585938 9.128906 -21.265625 8.578125 -19.578125 C 8.035156 -17.898438 7.765625 -15.992188 7.765625 -13.859375 C 7.765625 -10.015625 8.488281 -7.195312 9.9375 -5.40625 C 11.382812 -3.613281 13.160156 -2.71875 15.265625 -2.71875 C 16.898438 -2.71875 18.203125 -3.242188 19.171875 -4.296875 C 20.148438 -5.347656 20.859375 -6.703125 21.296875 -8.359375 C 21.734375 -10.023438 21.953125 -11.765625 21.953125 -13.578125 C 21.953125 -16.910156 21.296875 -19.644531 19.984375 -21.78125 C 18.679688 -23.914062 16.875 -24.984375 14.5625 -24.984375 Z M 14.5625 -24.984375" transform="translate(306.717 213.284)"/></g></g></g><g fill="#0FF"><g><g><path d="M 20.703125 -7.828125 C 20.367188 -7.097656 19.96875 -6.734375 19.5 -6.734375 C 19.03125 -6.734375 18.632812 -7.097656 18.3125 -7.828125 L 8.6875 -28.796875 L 8.6875 -1.796875 C 8.6875 -0.597656 8.09375 0 6.90625 0 L 4.515625 0 C 3.316406 0 2.71875 -0.597656 2.71875 -1.796875 L 2.71875 -39.5 C 2.71875 -40.695312 3.316406 -41.296875 4.515625 -41.296875 L 6.578125 -41.296875 C 7.554688 -41.296875 8.257812 -40.84375 8.6875 -39.9375 L 19.390625 -17.546875 L 30.046875 -39.9375 C 30.441406 -40.84375 31.144531 -41.296875 32.15625 -41.296875 L 34.234375 -41.296875 C 35.421875 -41.296875 36.015625 -40.695312 36.015625 -39.5 L 36.015625 -1.796875 C 36.015625 -0.597656 35.421875 0 34.234375 0 L 31.84375 0 C 30.644531 0 30.046875 -0.597656 30.046875 -1.796875 L 30.046875 -28.625 Z M 20.703125 -7.828125" transform="translate(153.154 210.398)"/></g></g></g><g fill="#0FF"><g><g><path d="M 12.21875 0.546875 C 9.90625 0.546875 7.941406 -0.0546875 6.328125 -1.265625 C 4.710938 -2.484375 3.476562 -4.160156 2.625 -6.296875 C 1.78125 -8.429688 1.359375 -10.878906 1.359375 -13.640625 C 1.359375 -16.359375 1.851562 -18.820312 2.84375 -21.03125 C 3.84375 -23.238281 5.226562 -24.992188 7 -26.296875 C 8.78125 -27.597656 10.863281 -28.25 13.25 -28.25 C 16.363281 -28.25 18.953125 -27.585938 21.015625 -26.265625 C 23.085938 -24.941406 24.628906 -23.226562 25.640625 -21.125 C 26.660156 -19.03125 27.171875 -16.804688 27.171875 -14.453125 C 27.171875 -14.304688 27.171875 -14.160156 27.171875 -14.015625 C 27.421875 -11.585938 27.707031 -9.382812 28.03125 -7.40625 C 28.351562 -5.4375 28.679688 -3.800781 29.015625 -2.5 C 29.046875 -2.394531 29.0625 -2.25 29.0625 -2.0625 C 29.0625 -0.976562 28.5 -0.34375 27.375 -0.15625 L 24.28125 0.21875 C 23.269531 0.320312 22.640625 -0.09375 22.390625 -1.03125 C 22.242188 -1.613281 22.113281 -2.210938 22 -2.828125 C 20.769531 -1.773438 19.335938 -0.945312 17.703125 -0.34375 C 16.078125 0.25 14.25 0.546875 12.21875 0.546875 Z M 12.21875 -2.71875 C 14 -2.71875 15.46875 -3.304688 16.625 -4.484375 C 17.78125 -5.660156 18.65625 -7.15625 19.25 -8.96875 C 19.851562 -10.78125 20.15625 -12.644531 20.15625 -14.5625 C 20.15625 -14.5625 20.15625 -14.566406 20.15625 -14.578125 C 20.15625 -14.597656 20.15625 -14.664062 20.15625 -14.78125 C 20.113281 -14.957031 20.09375 -15.15625 20.09375 -15.375 C 20.09375 -15.550781 20.09375 -15.710938 20.09375 -15.859375 C 19.988281 -17.453125 19.664062 -18.945312 19.125 -20.34375 C 18.582031 -21.738281 17.820312 -22.859375 16.84375 -23.703125 C 15.863281 -24.554688 14.664062 -24.984375 13.25 -24.984375 C 12.488281 -24.984375 11.726562 -24.429688 10.96875 -23.328125 C 10.207031 -22.222656 9.570312 -20.800781 9.0625 -19.0625 C 8.5625 -17.332031 8.3125 -15.523438 8.3125 -13.640625 C 8.3125 -11.753906 8.507812 -9.976562 8.90625 -8.3125 C 9.300781 -6.644531 9.804688 -5.296875 10.421875 -4.265625 C 11.046875 -3.234375 11.644531 -2.71875 12.21875 -2.71875 Z M 21.78125 -40.484375 C 22.351562 -40.484375 22.640625 -40.210938 22.640625 -39.671875 C 22.640625 -39.378906 22.566406 -39.09375 22.421875 -38.8125 C 22.347656 -38.664062 22.117188 -38.3125 21.734375 -37.75 C 21.359375 -37.1875 20.925781 -36.539062 20.4375 -35.8125 C 19.957031 -35.09375 19.515625 -34.429688 19.109375 -33.828125 C 18.710938 -33.234375 18.460938 -32.847656 18.359375 -32.671875 C 18.140625 -32.304688 17.820312 -31.878906 17.40625 -31.390625 C 16.988281 -30.898438 16.613281 -30.65625 16.28125 -30.65625 L 12.96875 -30.65625 C 12.539062 -30.65625 12.328125 -30.910156 12.328125 -31.421875 C 12.328125 -31.816406 12.453125 -32.234375 12.703125 -32.671875 C 12.804688 -32.890625 13.019531 -33.273438 13.34375 -33.828125 C 13.675781 -34.390625 14.023438 -35.023438 14.390625 -35.734375 C 14.753906 -36.441406 15.085938 -37.082031 15.390625 -37.65625 C 15.703125 -38.238281 15.910156 -38.640625 16.015625 -38.859375 C 16.265625 -39.296875 16.535156 -39.675781 16.828125 -40 C 17.117188 -40.320312 17.519531 -40.484375 18.03125 -40.484375 Z M 21.78125 -40.484375" transform="translate(191.884 210.398)"/></g></g></g><g fill="#0FF"><g><g><path d="M 5.96875 6.734375 C 5.570312 6.335938 5.375 5.90625 5.375 5.4375 C 5.375 4.488281 5.921875 3.835938 7.015625 3.484375 L 8.75 2.9375 C 8.851562 2.894531 9 2.875 9.1875 2.875 C 9.800781 2.875 10.285156 3.144531 10.640625 3.6875 C 11.585938 5.070312 12.378906 5.976562 13.015625 6.40625 C 13.648438 6.84375 14.472656 7.0625 15.484375 7.0625 C 17.441406 7.0625 18.972656 6.632812 20.078125 5.78125 C 21.179688 4.9375 21.734375 3.625 21.734375 1.84375 L 21.734375 -1.953125 C 20.785156 -1.160156 19.722656 -0.546875 18.546875 -0.109375 C 17.367188 0.328125 16.054688 0.546875 14.609375 0.546875 C 12.035156 0.546875 9.769531 -0.09375 7.8125 -1.375 C 5.863281 -2.664062 4.34375 -4.425781 3.25 -6.65625 C 2.164062 -8.882812 1.625 -11.390625 1.625 -14.171875 C 1.625 -16.929688 2.113281 -19.359375 3.09375 -21.453125 C 4.070312 -23.554688 5.472656 -25.210938 7.296875 -26.421875 C 9.128906 -27.640625 11.332031 -28.25 13.90625 -28.25 C 15.539062 -28.25 17.007812 -28.050781 18.3125 -27.65625 C 19.613281 -27.257812 20.753906 -26.695312 21.734375 -25.96875 C 21.765625 -26.476562 21.941406 -26.894531 22.265625 -27.21875 C 22.597656 -27.539062 23.035156 -27.703125 23.578125 -27.703125 L 26.296875 -27.703125 C 26.804688 -27.703125 27.238281 -27.519531 27.59375 -27.15625 C 27.957031 -26.800781 28.140625 -26.367188 28.140625 -25.859375 L 28.140625 1.84375 C 28.140625 3.507812 27.585938 4.976562 26.484375 6.25 C 25.378906 7.519531 23.863281 8.515625 21.9375 9.234375 C 20.019531 9.960938 17.867188 10.328125 15.484375 10.328125 C 11.609375 10.328125 8.4375 9.128906 5.96875 6.734375 Z M 14.609375 -2.765625 C 15.734375 -2.765625 16.835938 -3.144531 17.921875 -3.90625 C 19.015625 -4.664062 19.910156 -5.867188 20.609375 -7.515625 C 21.316406 -9.171875 21.671875 -11.285156 21.671875 -13.859375 C 21.671875 -17.804688 21 -20.640625 19.65625 -22.359375 C 18.320312 -24.078125 16.40625 -24.9375 13.90625 -24.9375 C 13 -24.9375 12.09375 -24.546875 11.1875 -23.765625 C 10.28125 -22.984375 9.53125 -21.796875 8.9375 -20.203125 C 8.34375 -18.609375 8.046875 -16.597656 8.046875 -14.171875 C 8.046875 -12.003906 8.269531 -10.0625 8.71875 -8.34375 C 9.175781 -6.625 9.882812 -5.265625 10.84375 -4.265625 C 11.800781 -3.265625 13.054688 -2.765625 14.609375 -2.765625 Z M 14.609375 -2.765625" transform="translate(222.792 210.398)"/></g></g></g><g fill="#0FF"><g><g><path d="M 11.84375 -34.609375 C 11.84375 -34.097656 11.660156 -33.660156 11.296875 -33.296875 C 10.929688 -32.941406 10.5 -32.765625 10 -32.765625 L 6.734375 -32.765625 C 6.222656 -32.765625 5.785156 -32.941406 5.421875 -33.296875 C 5.066406 -33.660156 4.890625 -34.097656 4.890625 -34.609375 L 4.890625 -37.8125 C 4.890625 -38.320312 5.066406 -38.753906 5.421875 -39.109375 C 5.785156 -39.472656 6.222656 -39.65625 6.734375 -39.65625 L 10 -39.65625 C 10.5 -39.65625 10.929688 -39.472656 11.296875 -39.109375 C 11.660156 -38.753906 11.84375 -38.320312 11.84375 -37.8125 Z M 11.84375 -1.84375 C 11.84375 -1.34375 11.660156 -0.910156 11.296875 -0.546875 C 10.929688 -0.179688 10.5 0 10 0 L 6.734375 0 C 6.222656 0 5.785156 -0.179688 5.421875 -0.546875 C 5.066406 -0.910156 4.890625 -1.34375 4.890625 -1.84375 L 4.890625 -25.859375 C 4.890625 -26.367188 5.066406 -26.800781 5.421875 -27.15625 C 5.785156 -27.519531 6.222656 -27.703125 6.734375 -27.703125 L 10 -27.703125 C 10.5 -27.703125 10.929688 -27.519531 11.296875 -27.15625 C 11.660156 -26.800781 11.84375 -26.367188 11.84375 -25.859375 Z M 11.84375 -1.84375" transform="translate(254.732 210.398)"/></g></g></g><g fill="#0FF"><g><g><path d="M 27.984375 -20.265625 C 28.085938 -20.015625 28.140625 -19.78125 28.140625 -19.5625 C 28.140625 -19.09375 27.957031 -18.703125 27.59375 -18.390625 C 27.238281 -18.078125 26.804688 -17.882812 26.296875 -17.8125 L 23.359375 -17.546875 C 22.921875 -17.515625 22.53125 -17.625 22.1875 -17.875 C 21.84375 -18.125 21.617188 -18.46875 21.515625 -18.90625 C 20.972656 -20.71875 20.148438 -22.179688 19.046875 -23.296875 C 17.941406 -24.421875 16.609375 -24.984375 15.046875 -24.984375 C 13.847656 -24.984375 12.757812 -24.476562 11.78125 -23.46875 C 10.8125 -22.457031 10.035156 -21.097656 9.453125 -19.390625 C 8.867188 -17.691406 8.578125 -15.828125 8.578125 -13.796875 C 8.578125 -10.316406 9.191406 -7.597656 10.421875 -5.640625 C 11.660156 -3.691406 13.457031 -2.71875 15.8125 -2.71875 C 17.40625 -2.71875 18.691406 -3.3125 19.671875 -4.5 C 20.648438 -5.695312 21.375 -7.398438 21.84375 -9.609375 C 22.09375 -10.660156 22.722656 -11.148438 23.734375 -11.078125 L 26.84375 -10.8125 C 27.34375 -10.769531 27.765625 -10.585938 28.109375 -10.265625 C 28.453125 -9.941406 28.625 -9.546875 28.625 -9.078125 C 28.625 -8.929688 28.585938 -8.75 28.515625 -8.53125 C 27.722656 -5.8125 26.222656 -3.617188 24.015625 -1.953125 C 21.804688 -0.285156 19.070312 0.546875 15.8125 0.546875 C 11.320312 0.546875 7.832031 -0.742188 5.34375 -3.328125 C 2.863281 -5.921875 1.625 -9.410156 1.625 -13.796875 C 1.625 -16.546875 2.191406 -19.007812 3.328125 -21.1875 C 4.472656 -23.363281 6.050781 -25.082031 8.0625 -26.34375 C 10.070312 -27.613281 12.398438 -28.25 15.046875 -28.25 C 17.035156 -28.25 18.890625 -27.882812 20.609375 -27.15625 C 22.335938 -26.4375 23.84375 -25.476562 25.125 -24.28125 C 26.414062 -23.082031 27.367188 -21.742188 27.984375 -20.265625 Z M 27.984375 -20.265625" transform="translate(271.462 210.398)"/></g></g></g><g fill="#0FF"><g><g><path d="M 14.5625 -28.25 C 17.238281 -28.25 19.59375 -27.601562 21.625 -26.3125 C 23.65625 -25.03125 25.238281 -23.285156 26.375 -21.078125 C 27.519531 -18.867188 28.09375 -16.367188 28.09375 -13.578125 C 28.09375 -10.898438 27.554688 -8.492188 26.484375 -6.359375 C 25.410156 -4.222656 23.914062 -2.535156 22 -1.296875 C 20.082031 -0.0664062 17.835938 0.546875 15.265625 0.546875 C 12.546875 0.546875 10.160156 -0.078125 8.109375 -1.328125 C 6.066406 -2.578125 4.472656 -4.285156 3.328125 -6.453125 C 2.191406 -8.628906 1.625 -11.097656 1.625 -13.859375 C 1.625 -16.640625 2.15625 -19.117188 3.21875 -21.296875 C 4.289062 -23.472656 5.796875 -25.175781 7.734375 -26.40625 C 9.671875 -27.632812 11.945312 -28.25 14.5625 -28.25 Z M 14.5625 -24.984375 C 13.144531 -24.984375 11.929688 -24.503906 10.921875 -23.546875 C 9.910156 -22.585938 9.128906 -21.265625 8.578125 -19.578125 C 8.035156 -17.898438 7.765625 -15.992188 7.765625 -13.859375 C 7.765625 -10.015625 8.488281 -7.195312 9.9375 -5.40625 C 11.382812 -3.613281 13.160156 -2.71875 15.265625 -2.71875 C 16.898438 -2.71875 18.203125 -3.242188 19.171875 -4.296875 C 20.148438 -5.347656 20.859375 -6.703125 21.296875 -8.359375 C 21.734375 -10.023438 21.953125 -11.765625 21.953125 -13.578125 C 21.953125 -16.910156 21.296875 -19.644531 19.984375 -21.78125 C 18.679688 -23.914062 16.875 -24.984375 14.5625 -24.984375 Z M 14.5625 -24.984375" transform="translate(301.719 210.398)"/></g></g></g><g fill="#FFF"><g><g><path d="M 20.703125 -7.828125 C 20.367188 -7.097656 19.96875 -6.734375 19.5 -6.734375 C 19.03125 -6.734375 18.632812 -7.097656 18.3125 -7.828125 L 8.6875 -28.796875 L 8.6875 -1.796875 C 8.6875 -0.597656 8.09375 0 6.90625 0 L 4.515625 0 C 3.316406 0 2.71875 -0.597656 2.71875 -1.796875 L 2.71875 -39.5 C 2.71875 -40.695312 3.316406 -41.296875 4.515625 -41.296875 L 6.578125 -41.296875 C 7.554688 -41.296875 8.257812 -40.84375 8.6875 -39.9375 L 19.390625 -17.546875 L 30.046875 -39.9375 C 30.441406 -40.84375 31.144531 -41.296875 32.15625 -41.296875 L 34.234375 -41.296875 C 35.421875 -41.296875 36.015625 -40.695312 36.015625 -39.5 L 36.015625 -1.796875 C 36.015625 -0.597656 35.421875 0 34.234375 0 L 31.84375 0 C 30.644531 0 30.046875 -0.597656 30.046875 -1.796875 L 30.046875 -28.625 Z M 20.703125 -7.828125" transform="translate(155.653 211.841)"/></g></g></g><g fill="#FFF"><g><g><path d="M 12.21875 0.546875 C 9.90625 0.546875 7.941406 -0.0546875 6.328125 -1.265625 C 4.710938 -2.484375 3.476562 -4.160156 2.625 -6.296875 C 1.78125 -8.429688 1.359375 -10.878906 1.359375 -13.640625 C 1.359375 -16.359375 1.851562 -18.820312 2.84375 -21.03125 C 3.84375 -23.238281 5.226562 -24.992188 7 -26.296875 C 8.78125 -27.597656 10.863281 -28.25 13.25 -28.25 C 16.363281 -28.25 18.953125 -27.585938 21.015625 -26.265625 C 23.085938 -24.941406 24.628906 -23.226562 25.640625 -21.125 C 26.660156 -19.03125 27.171875 -16.804688 27.171875 -14.453125 C 27.171875 -14.304688 27.171875 -14.160156 27.171875 -14.015625 C 27.421875 -11.585938 27.707031 -9.382812 28.03125 -7.40625 C 28.351562 -5.4375 28.679688 -3.800781 29.015625 -2.5 C 29.046875 -2.394531 29.0625 -2.25 29.0625 -2.0625 C 29.0625 -0.976562 28.5 -0.34375 27.375 -0.15625 L 24.28125 0.21875 C 23.269531 0.320312 22.640625 -0.09375 22.390625 -1.03125 C 22.242188 -1.613281 22.113281 -2.210938 22 -2.828125 C 20.769531 -1.773438 19.335938 -0.945312 17.703125 -0.34375 C 16.078125 0.25 14.25 0.546875 12.21875 0.546875 Z M 12.21875 -2.71875 C 14 -2.71875 15.46875 -3.304688 16.625 -4.484375 C 17.78125 -5.660156 18.65625 -7.15625 19.25 -8.96875 C 19.851562 -10.78125 20.15625 -12.644531 20.15625 -14.5625 C 20.15625 -14.5625 20.15625 -14.566406 20.15625 -14.578125 C 20.15625 -14.597656 20.15625 -14.664062 20.15625 -14.78125 C 20.113281 -14.957031 20.09375 -15.15625 20.09375 -15.375 C 20.09375 -15.550781 20.09375 -15.710938 20.09375 -15.859375 C 19.988281 -17.453125 19.664062 -18.945312 19.125 -20.34375 C 18.582031 -21.738281 17.820312 -22.859375 16.84375 -23.703125 C 15.863281 -24.554688 14.664062 -24.984375 13.25 -24.984375 C 12.488281 -24.984375 11.726562 -24.429688 10.96875 -23.328125 C 10.207031 -22.222656 9.570312 -20.800781 9.0625 -19.0625 C 8.5625 -17.332031 8.3125 -15.523438 8.3125 -13.640625 C 8.3125 -11.753906 8.507812 -9.976562 8.90625 -8.3125 C 9.300781 -6.644531 9.804688 -5.296875 10.421875 -4.265625 C 11.046875 -3.234375 11.644531 -2.71875 12.21875 -2.71875 Z M 21.78125 -40.484375 C 22.351562 -40.484375 22.640625 -40.210938 22.640625 -39.671875 C 22.640625 -39.378906 22.566406 -39.09375 22.421875 -38.8125 C 22.347656 -38.664062 22.117188 -38.3125 21.734375 -37.75 C 21.359375 -37.1875 20.925781 -36.539062 20.4375 -35.8125 C 19.957031 -35.09375 19.515625 -34.429688 19.109375 -33.828125 C 18.710938 -33.234375 18.460938 -32.847656 18.359375 -32.671875 C 18.140625 -32.304688 17.820312 -31.878906 17.40625 -31.390625 C 16.988281 -30.898438 16.613281 -30.65625 16.28125 -30.65625 L 12.96875 -30.65625 C 12.539062 -30.65625 12.328125 -30.910156 12.328125 -31.421875 C 12.328125 -31.816406 12.453125 -32.234375 12.703125 -32.671875 C 12.804688 -32.890625 13.019531 -33.273438 13.34375 -33.828125 C 13.675781 -34.390625 14.023438 -35.023438 14.390625 -35.734375 C 14.753906 -36.441406 15.085938 -37.082031 15.390625 -37.65625 C 15.703125 -38.238281 15.910156 -38.640625 16.015625 -38.859375 C 16.265625 -39.296875 16.535156 -39.675781 16.828125 -40 C 17.117188 -40.320312 17.519531 -40.484375 18.03125 -40.484375 Z M 21.78125 -40.484375" transform="translate(194.383 211.841)"/></g></g></g><g fill="#FFF"><g><g><path d="M 5.96875 6.734375 C 5.570312 6.335938 5.375 5.90625 5.375 5.4375 C 5.375 4.488281 5.921875 3.835938 7.015625 3.484375 L 8.75 2.9375 C 8.851562 2.894531 9 2.875 9.1875 2.875 C 9.800781 2.875 10.285156 3.144531 10.640625 3.6875 C 11.585938 5.070312 12.378906 5.976562 13.015625 6.40625 C 13.648438 6.84375 14.472656 7.0625 15.484375 7.0625 C 17.441406 7.0625 18.972656 6.632812 20.078125 5.78125 C 21.179688 4.9375 21.734375 3.625 21.734375 1.84375 L 21.734375 -1.953125 C 20.785156 -1.160156 19.722656 -0.546875 18.546875 -0.109375 C 17.367188 0.328125 16.054688 0.546875 14.609375 0.546875 C 12.035156 0.546875 9.769531 -0.09375 7.8125 -1.375 C 5.863281 -2.664062 4.34375 -4.425781 3.25 -6.65625 C 2.164062 -8.882812 1.625 -11.390625 1.625 -14.171875 C 1.625 -16.929688 2.113281 -19.359375 3.09375 -21.453125 C 4.070312 -23.554688 5.472656 -25.210938 7.296875 -26.421875 C 9.128906 -27.640625 11.332031 -28.25 13.90625 -28.25 C 15.539062 -28.25 17.007812 -28.050781 18.3125 -27.65625 C 19.613281 -27.257812 20.753906 -26.695312 21.734375 -25.96875 C 21.765625 -26.476562 21.941406 -26.894531 22.265625 -27.21875 C 22.597656 -27.539062 23.035156 -27.703125 23.578125 -27.703125 L 26.296875 -27.703125 C 26.804688 -27.703125 27.238281 -27.519531 27.59375 -27.15625 C 27.957031 -26.800781 28.140625 -26.367188 28.140625 -25.859375 L 28.140625 1.84375 C 28.140625 3.507812 27.585938 4.976562 26.484375 6.25 C 25.378906 7.519531 23.863281 8.515625 21.9375 9.234375 C 20.019531 9.960938 17.867188 10.328125 15.484375 10.328125 C 11.609375 10.328125 8.4375 9.128906 5.96875 6.734375 Z M 14.609375 -2.765625 C 15.734375 -2.765625 16.835938 -3.144531 17.921875 -3.90625 C 19.015625 -4.664062 19.910156 -5.867188 20.609375 -7.515625 C 21.316406 -9.171875 21.671875 -11.285156 21.671875 -13.859375 C 21.671875 -17.804688 21 -20.640625 19.65625 -22.359375 C 18.320312 -24.078125 16.40625 -24.9375 13.90625 -24.9375 C 13 -24.9375 12.09375 -24.546875 11.1875 -23.765625 C 10.28125 -22.984375 9.53125 -21.796875 8.9375 -20.203125 C 8.34375 -18.609375 8.046875 -16.597656 8.046875 -14.171875 C 8.046875 -12.003906 8.269531 -10.0625 8.71875 -8.34375 C 9.175781 -6.625 9.882812 -5.265625 10.84375 -4.265625 C 11.800781 -3.265625 13.054688 -2.765625 14.609375 -2.765625 Z M 14.609375 -2.765625" transform="translate(225.291 211.841)"/></g></g></g><g fill="#FFF"><g><g><path d="M 11.84375 -34.609375 C 11.84375 -34.097656 11.660156 -33.660156 11.296875 -33.296875 C 10.929688 -32.941406 10.5 -32.765625 10 -32.765625 L 6.734375 -32.765625 C 6.222656 -32.765625 5.785156 -32.941406 5.421875 -33.296875 C 5.066406 -33.660156 4.890625 -34.097656 4.890625 -34.609375 L 4.890625 -37.8125 C 4.890625 -38.320312 5.066406 -38.753906 5.421875 -39.109375 C 5.785156 -39.472656 6.222656 -39.65625 6.734375 -39.65625 L 10 -39.65625 C 10.5 -39.65625 10.929688 -39.472656 11.296875 -39.109375 C 11.660156 -38.753906 11.84375 -38.320312 11.84375 -37.8125 Z M 11.84375 -1.84375 C 11.84375 -1.34375 11.660156 -0.910156 11.296875 -0.546875 C 10.929688 -0.179688 10.5 0 10 0 L 6.734375 0 C 6.222656 0 5.785156 -0.179688 5.421875 -0.546875 C 5.066406 -0.910156 4.890625 -1.34375 4.890625 -1.84375 L 4.890625 -25.859375 C 4.890625 -26.367188 5.066406 -26.800781 5.421875 -27.15625 C 5.785156 -27.519531 6.222656 -27.703125 6.734375 -27.703125 L 10 -27.703125 C 10.5 -27.703125 10.929688 -27.519531 11.296875 -27.15625 C 11.660156 -26.800781 11.84375 -26.367188 11.84375 -25.859375 Z M 11.84375 -1.84375" transform="translate(257.231 211.841)"/></g></g></g><g fill="#FFF"><g><g><path d="M 27.984375 -20.265625 C 28.085938 -20.015625 28.140625 -19.78125 28.140625 -19.5625 C 28.140625 -19.09375 27.957031 -18.703125 27.59375 -18.390625 C 27.238281 -18.078125 26.804688 -17.882812 26.296875 -17.8125 L 23.359375 -17.546875 C 22.921875 -17.515625 22.53125 -17.625 22.1875 -17.875 C 21.84375 -18.125 21.617188 -18.46875 21.515625 -18.90625 C 20.972656 -20.71875 20.148438 -22.179688 19.046875 -23.296875 C 17.941406 -24.421875 16.609375 -24.984375 15.046875 -24.984375 C 13.847656 -24.984375 12.757812 -24.476562 11.78125 -23.46875 C 10.8125 -22.457031 10.035156 -21.097656 9.453125 -19.390625 C 8.867188 -17.691406 8.578125 -15.828125 8.578125 -13.796875 C 8.578125 -10.316406 9.191406 -7.597656 10.421875 -5.640625 C 11.660156 -3.691406 13.457031 -2.71875 15.8125 -2.71875 C 17.40625 -2.71875 18.691406 -3.3125 19.671875 -4.5 C 20.648438 -5.695312 21.375 -7.398438 21.84375 -9.609375 C 22.09375 -10.660156 22.722656 -11.148438 23.734375 -11.078125 L 26.84375 -10.8125 C 27.34375 -10.769531 27.765625 -10.585938 28.109375 -10.265625 C 28.453125 -9.941406 28.625 -9.546875 28.625 -9.078125 C 28.625 -8.929688 28.585938 -8.75 28.515625 -8.53125 C 27.722656 -5.8125 26.222656 -3.617188 24.015625 -1.953125 C 21.804688 -0.285156 19.070312 0.546875 15.8125 0.546875 C 11.320312 0.546875 7.832031 -0.742188 5.34375 -3.328125 C 2.863281 -5.921875 1.625 -9.410156 1.625 -13.796875 C 1.625 -16.546875 2.191406 -19.007812 3.328125 -21.1875 C 4.472656 -23.363281 6.050781 -25.082031 8.0625 -26.34375 C 10.070312 -27.613281 12.398438 -28.25 15.046875 -28.25 C 17.035156 -28.25 18.890625 -27.882812 20.609375 -27.15625 C 22.335938 -26.4375 23.84375 -25.476562 25.125 -24.28125 C 26.414062 -23.082031 27.367188 -21.742188 27.984375 -20.265625 Z M 27.984375 -20.265625" transform="translate(273.962 211.841)"/></g></g></g><g fill="#FFF"><g><g><path d="M 14.5625 -28.25 C 17.238281 -28.25 19.59375 -27.601562 21.625 -26.3125 C 23.65625 -25.03125 25.238281 -23.285156 26.375 -21.078125 C 27.519531 -18.867188 28.09375 -16.367188 28.09375 -13.578125 C 28.09375 -10.898438 27.554688 -8.492188 26.484375 -6.359375 C 25.410156 -4.222656 23.914062 -2.535156 22 -1.296875 C 20.082031 -0.0664062 17.835938 0.546875 15.265625 0.546875 C 12.546875 0.546875 10.160156 -0.078125 8.109375 -1.328125 C 6.066406 -2.578125 4.472656 -4.285156 3.328125 -6.453125 C 2.191406 -8.628906 1.625 -11.097656 1.625 -13.859375 C 1.625 -16.640625 2.15625 -19.117188 3.21875 -21.296875 C 4.289062 -23.472656 5.796875 -25.175781 7.734375 -26.40625 C 9.671875 -27.632812 11.945312 -28.25 14.5625 -28.25 Z M 14.5625 -24.984375 C 13.144531 -24.984375 11.929688 -24.503906 10.921875 -23.546875 C 9.910156 -22.585938 9.128906 -21.265625 8.578125 -19.578125 C 8.035156 -17.898438 7.765625 -15.992188 7.765625 -13.859375 C 7.765625 -10.015625 8.488281 -7.195312 9.9375 -5.40625 C 11.382812 -3.613281 13.160156 -2.71875 15.265625 -2.71875 C 16.898438 -2.71875 18.203125 -3.242188 19.171875 -4.296875 C 20.148438 -5.347656 20.859375 -6.703125 21.296875 -8.359375 C 21.734375 -10.023438 21.953125 -11.765625 21.953125 -13.578125 C 21.953125 -16.910156 21.296875 -19.644531 19.984375 -21.78125 C 18.679688 -23.914062 16.875 -24.984375 14.5625 -24.984375 Z M 14.5625 -24.984375" transform="translate(304.218 211.841)"/></g></g></g></svg>