<svg xmlns="http://www.w3.org/2000/svg" width="375" viewBox="0 0 375 375" height="375" version="1.0"><defs><clipPath id="a"><path d="M 80 141 L 295 141 L 295 250.296875 L 80 250.296875 Z M 80 141"/></clipPath><clipPath id="b"><path d="M 145 137.796875 L 230 137.796875 L 230 173 L 145 173 Z M 145 137.796875"/></clipPath><clipPath id="c"><path d="M 90 214 L 155 214 L 155 250.296875 L 90 250.296875 Z M 90 214"/></clipPath><clipPath id="d"><path d="M 154 161.132812 L 221.535156 161.132812 L 221.535156 194.269531 L 154 194.269531 Z M 154 161.132812"/></clipPath><clipPath id="e"><path d="M 153.71875 161.132812 L 221.535156 161.132812 L 221.535156 194.269531 L 153.71875 194.269531 Z M 153.71875 161.132812"/></clipPath><clipPath id="f"><path d="M 171 168 L 187 168 L 187 183.175781 L 171 183.175781 Z M 171 168"/></clipPath><clipPath id="g"><path d="M 192 171 L 208 171 L 208 183.175781 L 192 183.175781 Z M 192 171"/></clipPath><clipPath id="h"><path d="M 125.847656 14 L 249 14 L 249 114 L 125.847656 114 Z M 125.847656 14"/></clipPath></defs><g clip-path="url(#a)"><path fill="#008037" d="M 125.722656 141.414062 L 249.382812 141.414062 L 294.941406 250.355469 L 80.167969 250.355469 L 125.722656 141.414062"/></g><path fill="#F8A62B" d="M 206.355469 174.339844 C 206.355469 178.722656 198.027344 182.269531 187.765625 182.269531 C 177.492188 182.269531 169.179688 178.722656 169.179688 174.339844 C 169.179688 169.953125 177.492188 166.398438 187.765625 166.398438 C 198.027344 166.398438 206.355469 169.953125 206.355469 174.339844"/><path fill="#FBD14E" d="M 205.972656 172.414062 C 205.972656 176.800781 197.738281 180.34375 187.574219 180.34375 C 177.414062 180.34375 169.179688 176.800781 169.179688 172.414062 C 169.179688 168.03125 177.414062 164.472656 187.574219 164.472656 C 197.738281 164.472656 205.972656 168.03125 205.972656 172.414062"/><g clip-path="url(#b)"><path fill="#E33924" d="M 188.28125 41.128906 C 188.046875 41.128906 187.800781 41.140625 187.554688 41.140625 C 187.308594 41.140625 187.0625 41.128906 186.824219 41.128906 C 164.253906 41.128906 145.957031 60.195312 145.957031 83.714844 C 145.957031 87.71875 147.511719 97.003906 149.851562 100.851562 L 187.554688 172.414062 L 225.253906 100.851562 C 227.59375 97.003906 229.148438 87.71875 229.148438 83.714844 C 229.148438 60.195312 210.863281 41.128906 188.28125 41.128906"/></g><path stroke-linecap="square" transform="matrix(.1119 0 0 -.11184 -50.362 383.51)" fill="none" d="M 2792.996174 1846.78413 C 2792.996174 1846.78413 2781.512077 1847.901812 2763.116579 1847.797029" stroke="#351F16" stroke-width="20" stroke-miterlimit="10"/><path fill="#351F16" d="M 251.941406 176.242188 C 249.5 176.59375 247.238281 177.125 245.15625 177.835938 L 244.09375 178.195312 L 244.816406 180.3125 L 245.875 179.953125 C 247.828125 179.285156 249.957031 178.789062 252.261719 178.453125 L 253.371094 178.292969 L 253.046875 176.078125 Z M 238.8125 180.941406 C 236.742188 182.355469 235.050781 184.039062 233.734375 185.984375 L 233.105469 186.910156 L 234.960938 188.164062 L 235.585938 187.234375 C 236.746094 185.527344 238.242188 184.042969 240.074219 182.785156 L 241 182.15625 L 239.734375 180.308594 Z M 230.949219 192.578125 C 230.476562 194.742188 230.3125 197.085938 230.460938 199.617188 L 230.523438 200.734375 L 232.757812 200.605469 L 232.695312 199.488281 C 232.558594 197.164062 232.707031 195.019531 233.136719 193.058594 L 233.375 191.964844 L 231.191406 191.484375 Z M 230.222656 206.015625 C 229.730469 208.0625 228.890625 210.011719 227.699219 211.867188 L 227.097656 212.808594 L 228.980469 214.015625 L 229.582031 213.074219 C 230.910156 211.007812 231.851562 208.828125 232.398438 206.535156 L 232.660156 205.449219 L 230.480469 204.925781 Z M 223.464844 216.710938 C 221.902344 218.070312 220.113281 219.308594 218.089844 220.417969 L 217.109375 220.953125 L 218.1875 222.914062 L 219.167969 222.378906 C 221.328125 221.191406 223.253906 219.863281 224.9375 218.398438 L 225.78125 217.660156 L 224.308594 215.976562 Z M 212.082031 223.097656 C 210.101562 223.8125 207.976562 224.4375 205.707031 224.972656 L 204.617188 225.230469 L 205.132812 227.40625 L 206.222656 227.152344 C 208.574219 226.597656 210.78125 225.945312 212.84375 225.203125 L 213.894531 224.824219 L 213.136719 222.71875 Z M 199.152344 226.210938 C 197.027344 226.523438 194.804688 226.769531 192.484375 226.949219 L 191.367188 227.039062 L 191.542969 229.269531 L 192.660156 229.179688 C 195.027344 228.996094 197.300781 228.742188 199.476562 228.425781 L 200.582031 228.261719 L 200.257812 226.050781 Z M 185.78125 227.289062 C 183.742188 227.335938 181.644531 227.34375 179.480469 227.304688 L 179.015625 227.300781 L 177.898438 227.296875 L 177.882812 229.53125 L 179.003906 229.539062 L 179.441406 229.542969 C 181.636719 229.582031 184.140625 229.566406 186.953125 229.496094 L 186.898438 227.261719 Z M 172.183594 227.453125 C 169.898438 227.546875 167.628906 227.683594 165.382812 227.855469 L 164.265625 227.945312 L 164.441406 230.175781 L 165.554688 230.085938 C 167.777344 229.914062 170.015625 229.78125 172.273438 229.6875 L 173.394531 229.640625 L 173.300781 227.40625 Z M 158.605469 228.519531 C 156.25 228.800781 153.988281 229.121094 151.824219 229.488281 L 150.71875 229.675781 L 151.09375 231.882812 L 152.195312 231.695312 C 154.324219 231.335938 156.550781 231.015625 158.871094 230.742188 L 159.980469 230.609375 L 159.714844 228.386719 Z M 145.09375 230.84375 C 142.707031 231.40625 140.5 232.03125 138.464844 232.71875 L 137.402344 233.078125 L 138.121094 235.195312 L 139.179688 234.839844 C 141.148438 234.175781 143.292969 233.566406 145.609375 233.019531 L 146.699219 232.761719 L 146.183594 230.582031 Z M 132.066406 235.371094 C 129.734375 236.5625 127.789062 237.878906 126.222656 239.3125 L 125.398438 240.070312 L 126.910156 241.71875 L 127.734375 240.960938 C 129.152344 239.664062 130.933594 238.460938 133.085938 237.363281 L 134.082031 236.851562 L 133.0625 234.863281 Z M 132.066406 235.371094"/><g clip-path="url(#c)"><path stroke-linecap="square" transform="matrix(.1119 0 0 -.11184 -50.362 383.51)" fill="none" d="M 1550.79392 1232.19855 C 1547.68728 1223.012598 1545.802352 1213.19795 1545.488198 1202.789533" stroke="#351F16" stroke-width="20" stroke-miterlimit="10"/></g><g clip-path="url(#d)"><path fill="#FBD14E" d="M 221.191406 177.699219 C 221.191406 178.238281 221.136719 178.773438 221.027344 179.308594 C 220.921875 179.84375 220.757812 180.371094 220.542969 180.898438 C 220.332031 181.425781 220.0625 181.945312 219.746094 182.460938 C 219.425781 182.972656 219.054688 183.476562 218.636719 183.972656 C 218.214844 184.46875 217.746094 184.953125 217.226562 185.429688 C 216.707031 185.902344 216.144531 186.363281 215.535156 186.808594 C 214.921875 187.253906 214.269531 187.683594 213.570312 188.101562 C 212.875 188.515625 212.136719 188.914062 211.359375 189.292969 C 210.582031 189.671875 209.769531 190.03125 208.917969 190.371094 C 208.070312 190.714844 207.1875 191.03125 206.273438 191.332031 C 205.359375 191.628906 204.417969 191.90625 203.449219 192.15625 C 202.480469 192.410156 201.484375 192.640625 200.46875 192.84375 C 199.457031 193.050781 198.421875 193.230469 197.371094 193.386719 C 196.316406 193.542969 195.253906 193.671875 194.175781 193.777344 C 193.097656 193.882812 192.011719 193.960938 190.917969 194.015625 C 189.824219 194.066406 188.726562 194.09375 187.625 194.09375 C 186.527344 194.09375 185.429688 194.066406 184.335938 194.015625 C 183.242188 193.960938 182.15625 193.882812 181.078125 193.777344 C 180 193.671875 178.9375 193.542969 177.882812 193.386719 C 176.832031 193.230469 175.796875 193.050781 174.78125 192.84375 C 173.765625 192.640625 172.773438 192.410156 171.804688 192.15625 C 170.835938 191.90625 169.894531 191.628906 168.980469 191.332031 C 168.066406 191.03125 167.183594 190.714844 166.335938 190.371094 C 165.484375 190.03125 164.671875 189.671875 163.894531 189.292969 C 163.117188 188.914062 162.378906 188.515625 161.683594 188.101562 C 160.984375 187.683594 160.332031 187.253906 159.71875 186.808594 C 159.109375 186.363281 158.542969 185.902344 158.027344 185.429688 C 157.507812 184.953125 157.039062 184.46875 156.617188 183.972656 C 156.199219 183.476562 155.828125 182.972656 155.507812 182.460938 C 155.191406 181.945312 154.921875 181.425781 154.707031 180.898438 C 154.492188 180.371094 154.332031 179.84375 154.226562 179.308594 C 154.117188 178.773438 154.0625 178.238281 154.0625 177.699219 C 154.0625 177.164062 154.117188 176.628906 154.226562 176.09375 C 154.332031 175.558594 154.492188 175.03125 154.707031 174.503906 C 154.921875 173.976562 155.191406 173.457031 155.507812 172.941406 C 155.828125 172.429688 156.199219 171.925781 156.617188 171.429688 C 157.039062 170.933594 157.507812 170.445312 158.027344 169.972656 C 158.542969 169.5 159.109375 169.039062 159.71875 168.59375 C 160.332031 168.148438 160.984375 167.71875 161.683594 167.300781 C 162.378906 166.886719 163.117188 166.488281 163.894531 166.109375 C 164.671875 165.730469 165.484375 165.371094 166.335938 165.03125 C 167.183594 164.6875 168.066406 164.371094 168.980469 164.070312 C 169.894531 163.773438 170.835938 163.496094 171.804688 163.246094 C 172.773438 162.992188 173.765625 162.761719 174.78125 162.554688 C 175.796875 162.351562 176.832031 162.171875 177.882812 162.015625 C 178.9375 161.859375 180 161.726562 181.078125 161.625 C 182.15625 161.519531 183.242188 161.441406 184.335938 161.386719 C 185.429688 161.335938 186.527344 161.308594 187.625 161.308594 C 188.726562 161.308594 189.824219 161.335938 190.917969 161.386719 C 192.011719 161.441406 193.097656 161.519531 194.175781 161.625 C 195.253906 161.726562 196.316406 161.859375 197.371094 162.015625 C 198.421875 162.171875 199.457031 162.351562 200.46875 162.554688 C 201.484375 162.761719 202.480469 162.992188 203.449219 163.246094 C 204.417969 163.496094 205.359375 163.773438 206.273438 164.070312 C 207.1875 164.371094 208.070312 164.6875 208.917969 165.03125 C 209.769531 165.371094 210.582031 165.730469 211.359375 166.109375 C 212.136719 166.488281 212.875 166.886719 213.570312 167.300781 C 214.269531 167.71875 214.921875 168.148438 215.535156 168.59375 C 216.144531 169.039062 216.707031 169.5 217.226562 169.972656 C 217.746094 170.445312 218.214844 170.933594 218.636719 171.429688 C 219.054688 171.925781 219.425781 172.429688 219.746094 172.941406 C 220.0625 173.457031 220.332031 173.976562 220.542969 174.503906 C 220.757812 175.03125 220.921875 175.558594 221.027344 176.09375 C 221.136719 176.628906 221.191406 177.164062 221.191406 177.699219 Z M 221.191406 177.699219"/></g><g clip-path="url(#e)"><path fill="#F8A62B" d="M 187.625 163.164062 C 192.0625 163.164062 196.359375 163.585938 200.414062 164.425781 C 204.28125 165.222656 207.75 166.363281 210.707031 167.8125 C 213.527344 169.191406 215.820312 170.847656 217.324219 172.582031 C 218.761719 174.246094 219.496094 175.96875 219.496094 177.699219 C 219.496094 179.433594 218.761719 181.15625 217.324219 182.820312 C 215.820312 184.554688 213.527344 186.207031 210.707031 187.589844 C 207.75 189.039062 204.28125 190.179688 200.414062 190.976562 C 196.375 191.816406 192.074219 192.238281 187.625 192.238281 C 183.179688 192.238281 178.894531 191.816406 174.839844 190.976562 C 170.972656 190.179688 167.503906 189.039062 164.546875 187.589844 C 161.726562 186.207031 159.433594 184.554688 157.929688 182.820312 C 156.492188 181.15625 155.757812 179.433594 155.757812 177.699219 C 155.757812 175.96875 156.492188 174.246094 157.929688 172.582031 C 159.433594 170.847656 161.726562 169.191406 164.546875 167.8125 C 167.503906 166.363281 170.972656 165.222656 174.839844 164.425781 C 178.894531 163.597656 183.191406 163.164062 187.625 163.164062 M 187.625 161.132812 C 168.898438 161.132812 153.722656 168.554688 153.722656 177.699219 C 153.722656 186.84375 168.898438 194.269531 187.625 194.269531 C 206.355469 194.269531 221.527344 186.859375 221.527344 177.699219 C 221.527344 168.554688 206.355469 161.132812 187.625 161.132812 Z M 187.625 161.132812"/></g><g clip-path="url(#f)"><path fill="#73C9A8" d="M 185.042969 181.71875 C 183.714844 182.640625 182.0625 182.984375 180.449219 183.082031 C 178.832031 183.175781 177.183594 183.039062 175.679688 182.449219 C 174.175781 181.859375 172.820312 180.785156 172.105469 179.339844 C 171.253906 177.636719 171.355469 175.636719 171.40625 173.734375 C 171.453125 172.078125 171.445312 170.421875 171.386719 168.769531 C 172.410156 169.261719 173.457031 169.707031 174.507812 170.128906 C 176.949219 171.105469 179.472656 171.898438 182.046875 172.449219 C 182.074219 172.835938 182.105469 173.226562 182.132812 173.613281 C 182.222656 174.90625 182.382812 176.335938 183.355469 177.191406 C 184.304688 178.035156 185.945312 178.269531 186.238281 179.503906 C 186.433594 180.367188 185.773438 181.207031 185.042969 181.71875"/></g><g clip-path="url(#g)"><path fill="#73C9A8" d="M 205.914062 181.71875 C 204.585938 182.640625 202.929688 182.984375 201.316406 183.082031 C 199.703125 183.175781 198.054688 183.039062 196.546875 182.449219 C 195.042969 181.859375 193.695312 180.785156 192.96875 179.339844 C 192.125 177.636719 192.226562 175.636719 192.273438 173.734375 C 192.277344 173.597656 192.277344 173.464844 192.28125 173.328125 C 194.210938 173.230469 196.132812 172.972656 198.027344 172.546875 C 199.65625 172.179688 201.261719 171.683594 202.8125 171.058594 C 202.875 171.910156 202.9375 172.761719 203 173.613281 C 203.09375 174.90625 203.25 176.335938 204.222656 177.191406 C 205.171875 178.035156 206.816406 178.269531 207.101562 179.503906 C 207.304688 180.367188 206.644531 181.207031 205.914062 181.71875"/></g><path fill="#8AD6B8" d="M 221.667969 139.550781 C 221.582031 144.554688 220.804688 149.582031 219.011719 154.273438 C 217.300781 158.753906 214.675781 162.910156 211.046875 166.085938 C 207.351562 169.308594 202.796875 171.46875 198.027344 172.546875 C 192.90625 173.707031 187.578125 173.59375 182.445312 172.535156 C 179.734375 171.976562 177.078125 171.15625 174.507812 170.128906 C 172.042969 169.136719 169.570312 168.011719 167.382812 166.484375 C 163.410156 163.707031 160.792969 159.476562 159.367188 154.902344 C 157.714844 149.613281 157.710938 143.972656 158.105469 138.496094 C 158.527344 132.636719 159.234375 126.789062 160.046875 120.96875 C 160.320312 119.015625 160.628906 117.066406 160.933594 115.121094 L 161 115.140625 C 167.691406 117.214844 174.886719 116.179688 181.894531 116.007812 C 185.230469 115.925781 188.570312 116.035156 191.898438 116.347656 C 194.4375 116.585938 196.976562 116.941406 199.523438 116.917969 C 201.792969 116.898438 204.054688 116.582031 206.304688 116.265625 C 210.410156 115.691406 214.523438 115.113281 218.628906 114.535156 C 218.824219 115.625 219.027344 116.707031 219.222656 117.792969 C 219.480469 119.207031 219.734375 120.621094 219.976562 122.035156 C 220.972656 127.816406 221.777344 133.671875 221.667969 139.550781"/><path fill="#F9B0C1" d="M 158.679688 109.15625 C 158.507812 109.15625 158.347656 109.066406 158.257812 108.910156 C 158.15625 108.734375 158.179688 108.507812 158.316406 108.355469 L 158.425781 108.226562 C 158.519531 108.117188 158.65625 108.0625 158.792969 108.0625 C 158.851562 108.0625 158.90625 108.070312 158.960938 108.089844 C 159.152344 108.164062 159.277344 108.34375 159.277344 108.546875 L 159.277344 108.601562 C 159.304688 108.859375 159.125 109.09375 158.867188 109.132812 L 158.765625 109.148438 L 158.679688 109.15625"/><path fill="#5C43A4" d="M 158.792969 107.574219 C 158.519531 107.574219 158.25 107.691406 158.0625 107.90625 L 157.949219 108.035156 C 157.679688 108.34375 157.632812 108.792969 157.835938 109.148438 C 158.011719 109.457031 158.335938 109.644531 158.679688 109.644531 C 158.738281 109.644531 158.796875 109.636719 158.851562 109.625 L 158.941406 109.613281 C 159.453125 109.535156 159.816406 109.066406 159.761719 108.554688 L 159.761719 108.546875 C 159.761719 108.140625 159.511719 107.78125 159.132812 107.636719 C 159.023438 107.597656 158.90625 107.574219 158.792969 107.574219 Z M 158.792969 108.546875 L 158.796875 108.652344 L 158.679688 108.671875 L 158.792969 108.546875"/><path fill="#A565B9" d="M 222.421875 111.097656 C 222.367188 111.703125 222.289062 112.304688 222.175781 112.902344 C 222.117188 113.210938 222.046875 113.527344 221.84375 113.761719 C 221.550781 114.109375 221.054688 114.195312 220.605469 114.257812 C 215.835938 114.925781 211.074219 115.597656 206.304688 116.265625 C 204.054688 116.582031 201.792969 116.898438 199.523438 116.917969 C 196.976562 116.941406 194.4375 116.585938 191.898438 116.347656 C 188.570312 116.035156 185.230469 115.925781 181.894531 116.007812 C 174.886719 116.179688 167.691406 117.214844 161 115.140625 C 160.539062 115 160.058594 114.828125 159.734375 114.464844 C 159.421875 114.109375 159.308594 113.617188 159.222656 113.148438 C 159.027344 112.09375 158.898438 111.03125 158.839844 109.964844 C 159.683594 109.832031 160.527344 109.703125 161.371094 109.59375 C 161.898438 109.53125 162.429688 109.472656 162.960938 109.425781 C 164.304688 109.304688 165.65625 109.261719 167.019531 109.339844 C 170.660156 109.558594 174.089844 110.929688 177.566406 111.921875 C 181.039062 112.917969 184.542969 113.320312 188.148438 113.015625 C 189.265625 112.921875 190.378906 112.78125 191.480469 112.601562 C 191.9375 112.527344 192.394531 112.449219 192.851562 112.367188 L 192.855469 112.367188 C 198.308594 111.371094 203.652344 109.742188 209.210938 109.570312 C 212.765625 109.460938 216.285156 110.144531 219.804688 110.714844 L 219.808594 110.714844 C 220.273438 110.789062 220.738281 110.863281 221.199219 110.929688 C 221.609375 110.992188 222.015625 111.046875 222.421875 111.097656"/><g clip-path="url(#h)"><path fill="#F575C1" d="M 248.636719 83.207031 C 248.167969 89.199219 246.871094 95.257812 243.976562 100.578125 C 241.191406 105.703125 236.710938 110.027344 230.792969 111.101562 C 227.574219 111.6875 224.386719 111.40625 221.199219 110.929688 C 220.734375 110.863281 220.273438 110.789062 219.808594 110.714844 L 219.804688 110.714844 C 216.285156 110.144531 212.765625 109.460938 209.210938 109.570312 C 203.652344 109.742188 198.304688 111.371094 192.855469 112.367188 L 192.851562 112.367188 C 192.394531 112.449219 191.9375 112.527344 191.480469 112.601562 C 190.378906 112.78125 189.265625 112.921875 188.148438 113.015625 C 184.542969 113.320312 181.039062 112.917969 177.566406 111.921875 C 174.089844 110.929688 170.660156 109.558594 167.019531 109.339844 C 165.65625 109.261719 164.304688 109.304688 162.960938 109.425781 C 162.429688 109.472656 161.898438 109.53125 161.371094 109.59375 C 156.085938 110.261719 150.847656 111.726562 145.503906 110.636719 C 139.691406 109.453125 134.746094 105.574219 131.382812 100.804688 C 127.484375 95.277344 125.925781 88.496094 125.894531 81.808594 C 125.859375 74.632812 127.398438 67.421875 129.617188 60.621094 C 135.160156 43.566406 147.5 26.617188 164.023438 18.835938 C 178.339844 12.101562 194.613281 13.300781 208.601562 20.1875 C 214.898438 23.289062 220.765625 27.246094 226.179688 31.703125 C 231.449219 36.046875 236.101562 41.042969 239.71875 46.851562 C 243.070312 52.230469 245.550781 58.171875 247.058594 64.324219 C 248.566406 70.480469 249.136719 76.886719 248.636719 83.207031"/></g><path fill="#459178" d="M 184.835938 140.574219 C 184.429688 139.246094 183.496094 137.988281 182.058594 136.835938 C 181.367188 136.28125 180.617188 135.789062 179.894531 135.3125 C 179.394531 134.984375 178.878906 134.644531 178.398438 134.289062 C 175.332031 132.058594 172.710938 128.738281 170.605469 124.410156 C 170.488281 124.167969 170.195312 124.070312 169.953125 124.1875 C 169.710938 124.304688 169.613281 124.59375 169.730469 124.832031 C 171.90625 129.304688 174.632812 132.75 177.824219 135.074219 C 178.328125 135.441406 178.851562 135.789062 179.363281 136.121094 C 180.066406 136.585938 180.792969 137.0625 181.449219 137.589844 C 182.734375 138.621094 183.558594 139.71875 183.910156 140.855469 C 184.324219 142.210938 183.996094 143.648438 183.09375 144.441406 C 182.695312 144.792969 182.140625 145.054688 181.464844 145.214844 C 180.058594 145.554688 178.425781 145.402344 176.738281 144.785156 C 173.671875 143.660156 170.847656 141.15625 168.785156 137.734375 C 166.816406 134.46875 165.683594 130.738281 164.777344 127.5 C 164.703125 127.238281 164.433594 127.089844 164.175781 127.160156 C 163.917969 127.230469 163.769531 127.5 163.839844 127.757812 C 164.765625 131.0625 165.921875 134.867188 167.953125 138.234375 C 170.128906 141.84375 173.132812 144.496094 176.40625 145.695312 C 177.613281 146.136719 178.800781 146.363281 179.921875 146.363281 C 180.535156 146.363281 181.125 146.292969 181.691406 146.160156 C 182.523438 145.960938 183.214844 145.628906 183.734375 145.167969 C 184.917969 144.128906 185.359375 142.285156 184.835938 140.574219"/><path fill="#459178" d="M 218.597656 125.757812 C 218.335938 125.71875 218.089844 125.898438 218.050781 126.164062 C 217.515625 129.816406 216.542969 132.753906 215.082031 135.144531 C 213.308594 138.042969 210.789062 140.097656 207.980469 140.933594 C 206.847656 141.269531 205.839844 141.339844 204.984375 141.136719 C 203.988281 140.90625 203.164062 140.269531 202.828125 139.472656 C 202.242188 138.070312 203.148438 136.410156 204.101562 135.421875 C 205.011719 134.472656 206.15625 133.707031 207.257812 132.972656 C 208.546875 132.113281 209.871094 131.226562 210.914062 130.015625 C 213.300781 127.234375 213.710938 123.292969 213.796875 119.800781 C 213.804688 119.535156 213.59375 119.3125 213.328125 119.304688 C 213.046875 119.296875 212.835938 119.511719 212.828125 119.777344 C 212.738281 123.265625 212.363281 126.839844 210.179688 129.382812 C 209.222656 130.496094 208.007812 131.304688 206.71875 132.164062 C 205.574219 132.933594 204.386719 133.726562 203.402344 134.75 C 202.191406 136.011719 201.167969 138.011719 201.933594 139.84375 C 202.394531 140.941406 203.449219 141.777344 204.765625 142.082031 C 205.152344 142.175781 205.5625 142.21875 205.996094 142.21875 C 206.699219 142.21875 207.457031 142.101562 208.257812 141.863281 C 211.292969 140.960938 214.011719 138.753906 215.910156 135.652344 C 217.441406 133.148438 218.457031 130.089844 219.011719 126.304688 C 219.046875 126.039062 218.867188 125.792969 218.597656 125.757812"/><path fill="#BC3D8D" d="M 228.90625 98.273438 C 227.613281 102.871094 225.335938 106.898438 222.324219 109.921875 C 222.007812 110.238281 221.628906 110.59375 221.199219 110.929688 C 220.738281 110.863281 220.273438 110.789062 219.808594 110.714844 C 220.535156 110.289062 221.160156 109.714844 221.636719 109.238281 C 224.535156 106.332031 226.726562 102.449219 227.972656 98.011719 C 229.054688 94.164062 229.457031 89.789062 229.175781 85.015625 C 229.164062 84.75 229.371094 84.519531 229.632812 84.503906 C 229.898438 84.488281 230.132812 84.691406 230.148438 84.960938 C 230.4375 89.84375 230.019531 94.320312 228.90625 98.273438"/><path fill="#BC3D8D" d="M 162.960938 109.425781 C 162.429688 109.472656 161.898438 109.53125 161.371094 109.59375 C 160.769531 109.164062 160.179688 108.617188 159.601562 107.953125 C 156.699219 104.621094 155.347656 100.339844 154.414062 96.589844 C 153.582031 93.269531 152.851562 89.371094 153.75 85.675781 C 153.808594 85.417969 154.070312 85.257812 154.332031 85.320312 C 154.59375 85.382812 154.753906 85.644531 154.691406 85.902344 C 153.84375 89.394531 154.550781 93.144531 155.351562 96.355469 C 156.265625 99.992188 157.566406 104.136719 160.332031 107.316406 C 161.195312 108.304688 162.074219 109.011719 162.960938 109.425781"/><path fill="#BC3D8D" d="M 192.851562 112.367188 C 192.394531 112.449219 191.9375 112.527344 191.480469 112.601562 C 190.449219 111.792969 189.632812 110.761719 188.984375 109.84375 C 184.664062 103.761719 182.699219 96.023438 183.597656 88.617188 C 183.628906 88.351562 183.871094 88.164062 184.136719 88.199219 C 184.402344 88.230469 184.59375 88.472656 184.558594 88.738281 C 183.691406 95.90625 185.589844 103.394531 189.777344 109.285156 C 190.539062 110.363281 191.546875 111.605469 192.851562 112.367188"/><path fill="#2C6A55" d="M 180.914062 120.378906 C 180.835938 119.882812 180.40625 119.347656 179.859375 119.488281 C 179.671875 119.539062 179.523438 119.65625 179.417969 119.804688 C 179.328125 119.914062 179.261719 120.042969 179.226562 120.183594 C 179.167969 120.421875 179.152344 120.667969 179.191406 120.910156 C 179.261719 121.40625 179.78125 121.824219 180.292969 121.667969 C 180.59375 121.574219 180.773438 121.324219 180.875 121.039062 C 180.949219 120.824219 180.949219 120.597656 180.914062 120.378906"/><path fill="#2C6A55" d="M 203.3125 120.378906 C 203.234375 119.882812 202.804688 119.347656 202.253906 119.488281 C 202.066406 119.539062 201.921875 119.65625 201.816406 119.804688 C 201.726562 119.914062 201.65625 120.042969 201.621094 120.183594 C 201.566406 120.421875 201.550781 120.667969 201.585938 120.910156 C 201.660156 121.40625 202.175781 121.824219 202.6875 121.667969 C 202.988281 121.574219 203.171875 121.324219 203.269531 121.039062 C 203.347656 120.824219 203.347656 120.597656 203.3125 120.378906"/><path fill="#2C6A55" d="M 193.847656 123.332031 C 193.628906 123.332031 193.507812 123.5 193.484375 123.695312 C 193.359375 124.660156 193.039062 126.203125 191.742188 126.054688 C 190.609375 125.925781 190.117188 124.730469 190.058594 123.730469 C 190.035156 123.269531 189.308594 123.261719 189.332031 123.730469 C 189.375 124.453125 189.554688 125.191406 189.992188 125.777344 C 190.414062 126.34375 191.03125 126.714844 191.742188 126.78125 C 192.460938 126.851562 193.101562 126.484375 193.523438 125.917969 C 194.003906 125.277344 194.113281 124.46875 194.210938 123.695312 C 194.234375 123.5 194.027344 123.332031 193.847656 123.332031"/><path fill="#B0E4D1" d="M 205.574219 123.304688 C 205.234375 122.800781 204.691406 122.484375 204.128906 122.269531 C 202.769531 121.75 199.429688 122.171875 199.667969 124.261719 C 199.804688 125.496094 201.425781 126.058594 202.476562 126.15625 C 203.585938 126.261719 204.992188 125.921875 205.609375 124.910156 C 205.910156 124.410156 205.902344 123.789062 205.574219 123.304688"/><path fill="#B0E4D1" d="M 182.960938 123.304688 C 182.617188 122.800781 182.074219 122.484375 181.515625 122.269531 C 180.15625 121.75 176.816406 122.171875 177.050781 124.261719 C 177.1875 125.496094 178.8125 126.058594 179.863281 126.15625 C 180.972656 126.261719 182.375 125.921875 182.996094 124.910156 C 183.296875 124.410156 183.289062 123.789062 182.960938 123.304688"/><path fill="#FFF" d="M 143.484375 58.609375 C 143.296875 68.132812 143.148438 68.28125 133.617188 68.46875 C 143.148438 68.652344 143.296875 68.804688 143.484375 78.324219 C 143.671875 68.804688 143.820312 68.652344 153.347656 68.46875 C 143.820312 68.28125 143.671875 68.132812 143.484375 58.609375"/><path fill="#FFF" d="M 166.851562 81.597656 C 166.738281 87.277344 166.652344 87.367188 160.96875 87.480469 C 166.652344 87.589844 166.738281 87.679688 166.851562 93.355469 C 166.960938 87.679688 167.054688 87.589844 172.734375 87.480469 C 167.054688 87.367188 166.960938 87.277344 166.851562 81.597656"/><path fill="#FFF" d="M 183.316406 17.050781 C 183.207031 22.726562 183.113281 22.816406 177.433594 22.925781 C 183.113281 23.039062 183.207031 23.128906 183.316406 28.804688 C 183.421875 23.128906 183.515625 23.039062 189.199219 22.925781 C 183.515625 22.816406 183.421875 22.726562 183.316406 17.050781"/><path fill="#FFF" d="M 188.980469 32.613281 C 188.867188 38.289062 188.777344 38.378906 183.09375 38.488281 C 188.777344 38.601562 188.867188 38.691406 188.980469 44.367188 C 189.089844 38.691406 189.179688 38.601562 194.863281 38.488281 C 189.179688 38.378906 189.089844 38.289062 188.980469 32.613281"/><path fill="#FFF" d="M 206.148438 68.804688 C 206.070312 72.890625 206.007812 72.953125 201.917969 73.03125 C 206.007812 73.113281 206.070312 73.175781 206.148438 77.261719 C 206.230469 73.175781 206.296875 73.113281 210.382812 73.03125 C 206.296875 72.953125 206.230469 72.890625 206.148438 68.804688"/><path fill="#FFF" d="M 238.015625 51.476562 C 237.933594 55.558594 237.871094 55.625 233.78125 55.703125 C 237.871094 55.78125 237.933594 55.847656 238.015625 59.929688 C 238.09375 55.847656 238.15625 55.78125 242.246094 55.703125 C 238.15625 55.625 238.09375 55.558594 238.015625 51.476562"/><path fill="#FFF" d="M 232.703125 94.097656 C 232.625 98.179688 232.5625 98.242188 228.46875 98.324219 C 232.5625 98.402344 232.625 98.464844 232.703125 102.554688 C 232.785156 98.464844 232.847656 98.402344 236.9375 98.324219 C 232.847656 98.242188 232.785156 98.179688 232.703125 94.097656"/><path fill="#FFF" d="M 165.609375 147.328125 C 165.535156 151.414062 165.464844 151.476562 161.378906 151.554688 C 165.464844 151.636719 165.535156 151.699219 165.609375 155.785156 C 165.691406 151.699219 165.753906 151.636719 169.84375 151.554688 C 165.753906 151.476562 165.691406 151.414062 165.609375 147.328125"/><g fill="#F0F"><g><g><path d="M 20.703125 -7.828125 C 20.367188 -7.097656 19.96875 -6.734375 19.5 -6.734375 C 19.03125 -6.734375 18.632812 -7.097656 18.3125 -7.828125 L 8.6875 -28.796875 L 8.6875 -1.796875 C 8.6875 -0.597656 8.09375 0 6.90625 0 L 4.515625 0 C 3.316406 0 2.71875 -0.597656 2.71875 -1.796875 L 2.71875 -39.5 C 2.71875 -40.695312 3.316406 -41.296875 4.515625 -41.296875 L 6.578125 -41.296875 C 7.554688 -41.296875 8.257812 -40.84375 8.6875 -39.9375 L 19.390625 -17.546875 L 30.046875 -39.9375 C 30.441406 -40.84375 31.144531 -41.296875 32.15625 -41.296875 L 34.234375 -41.296875 C 35.421875 -41.296875 36.015625 -40.695312 36.015625 -39.5 L 36.015625 -1.796875 C 36.015625 -0.597656 35.421875 0 34.234375 0 L 31.84375 0 C 30.644531 0 30.046875 -0.597656 30.046875 -1.796875 L 30.046875 -28.625 Z M 20.703125 -7.828125" transform="translate(123.62 302.122)"/></g></g></g><g fill="#F0F"><g><g><path d="M 12.21875 0.546875 C 9.90625 0.546875 7.941406 -0.0546875 6.328125 -1.265625 C 4.710938 -2.484375 3.476562 -4.160156 2.625 -6.296875 C 1.78125 -8.429688 1.359375 -10.878906 1.359375 -13.640625 C 1.359375 -16.359375 1.851562 -18.820312 2.84375 -21.03125 C 3.84375 -23.238281 5.226562 -24.992188 7 -26.296875 C 8.78125 -27.597656 10.863281 -28.25 13.25 -28.25 C 16.363281 -28.25 18.953125 -27.585938 21.015625 -26.265625 C 23.085938 -24.941406 24.628906 -23.226562 25.640625 -21.125 C 26.660156 -19.03125 27.171875 -16.804688 27.171875 -14.453125 C 27.171875 -14.304688 27.171875 -14.160156 27.171875 -14.015625 C 27.421875 -11.585938 27.707031 -9.382812 28.03125 -7.40625 C 28.351562 -5.4375 28.679688 -3.800781 29.015625 -2.5 C 29.046875 -2.394531 29.0625 -2.25 29.0625 -2.0625 C 29.0625 -0.976562 28.5 -0.34375 27.375 -0.15625 L 24.28125 0.21875 C 23.269531 0.320312 22.640625 -0.09375 22.390625 -1.03125 C 22.242188 -1.613281 22.113281 -2.210938 22 -2.828125 C 20.769531 -1.773438 19.335938 -0.945312 17.703125 -0.34375 C 16.078125 0.25 14.25 0.546875 12.21875 0.546875 Z M 12.21875 -2.71875 C 14 -2.71875 15.46875 -3.304688 16.625 -4.484375 C 17.78125 -5.660156 18.65625 -7.15625 19.25 -8.96875 C 19.851562 -10.78125 20.15625 -12.644531 20.15625 -14.5625 C 20.15625 -14.5625 20.15625 -14.566406 20.15625 -14.578125 C 20.15625 -14.597656 20.15625 -14.664062 20.15625 -14.78125 C 20.113281 -14.957031 20.09375 -15.15625 20.09375 -15.375 C 20.09375 -15.550781 20.09375 -15.710938 20.09375 -15.859375 C 19.988281 -17.453125 19.664062 -18.945312 19.125 -20.34375 C 18.582031 -21.738281 17.820312 -22.859375 16.84375 -23.703125 C 15.863281 -24.554688 14.664062 -24.984375 13.25 -24.984375 C 12.488281 -24.984375 11.726562 -24.429688 10.96875 -23.328125 C 10.207031 -22.222656 9.570312 -20.800781 9.0625 -19.0625 C 8.5625 -17.332031 8.3125 -15.523438 8.3125 -13.640625 C 8.3125 -11.753906 8.507812 -9.976562 8.90625 -8.3125 C 9.300781 -6.644531 9.804688 -5.296875 10.421875 -4.265625 C 11.046875 -3.234375 11.644531 -2.71875 12.21875 -2.71875 Z M 12.21875 -2.71875" transform="translate(162.351 302.122)"/></g></g></g><g fill="#F0F"><g><g><path d="M 9.9375 9.015625 C 9.9375 9.523438 9.753906 9.957031 9.390625 10.3125 C 9.035156 10.675781 8.601562 10.859375 8.09375 10.859375 L 5.65625 10.859375 C 5.144531 10.859375 4.707031 10.675781 4.34375 10.3125 C 3.976562 9.957031 3.796875 9.523438 3.796875 9.015625 L 3.796875 -25.859375 C 3.796875 -26.367188 3.976562 -26.800781 4.34375 -27.15625 C 4.707031 -27.519531 5.144531 -27.703125 5.65625 -27.703125 L 8.09375 -27.703125 C 9.03125 -27.703125 9.628906 -27.25 9.890625 -26.34375 C 11.660156 -27.613281 14.101562 -28.25 17.21875 -28.25 C 19.789062 -28.25 22.082031 -27.601562 24.09375 -26.3125 C 26.101562 -25.03125 27.6875 -23.320312 28.84375 -21.1875 C 30.007812 -19.050781 30.59375 -16.695312 30.59375 -14.125 C 30.59375 -11.550781 30.046875 -9.195312 28.953125 -7.0625 C 27.867188 -4.925781 26.359375 -3.210938 24.421875 -1.921875 C 22.484375 -0.640625 20.210938 0 17.609375 0 C 16.046875 0 14.617188 -0.222656 13.328125 -0.671875 C 12.046875 -1.128906 10.914062 -1.773438 9.9375 -2.609375 Z M 17.4375 -3.3125 C 19.175781 -3.3125 20.578125 -3.828125 21.640625 -4.859375 C 22.710938 -5.890625 23.492188 -7.238281 23.984375 -8.90625 C 24.472656 -10.570312 24.71875 -12.3125 24.71875 -14.125 C 24.71875 -15.9375 24.390625 -17.675781 23.734375 -19.34375 C 23.085938 -21.007812 22.191406 -22.363281 21.046875 -23.40625 C 19.910156 -24.457031 18.632812 -24.984375 17.21875 -24.984375 C 15.1875 -24.984375 13.472656 -24.023438 12.078125 -22.109375 C 10.691406 -20.191406 10 -17.441406 10 -13.859375 C 10 -11.859375 10.414062 -10.0625 11.25 -8.46875 C 12.082031 -6.875 13.078125 -5.613281 14.234375 -4.6875 C 15.390625 -3.769531 16.457031 -3.3125 17.4375 -3.3125 Z M 17.4375 -3.3125" transform="translate(193.26 302.122)"/></g></g></g><g fill="#F0F"><g><g><path d="M 12.21875 0.546875 C 9.90625 0.546875 7.941406 -0.0546875 6.328125 -1.265625 C 4.710938 -2.484375 3.476562 -4.160156 2.625 -6.296875 C 1.78125 -8.429688 1.359375 -10.878906 1.359375 -13.640625 C 1.359375 -16.359375 1.851562 -18.820312 2.84375 -21.03125 C 3.84375 -23.238281 5.226562 -24.992188 7 -26.296875 C 8.78125 -27.597656 10.863281 -28.25 13.25 -28.25 C 16.363281 -28.25 18.953125 -27.585938 21.015625 -26.265625 C 23.085938 -24.941406 24.628906 -23.226562 25.640625 -21.125 C 26.660156 -19.03125 27.171875 -16.804688 27.171875 -14.453125 C 27.171875 -14.304688 27.171875 -14.160156 27.171875 -14.015625 C 27.421875 -11.585938 27.707031 -9.382812 28.03125 -7.40625 C 28.351562 -5.4375 28.679688 -3.800781 29.015625 -2.5 C 29.046875 -2.394531 29.0625 -2.25 29.0625 -2.0625 C 29.0625 -0.976562 28.5 -0.34375 27.375 -0.15625 L 24.28125 0.21875 C 23.269531 0.320312 22.640625 -0.09375 22.390625 -1.03125 C 22.242188 -1.613281 22.113281 -2.210938 22 -2.828125 C 20.769531 -1.773438 19.335938 -0.945312 17.703125 -0.34375 C 16.078125 0.25 14.25 0.546875 12.21875 0.546875 Z M 12.21875 -2.71875 C 14 -2.71875 15.46875 -3.304688 16.625 -4.484375 C 17.78125 -5.660156 18.65625 -7.15625 19.25 -8.96875 C 19.851562 -10.78125 20.15625 -12.644531 20.15625 -14.5625 C 20.15625 -14.5625 20.15625 -14.566406 20.15625 -14.578125 C 20.15625 -14.597656 20.15625 -14.664062 20.15625 -14.78125 C 20.113281 -14.957031 20.09375 -15.15625 20.09375 -15.375 C 20.09375 -15.550781 20.09375 -15.710938 20.09375 -15.859375 C 19.988281 -17.453125 19.664062 -18.945312 19.125 -20.34375 C 18.582031 -21.738281 17.820312 -22.859375 16.84375 -23.703125 C 15.863281 -24.554688 14.664062 -24.984375 13.25 -24.984375 C 12.488281 -24.984375 11.726562 -24.429688 10.96875 -23.328125 C 10.207031 -22.222656 9.570312 -20.800781 9.0625 -19.0625 C 8.5625 -17.332031 8.3125 -15.523438 8.3125 -13.640625 C 8.3125 -11.753906 8.507812 -9.976562 8.90625 -8.3125 C 9.300781 -6.644531 9.804688 -5.296875 10.421875 -4.265625 C 11.046875 -3.234375 11.644531 -2.71875 12.21875 -2.71875 Z M 12.21875 -2.71875" transform="translate(225.47 302.122)"/></g></g></g><g fill="#0FF"><g><g><path d="M 20.703125 -7.828125 C 20.367188 -7.097656 19.96875 -6.734375 19.5 -6.734375 C 19.03125 -6.734375 18.632812 -7.097656 18.3125 -7.828125 L 8.6875 -28.796875 L 8.6875 -1.796875 C 8.6875 -0.597656 8.09375 0 6.90625 0 L 4.515625 0 C 3.316406 0 2.71875 -0.597656 2.71875 -1.796875 L 2.71875 -39.5 C 2.71875 -40.695312 3.316406 -41.296875 4.515625 -41.296875 L 6.578125 -41.296875 C 7.554688 -41.296875 8.257812 -40.84375 8.6875 -39.9375 L 19.390625 -17.546875 L 30.046875 -39.9375 C 30.441406 -40.84375 31.144531 -41.296875 32.15625 -41.296875 L 34.234375 -41.296875 C 35.421875 -41.296875 36.015625 -40.695312 36.015625 -39.5 L 36.015625 -1.796875 C 36.015625 -0.597656 35.421875 0 34.234375 0 L 31.84375 0 C 30.644531 0 30.046875 -0.597656 30.046875 -1.796875 L 30.046875 -28.625 Z M 20.703125 -7.828125" transform="translate(118.622 299.236)"/></g></g></g><g fill="#0FF"><g><g><path d="M 12.21875 0.546875 C 9.90625 0.546875 7.941406 -0.0546875 6.328125 -1.265625 C 4.710938 -2.484375 3.476562 -4.160156 2.625 -6.296875 C 1.78125 -8.429688 1.359375 -10.878906 1.359375 -13.640625 C 1.359375 -16.359375 1.851562 -18.820312 2.84375 -21.03125 C 3.84375 -23.238281 5.226562 -24.992188 7 -26.296875 C 8.78125 -27.597656 10.863281 -28.25 13.25 -28.25 C 16.363281 -28.25 18.953125 -27.585938 21.015625 -26.265625 C 23.085938 -24.941406 24.628906 -23.226562 25.640625 -21.125 C 26.660156 -19.03125 27.171875 -16.804688 27.171875 -14.453125 C 27.171875 -14.304688 27.171875 -14.160156 27.171875 -14.015625 C 27.421875 -11.585938 27.707031 -9.382812 28.03125 -7.40625 C 28.351562 -5.4375 28.679688 -3.800781 29.015625 -2.5 C 29.046875 -2.394531 29.0625 -2.25 29.0625 -2.0625 C 29.0625 -0.976562 28.5 -0.34375 27.375 -0.15625 L 24.28125 0.21875 C 23.269531 0.320312 22.640625 -0.09375 22.390625 -1.03125 C 22.242188 -1.613281 22.113281 -2.210938 22 -2.828125 C 20.769531 -1.773438 19.335938 -0.945312 17.703125 -0.34375 C 16.078125 0.25 14.25 0.546875 12.21875 0.546875 Z M 12.21875 -2.71875 C 14 -2.71875 15.46875 -3.304688 16.625 -4.484375 C 17.78125 -5.660156 18.65625 -7.15625 19.25 -8.96875 C 19.851562 -10.78125 20.15625 -12.644531 20.15625 -14.5625 C 20.15625 -14.5625 20.15625 -14.566406 20.15625 -14.578125 C 20.15625 -14.597656 20.15625 -14.664062 20.15625 -14.78125 C 20.113281 -14.957031 20.09375 -15.15625 20.09375 -15.375 C 20.09375 -15.550781 20.09375 -15.710938 20.09375 -15.859375 C 19.988281 -17.453125 19.664062 -18.945312 19.125 -20.34375 C 18.582031 -21.738281 17.820312 -22.859375 16.84375 -23.703125 C 15.863281 -24.554688 14.664062 -24.984375 13.25 -24.984375 C 12.488281 -24.984375 11.726562 -24.429688 10.96875 -23.328125 C 10.207031 -22.222656 9.570312 -20.800781 9.0625 -19.0625 C 8.5625 -17.332031 8.3125 -15.523438 8.3125 -13.640625 C 8.3125 -11.753906 8.507812 -9.976562 8.90625 -8.3125 C 9.300781 -6.644531 9.804688 -5.296875 10.421875 -4.265625 C 11.046875 -3.234375 11.644531 -2.71875 12.21875 -2.71875 Z M 12.21875 -2.71875" transform="translate(157.352 299.236)"/></g></g></g><g fill="#0FF"><g><g><path d="M 9.9375 9.015625 C 9.9375 9.523438 9.753906 9.957031 9.390625 10.3125 C 9.035156 10.675781 8.601562 10.859375 8.09375 10.859375 L 5.65625 10.859375 C 5.144531 10.859375 4.707031 10.675781 4.34375 10.3125 C 3.976562 9.957031 3.796875 9.523438 3.796875 9.015625 L 3.796875 -25.859375 C 3.796875 -26.367188 3.976562 -26.800781 4.34375 -27.15625 C 4.707031 -27.519531 5.144531 -27.703125 5.65625 -27.703125 L 8.09375 -27.703125 C 9.03125 -27.703125 9.628906 -27.25 9.890625 -26.34375 C 11.660156 -27.613281 14.101562 -28.25 17.21875 -28.25 C 19.789062 -28.25 22.082031 -27.601562 24.09375 -26.3125 C 26.101562 -25.03125 27.6875 -23.320312 28.84375 -21.1875 C 30.007812 -19.050781 30.59375 -16.695312 30.59375 -14.125 C 30.59375 -11.550781 30.046875 -9.195312 28.953125 -7.0625 C 27.867188 -4.925781 26.359375 -3.210938 24.421875 -1.921875 C 22.484375 -0.640625 20.210938 0 17.609375 0 C 16.046875 0 14.617188 -0.222656 13.328125 -0.671875 C 12.046875 -1.128906 10.914062 -1.773438 9.9375 -2.609375 Z M 17.4375 -3.3125 C 19.175781 -3.3125 20.578125 -3.828125 21.640625 -4.859375 C 22.710938 -5.890625 23.492188 -7.238281 23.984375 -8.90625 C 24.472656 -10.570312 24.71875 -12.3125 24.71875 -14.125 C 24.71875 -15.9375 24.390625 -17.675781 23.734375 -19.34375 C 23.085938 -21.007812 22.191406 -22.363281 21.046875 -23.40625 C 19.910156 -24.457031 18.632812 -24.984375 17.21875 -24.984375 C 15.1875 -24.984375 13.472656 -24.023438 12.078125 -22.109375 C 10.691406 -20.191406 10 -17.441406 10 -13.859375 C 10 -11.859375 10.414062 -10.0625 11.25 -8.46875 C 12.082031 -6.875 13.078125 -5.613281 14.234375 -4.6875 C 15.390625 -3.769531 16.457031 -3.3125 17.4375 -3.3125 Z M 17.4375 -3.3125" transform="translate(188.26 299.236)"/></g></g></g><g fill="#0FF"><g><g><path d="M 12.21875 0.546875 C 9.90625 0.546875 7.941406 -0.0546875 6.328125 -1.265625 C 4.710938 -2.484375 3.476562 -4.160156 2.625 -6.296875 C 1.78125 -8.429688 1.359375 -10.878906 1.359375 -13.640625 C 1.359375 -16.359375 1.851562 -18.820312 2.84375 -21.03125 C 3.84375 -23.238281 5.226562 -24.992188 7 -26.296875 C 8.78125 -27.597656 10.863281 -28.25 13.25 -28.25 C 16.363281 -28.25 18.953125 -27.585938 21.015625 -26.265625 C 23.085938 -24.941406 24.628906 -23.226562 25.640625 -21.125 C 26.660156 -19.03125 27.171875 -16.804688 27.171875 -14.453125 C 27.171875 -14.304688 27.171875 -14.160156 27.171875 -14.015625 C 27.421875 -11.585938 27.707031 -9.382812 28.03125 -7.40625 C 28.351562 -5.4375 28.679688 -3.800781 29.015625 -2.5 C 29.046875 -2.394531 29.0625 -2.25 29.0625 -2.0625 C 29.0625 -0.976562 28.5 -0.34375 27.375 -0.15625 L 24.28125 0.21875 C 23.269531 0.320312 22.640625 -0.09375 22.390625 -1.03125 C 22.242188 -1.613281 22.113281 -2.210938 22 -2.828125 C 20.769531 -1.773438 19.335938 -0.945312 17.703125 -0.34375 C 16.078125 0.25 14.25 0.546875 12.21875 0.546875 Z M 12.21875 -2.71875 C 14 -2.71875 15.46875 -3.304688 16.625 -4.484375 C 17.78125 -5.660156 18.65625 -7.15625 19.25 -8.96875 C 19.851562 -10.78125 20.15625 -12.644531 20.15625 -14.5625 C 20.15625 -14.5625 20.15625 -14.566406 20.15625 -14.578125 C 20.15625 -14.597656 20.15625 -14.664062 20.15625 -14.78125 C 20.113281 -14.957031 20.09375 -15.15625 20.09375 -15.375 C 20.09375 -15.550781 20.09375 -15.710938 20.09375 -15.859375 C 19.988281 -17.453125 19.664062 -18.945312 19.125 -20.34375 C 18.582031 -21.738281 17.820312 -22.859375 16.84375 -23.703125 C 15.863281 -24.554688 14.664062 -24.984375 13.25 -24.984375 C 12.488281 -24.984375 11.726562 -24.429688 10.96875 -23.328125 C 10.207031 -22.222656 9.570312 -20.800781 9.0625 -19.0625 C 8.5625 -17.332031 8.3125 -15.523438 8.3125 -13.640625 C 8.3125 -11.753906 8.507812 -9.976562 8.90625 -8.3125 C 9.300781 -6.644531 9.804688 -5.296875 10.421875 -4.265625 C 11.046875 -3.234375 11.644531 -2.71875 12.21875 -2.71875 Z M 12.21875 -2.71875" transform="translate(220.472 299.236)"/></g></g></g><g fill="#FFF"><g><g><path d="M 20.703125 -7.828125 C 20.367188 -7.097656 19.96875 -6.734375 19.5 -6.734375 C 19.03125 -6.734375 18.632812 -7.097656 18.3125 -7.828125 L 8.6875 -28.796875 L 8.6875 -1.796875 C 8.6875 -0.597656 8.09375 0 6.90625 0 L 4.515625 0 C 3.316406 0 2.71875 -0.597656 2.71875 -1.796875 L 2.71875 -39.5 C 2.71875 -40.695312 3.316406 -41.296875 4.515625 -41.296875 L 6.578125 -41.296875 C 7.554688 -41.296875 8.257812 -40.84375 8.6875 -39.9375 L 19.390625 -17.546875 L 30.046875 -39.9375 C 30.441406 -40.84375 31.144531 -41.296875 32.15625 -41.296875 L 34.234375 -41.296875 C 35.421875 -41.296875 36.015625 -40.695312 36.015625 -39.5 L 36.015625 -1.796875 C 36.015625 -0.597656 35.421875 0 34.234375 0 L 31.84375 0 C 30.644531 0 30.046875 -0.597656 30.046875 -1.796875 L 30.046875 -28.625 Z M 20.703125 -7.828125" transform="translate(121.122 300.679)"/></g></g></g><g fill="#FFF"><g><g><path d="M 12.21875 0.546875 C 9.90625 0.546875 7.941406 -0.0546875 6.328125 -1.265625 C 4.710938 -2.484375 3.476562 -4.160156 2.625 -6.296875 C 1.78125 -8.429688 1.359375 -10.878906 1.359375 -13.640625 C 1.359375 -16.359375 1.851562 -18.820312 2.84375 -21.03125 C 3.84375 -23.238281 5.226562 -24.992188 7 -26.296875 C 8.78125 -27.597656 10.863281 -28.25 13.25 -28.25 C 16.363281 -28.25 18.953125 -27.585938 21.015625 -26.265625 C 23.085938 -24.941406 24.628906 -23.226562 25.640625 -21.125 C 26.660156 -19.03125 27.171875 -16.804688 27.171875 -14.453125 C 27.171875 -14.304688 27.171875 -14.160156 27.171875 -14.015625 C 27.421875 -11.585938 27.707031 -9.382812 28.03125 -7.40625 C 28.351562 -5.4375 28.679688 -3.800781 29.015625 -2.5 C 29.046875 -2.394531 29.0625 -2.25 29.0625 -2.0625 C 29.0625 -0.976562 28.5 -0.34375 27.375 -0.15625 L 24.28125 0.21875 C 23.269531 0.320312 22.640625 -0.09375 22.390625 -1.03125 C 22.242188 -1.613281 22.113281 -2.210938 22 -2.828125 C 20.769531 -1.773438 19.335938 -0.945312 17.703125 -0.34375 C 16.078125 0.25 14.25 0.546875 12.21875 0.546875 Z M 12.21875 -2.71875 C 14 -2.71875 15.46875 -3.304688 16.625 -4.484375 C 17.78125 -5.660156 18.65625 -7.15625 19.25 -8.96875 C 19.851562 -10.78125 20.15625 -12.644531 20.15625 -14.5625 C 20.15625 -14.5625 20.15625 -14.566406 20.15625 -14.578125 C 20.15625 -14.597656 20.15625 -14.664062 20.15625 -14.78125 C 20.113281 -14.957031 20.09375 -15.15625 20.09375 -15.375 C 20.09375 -15.550781 20.09375 -15.710938 20.09375 -15.859375 C 19.988281 -17.453125 19.664062 -18.945312 19.125 -20.34375 C 18.582031 -21.738281 17.820312 -22.859375 16.84375 -23.703125 C 15.863281 -24.554688 14.664062 -24.984375 13.25 -24.984375 C 12.488281 -24.984375 11.726562 -24.429688 10.96875 -23.328125 C 10.207031 -22.222656 9.570312 -20.800781 9.0625 -19.0625 C 8.5625 -17.332031 8.3125 -15.523438 8.3125 -13.640625 C 8.3125 -11.753906 8.507812 -9.976562 8.90625 -8.3125 C 9.300781 -6.644531 9.804688 -5.296875 10.421875 -4.265625 C 11.046875 -3.234375 11.644531 -2.71875 12.21875 -2.71875 Z M 12.21875 -2.71875" transform="translate(159.852 300.679)"/></g></g></g><g fill="#FFF"><g><g><path d="M 9.9375 9.015625 C 9.9375 9.523438 9.753906 9.957031 9.390625 10.3125 C 9.035156 10.675781 8.601562 10.859375 8.09375 10.859375 L 5.65625 10.859375 C 5.144531 10.859375 4.707031 10.675781 4.34375 10.3125 C 3.976562 9.957031 3.796875 9.523438 3.796875 9.015625 L 3.796875 -25.859375 C 3.796875 -26.367188 3.976562 -26.800781 4.34375 -27.15625 C 4.707031 -27.519531 5.144531 -27.703125 5.65625 -27.703125 L 8.09375 -27.703125 C 9.03125 -27.703125 9.628906 -27.25 9.890625 -26.34375 C 11.660156 -27.613281 14.101562 -28.25 17.21875 -28.25 C 19.789062 -28.25 22.082031 -27.601562 24.09375 -26.3125 C 26.101562 -25.03125 27.6875 -23.320312 28.84375 -21.1875 C 30.007812 -19.050781 30.59375 -16.695312 30.59375 -14.125 C 30.59375 -11.550781 30.046875 -9.195312 28.953125 -7.0625 C 27.867188 -4.925781 26.359375 -3.210938 24.421875 -1.921875 C 22.484375 -0.640625 20.210938 0 17.609375 0 C 16.046875 0 14.617188 -0.222656 13.328125 -0.671875 C 12.046875 -1.128906 10.914062 -1.773438 9.9375 -2.609375 Z M 17.4375 -3.3125 C 19.175781 -3.3125 20.578125 -3.828125 21.640625 -4.859375 C 22.710938 -5.890625 23.492188 -7.238281 23.984375 -8.90625 C 24.472656 -10.570312 24.71875 -12.3125 24.71875 -14.125 C 24.71875 -15.9375 24.390625 -17.675781 23.734375 -19.34375 C 23.085938 -21.007812 22.191406 -22.363281 21.046875 -23.40625 C 19.910156 -24.457031 18.632812 -24.984375 17.21875 -24.984375 C 15.1875 -24.984375 13.472656 -24.023438 12.078125 -22.109375 C 10.691406 -20.191406 10 -17.441406 10 -13.859375 C 10 -11.859375 10.414062 -10.0625 11.25 -8.46875 C 12.082031 -6.875 13.078125 -5.613281 14.234375 -4.6875 C 15.390625 -3.769531 16.457031 -3.3125 17.4375 -3.3125 Z M 17.4375 -3.3125" transform="translate(190.76 300.679)"/></g></g></g><g fill="#FFF"><g><g><path d="M 12.21875 0.546875 C 9.90625 0.546875 7.941406 -0.0546875 6.328125 -1.265625 C 4.710938 -2.484375 3.476562 -4.160156 2.625 -6.296875 C 1.78125 -8.429688 1.359375 -10.878906 1.359375 -13.640625 C 1.359375 -16.359375 1.851562 -18.820312 2.84375 -21.03125 C 3.84375 -23.238281 5.226562 -24.992188 7 -26.296875 C 8.78125 -27.597656 10.863281 -28.25 13.25 -28.25 C 16.363281 -28.25 18.953125 -27.585938 21.015625 -26.265625 C 23.085938 -24.941406 24.628906 -23.226562 25.640625 -21.125 C 26.660156 -19.03125 27.171875 -16.804688 27.171875 -14.453125 C 27.171875 -14.304688 27.171875 -14.160156 27.171875 -14.015625 C 27.421875 -11.585938 27.707031 -9.382812 28.03125 -7.40625 C 28.351562 -5.4375 28.679688 -3.800781 29.015625 -2.5 C 29.046875 -2.394531 29.0625 -2.25 29.0625 -2.0625 C 29.0625 -0.976562 28.5 -0.34375 27.375 -0.15625 L 24.28125 0.21875 C 23.269531 0.320312 22.640625 -0.09375 22.390625 -1.03125 C 22.242188 -1.613281 22.113281 -2.210938 22 -2.828125 C 20.769531 -1.773438 19.335938 -0.945312 17.703125 -0.34375 C 16.078125 0.25 14.25 0.546875 12.21875 0.546875 Z M 12.21875 -2.71875 C 14 -2.71875 15.46875 -3.304688 16.625 -4.484375 C 17.78125 -5.660156 18.65625 -7.15625 19.25 -8.96875 C 19.851562 -10.78125 20.15625 -12.644531 20.15625 -14.5625 C 20.15625 -14.5625 20.15625 -14.566406 20.15625 -14.578125 C 20.15625 -14.597656 20.15625 -14.664062 20.15625 -14.78125 C 20.113281 -14.957031 20.09375 -15.15625 20.09375 -15.375 C 20.09375 -15.550781 20.09375 -15.710938 20.09375 -15.859375 C 19.988281 -17.453125 19.664062 -18.945312 19.125 -20.34375 C 18.582031 -21.738281 17.820312 -22.859375 16.84375 -23.703125 C 15.863281 -24.554688 14.664062 -24.984375 13.25 -24.984375 C 12.488281 -24.984375 11.726562 -24.429688 10.96875 -23.328125 C 10.207031 -22.222656 9.570312 -20.800781 9.0625 -19.0625 C 8.5625 -17.332031 8.3125 -15.523438 8.3125 -13.640625 C 8.3125 -11.753906 8.507812 -9.976562 8.90625 -8.3125 C 9.300781 -6.644531 9.804688 -5.296875 10.421875 -4.265625 C 11.046875 -3.234375 11.644531 -2.71875 12.21875 -2.71875 Z M 12.21875 -2.71875" transform="translate(222.971 300.679)"/></g></g></g><g fill="#F0F"><g><g><path d="M 20.703125 -7.828125 C 20.367188 -7.097656 19.96875 -6.734375 19.5 -6.734375 C 19.03125 -6.734375 18.632812 -7.097656 18.3125 -7.828125 L 8.6875 -28.796875 L 8.6875 -1.796875 C 8.6875 -0.597656 8.09375 0 6.90625 0 L 4.515625 0 C 3.316406 0 2.71875 -0.597656 2.71875 -1.796875 L 2.71875 -39.5 C 2.71875 -40.695312 3.316406 -41.296875 4.515625 -41.296875 L 6.578125 -41.296875 C 7.554688 -41.296875 8.257812 -40.84375 8.6875 -39.9375 L 19.390625 -17.546875 L 30.046875 -39.9375 C 30.441406 -40.84375 31.144531 -41.296875 32.15625 -41.296875 L 34.234375 -41.296875 C 35.421875 -41.296875 36.015625 -40.695312 36.015625 -39.5 L 36.015625 -1.796875 C 36.015625 -0.597656 35.421875 0 34.234375 0 L 31.84375 0 C 30.644531 0 30.046875 -0.597656 30.046875 -1.796875 L 30.046875 -28.625 Z M 20.703125 -7.828125" transform="translate(100.855 359.855)"/></g></g></g><g fill="#F0F"><g><g><path d="M 12.21875 0.546875 C 9.90625 0.546875 7.941406 -0.0546875 6.328125 -1.265625 C 4.710938 -2.484375 3.476562 -4.160156 2.625 -6.296875 C 1.78125 -8.429688 1.359375 -10.878906 1.359375 -13.640625 C 1.359375 -16.359375 1.851562 -18.820312 2.84375 -21.03125 C 3.84375 -23.238281 5.226562 -24.992188 7 -26.296875 C 8.78125 -27.597656 10.863281 -28.25 13.25 -28.25 C 16.363281 -28.25 18.953125 -27.585938 21.015625 -26.265625 C 23.085938 -24.941406 24.628906 -23.226562 25.640625 -21.125 C 26.660156 -19.03125 27.171875 -16.804688 27.171875 -14.453125 C 27.171875 -14.304688 27.171875 -14.160156 27.171875 -14.015625 C 27.421875 -11.585938 27.707031 -9.382812 28.03125 -7.40625 C 28.351562 -5.4375 28.679688 -3.800781 29.015625 -2.5 C 29.046875 -2.394531 29.0625 -2.25 29.0625 -2.0625 C 29.0625 -0.976562 28.5 -0.34375 27.375 -0.15625 L 24.28125 0.21875 C 23.269531 0.320312 22.640625 -0.09375 22.390625 -1.03125 C 22.242188 -1.613281 22.113281 -2.210938 22 -2.828125 C 20.769531 -1.773438 19.335938 -0.945312 17.703125 -0.34375 C 16.078125 0.25 14.25 0.546875 12.21875 0.546875 Z M 12.21875 -2.71875 C 14 -2.71875 15.46875 -3.304688 16.625 -4.484375 C 17.78125 -5.660156 18.65625 -7.15625 19.25 -8.96875 C 19.851562 -10.78125 20.15625 -12.644531 20.15625 -14.5625 C 20.15625 -14.5625 20.15625 -14.566406 20.15625 -14.578125 C 20.15625 -14.597656 20.15625 -14.664062 20.15625 -14.78125 C 20.113281 -14.957031 20.09375 -15.15625 20.09375 -15.375 C 20.09375 -15.550781 20.09375 -15.710938 20.09375 -15.859375 C 19.988281 -17.453125 19.664062 -18.945312 19.125 -20.34375 C 18.582031 -21.738281 17.820312 -22.859375 16.84375 -23.703125 C 15.863281 -24.554688 14.664062 -24.984375 13.25 -24.984375 C 12.488281 -24.984375 11.726562 -24.429688 10.96875 -23.328125 C 10.207031 -22.222656 9.570312 -20.800781 9.0625 -19.0625 C 8.5625 -17.332031 8.3125 -15.523438 8.3125 -13.640625 C 8.3125 -11.753906 8.507812 -9.976562 8.90625 -8.3125 C 9.300781 -6.644531 9.804688 -5.296875 10.421875 -4.265625 C 11.046875 -3.234375 11.644531 -2.71875 12.21875 -2.71875 Z M 21.78125 -40.484375 C 22.351562 -40.484375 22.640625 -40.210938 22.640625 -39.671875 C 22.640625 -39.378906 22.566406 -39.09375 22.421875 -38.8125 C 22.347656 -38.664062 22.117188 -38.3125 21.734375 -37.75 C 21.359375 -37.1875 20.925781 -36.539062 20.4375 -35.8125 C 19.957031 -35.09375 19.515625 -34.429688 19.109375 -33.828125 C 18.710938 -33.234375 18.460938 -32.847656 18.359375 -32.671875 C 18.140625 -32.304688 17.820312 -31.878906 17.40625 -31.390625 C 16.988281 -30.898438 16.613281 -30.65625 16.28125 -30.65625 L 12.96875 -30.65625 C 12.539062 -30.65625 12.328125 -30.910156 12.328125 -31.421875 C 12.328125 -31.816406 12.453125 -32.234375 12.703125 -32.671875 C 12.804688 -32.890625 13.019531 -33.273438 13.34375 -33.828125 C 13.675781 -34.390625 14.023438 -35.023438 14.390625 -35.734375 C 14.753906 -36.441406 15.085938 -37.082031 15.390625 -37.65625 C 15.703125 -38.238281 15.910156 -38.640625 16.015625 -38.859375 C 16.265625 -39.296875 16.535156 -39.675781 16.828125 -40 C 17.117188 -40.320312 17.519531 -40.484375 18.03125 -40.484375 Z M 21.78125 -40.484375" transform="translate(139.585 359.855)"/></g></g></g><g fill="#F0F"><g><g><path d="M 5.96875 6.734375 C 5.570312 6.335938 5.375 5.90625 5.375 5.4375 C 5.375 4.488281 5.921875 3.835938 7.015625 3.484375 L 8.75 2.9375 C 8.851562 2.894531 9 2.875 9.1875 2.875 C 9.800781 2.875 10.285156 3.144531 10.640625 3.6875 C 11.585938 5.070312 12.378906 5.976562 13.015625 6.40625 C 13.648438 6.84375 14.472656 7.0625 15.484375 7.0625 C 17.441406 7.0625 18.972656 6.632812 20.078125 5.78125 C 21.179688 4.9375 21.734375 3.625 21.734375 1.84375 L 21.734375 -1.953125 C 20.785156 -1.160156 19.722656 -0.546875 18.546875 -0.109375 C 17.367188 0.328125 16.054688 0.546875 14.609375 0.546875 C 12.035156 0.546875 9.769531 -0.09375 7.8125 -1.375 C 5.863281 -2.664062 4.34375 -4.425781 3.25 -6.65625 C 2.164062 -8.882812 1.625 -11.390625 1.625 -14.171875 C 1.625 -16.929688 2.113281 -19.359375 3.09375 -21.453125 C 4.070312 -23.554688 5.472656 -25.210938 7.296875 -26.421875 C 9.128906 -27.640625 11.332031 -28.25 13.90625 -28.25 C 15.539062 -28.25 17.007812 -28.050781 18.3125 -27.65625 C 19.613281 -27.257812 20.753906 -26.695312 21.734375 -25.96875 C 21.765625 -26.476562 21.941406 -26.894531 22.265625 -27.21875 C 22.597656 -27.539062 23.035156 -27.703125 23.578125 -27.703125 L 26.296875 -27.703125 C 26.804688 -27.703125 27.238281 -27.519531 27.59375 -27.15625 C 27.957031 -26.800781 28.140625 -26.367188 28.140625 -25.859375 L 28.140625 1.84375 C 28.140625 3.507812 27.585938 4.976562 26.484375 6.25 C 25.378906 7.519531 23.863281 8.515625 21.9375 9.234375 C 20.019531 9.960938 17.867188 10.328125 15.484375 10.328125 C 11.609375 10.328125 8.4375 9.128906 5.96875 6.734375 Z M 14.609375 -2.765625 C 15.734375 -2.765625 16.835938 -3.144531 17.921875 -3.90625 C 19.015625 -4.664062 19.910156 -5.867188 20.609375 -7.515625 C 21.316406 -9.171875 21.671875 -11.285156 21.671875 -13.859375 C 21.671875 -17.804688 21 -20.640625 19.65625 -22.359375 C 18.320312 -24.078125 16.40625 -24.9375 13.90625 -24.9375 C 13 -24.9375 12.09375 -24.546875 11.1875 -23.765625 C 10.28125 -22.984375 9.53125 -21.796875 8.9375 -20.203125 C 8.34375 -18.609375 8.046875 -16.597656 8.046875 -14.171875 C 8.046875 -12.003906 8.269531 -10.0625 8.71875 -8.34375 C 9.175781 -6.625 9.882812 -5.265625 10.84375 -4.265625 C 11.800781 -3.265625 13.054688 -2.765625 14.609375 -2.765625 Z M 14.609375 -2.765625" transform="translate(170.493 359.855)"/></g></g></g><g fill="#F0F"><g><g><path d="M 11.84375 -34.609375 C 11.84375 -34.097656 11.660156 -33.660156 11.296875 -33.296875 C 10.929688 -32.941406 10.5 -32.765625 10 -32.765625 L 6.734375 -32.765625 C 6.222656 -32.765625 5.785156 -32.941406 5.421875 -33.296875 C 5.066406 -33.660156 4.890625 -34.097656 4.890625 -34.609375 L 4.890625 -37.8125 C 4.890625 -38.320312 5.066406 -38.753906 5.421875 -39.109375 C 5.785156 -39.472656 6.222656 -39.65625 6.734375 -39.65625 L 10 -39.65625 C 10.5 -39.65625 10.929688 -39.472656 11.296875 -39.109375 C 11.660156 -38.753906 11.84375 -38.320312 11.84375 -37.8125 Z M 11.84375 -1.84375 C 11.84375 -1.34375 11.660156 -0.910156 11.296875 -0.546875 C 10.929688 -0.179688 10.5 0 10 0 L 6.734375 0 C 6.222656 0 5.785156 -0.179688 5.421875 -0.546875 C 5.066406 -0.910156 4.890625 -1.34375 4.890625 -1.84375 L 4.890625 -25.859375 C 4.890625 -26.367188 5.066406 -26.800781 5.421875 -27.15625 C 5.785156 -27.519531 6.222656 -27.703125 6.734375 -27.703125 L 10 -27.703125 C 10.5 -27.703125 10.929688 -27.519531 11.296875 -27.15625 C 11.660156 -26.800781 11.84375 -26.367188 11.84375 -25.859375 Z M 11.84375 -1.84375" transform="translate(202.433 359.855)"/></g></g></g><g fill="#F0F"><g><g><path d="M 27.984375 -20.265625 C 28.085938 -20.015625 28.140625 -19.78125 28.140625 -19.5625 C 28.140625 -19.09375 27.957031 -18.703125 27.59375 -18.390625 C 27.238281 -18.078125 26.804688 -17.882812 26.296875 -17.8125 L 23.359375 -17.546875 C 22.921875 -17.515625 22.53125 -17.625 22.1875 -17.875 C 21.84375 -18.125 21.617188 -18.46875 21.515625 -18.90625 C 20.972656 -20.71875 20.148438 -22.179688 19.046875 -23.296875 C 17.941406 -24.421875 16.609375 -24.984375 15.046875 -24.984375 C 13.847656 -24.984375 12.757812 -24.476562 11.78125 -23.46875 C 10.8125 -22.457031 10.035156 -21.097656 9.453125 -19.390625 C 8.867188 -17.691406 8.578125 -15.828125 8.578125 -13.796875 C 8.578125 -10.316406 9.191406 -7.597656 10.421875 -5.640625 C 11.660156 -3.691406 13.457031 -2.71875 15.8125 -2.71875 C 17.40625 -2.71875 18.691406 -3.3125 19.671875 -4.5 C 20.648438 -5.695312 21.375 -7.398438 21.84375 -9.609375 C 22.09375 -10.660156 22.722656 -11.148438 23.734375 -11.078125 L 26.84375 -10.8125 C 27.34375 -10.769531 27.765625 -10.585938 28.109375 -10.265625 C 28.453125 -9.941406 28.625 -9.546875 28.625 -9.078125 C 28.625 -8.929688 28.585938 -8.75 28.515625 -8.53125 C 27.722656 -5.8125 26.222656 -3.617188 24.015625 -1.953125 C 21.804688 -0.285156 19.070312 0.546875 15.8125 0.546875 C 11.320312 0.546875 7.832031 -0.742188 5.34375 -3.328125 C 2.863281 -5.921875 1.625 -9.410156 1.625 -13.796875 C 1.625 -16.546875 2.191406 -19.007812 3.328125 -21.1875 C 4.472656 -23.363281 6.050781 -25.082031 8.0625 -26.34375 C 10.070312 -27.613281 12.398438 -28.25 15.046875 -28.25 C 17.035156 -28.25 18.890625 -27.882812 20.609375 -27.15625 C 22.335938 -26.4375 23.84375 -25.476562 25.125 -24.28125 C 26.414062 -23.082031 27.367188 -21.742188 27.984375 -20.265625 Z M 27.984375 -20.265625" transform="translate(219.164 359.855)"/></g></g></g><g fill="#F0F"><g><g><path d="M 14.5625 -28.25 C 17.238281 -28.25 19.59375 -27.601562 21.625 -26.3125 C 23.65625 -25.03125 25.238281 -23.285156 26.375 -21.078125 C 27.519531 -18.867188 28.09375 -16.367188 28.09375 -13.578125 C 28.09375 -10.898438 27.554688 -8.492188 26.484375 -6.359375 C 25.410156 -4.222656 23.914062 -2.535156 22 -1.296875 C 20.082031 -0.0664062 17.835938 0.546875 15.265625 0.546875 C 12.546875 0.546875 10.160156 -0.078125 8.109375 -1.328125 C 6.066406 -2.578125 4.472656 -4.285156 3.328125 -6.453125 C 2.191406 -8.628906 1.625 -11.097656 1.625 -13.859375 C 1.625 -16.640625 2.15625 -19.117188 3.21875 -21.296875 C 4.289062 -23.472656 5.796875 -25.175781 7.734375 -26.40625 C 9.671875 -27.632812 11.945312 -28.25 14.5625 -28.25 Z M 14.5625 -24.984375 C 13.144531 -24.984375 11.929688 -24.503906 10.921875 -23.546875 C 9.910156 -22.585938 9.128906 -21.265625 8.578125 -19.578125 C 8.035156 -17.898438 7.765625 -15.992188 7.765625 -13.859375 C 7.765625 -10.015625 8.488281 -7.195312 9.9375 -5.40625 C 11.382812 -3.613281 13.160156 -2.71875 15.265625 -2.71875 C 16.898438 -2.71875 18.203125 -3.242188 19.171875 -4.296875 C 20.148438 -5.347656 20.859375 -6.703125 21.296875 -8.359375 C 21.734375 -10.023438 21.953125 -11.765625 21.953125 -13.578125 C 21.953125 -16.910156 21.296875 -19.644531 19.984375 -21.78125 C 18.679688 -23.914062 16.875 -24.984375 14.5625 -24.984375 Z M 14.5625 -24.984375" transform="translate(249.42 359.855)"/></g></g></g><g fill="#0FF"><g><g><path d="M 20.703125 -7.828125 C 20.367188 -7.097656 19.96875 -6.734375 19.5 -6.734375 C 19.03125 -6.734375 18.632812 -7.097656 18.3125 -7.828125 L 8.6875 -28.796875 L 8.6875 -1.796875 C 8.6875 -0.597656 8.09375 0 6.90625 0 L 4.515625 0 C 3.316406 0 2.71875 -0.597656 2.71875 -1.796875 L 2.71875 -39.5 C 2.71875 -40.695312 3.316406 -41.296875 4.515625 -41.296875 L 6.578125 -41.296875 C 7.554688 -41.296875 8.257812 -40.84375 8.6875 -39.9375 L 19.390625 -17.546875 L 30.046875 -39.9375 C 30.441406 -40.84375 31.144531 -41.296875 32.15625 -41.296875 L 34.234375 -41.296875 C 35.421875 -41.296875 36.015625 -40.695312 36.015625 -39.5 L 36.015625 -1.796875 C 36.015625 -0.597656 35.421875 0 34.234375 0 L 31.84375 0 C 30.644531 0 30.046875 -0.597656 30.046875 -1.796875 L 30.046875 -28.625 Z M 20.703125 -7.828125" transform="translate(95.856 356.969)"/></g></g></g><g fill="#0FF"><g><g><path d="M 12.21875 0.546875 C 9.90625 0.546875 7.941406 -0.0546875 6.328125 -1.265625 C 4.710938 -2.484375 3.476562 -4.160156 2.625 -6.296875 C 1.78125 -8.429688 1.359375 -10.878906 1.359375 -13.640625 C 1.359375 -16.359375 1.851562 -18.820312 2.84375 -21.03125 C 3.84375 -23.238281 5.226562 -24.992188 7 -26.296875 C 8.78125 -27.597656 10.863281 -28.25 13.25 -28.25 C 16.363281 -28.25 18.953125 -27.585938 21.015625 -26.265625 C 23.085938 -24.941406 24.628906 -23.226562 25.640625 -21.125 C 26.660156 -19.03125 27.171875 -16.804688 27.171875 -14.453125 C 27.171875 -14.304688 27.171875 -14.160156 27.171875 -14.015625 C 27.421875 -11.585938 27.707031 -9.382812 28.03125 -7.40625 C 28.351562 -5.4375 28.679688 -3.800781 29.015625 -2.5 C 29.046875 -2.394531 29.0625 -2.25 29.0625 -2.0625 C 29.0625 -0.976562 28.5 -0.34375 27.375 -0.15625 L 24.28125 0.21875 C 23.269531 0.320312 22.640625 -0.09375 22.390625 -1.03125 C 22.242188 -1.613281 22.113281 -2.210938 22 -2.828125 C 20.769531 -1.773438 19.335938 -0.945312 17.703125 -0.34375 C 16.078125 0.25 14.25 0.546875 12.21875 0.546875 Z M 12.21875 -2.71875 C 14 -2.71875 15.46875 -3.304688 16.625 -4.484375 C 17.78125 -5.660156 18.65625 -7.15625 19.25 -8.96875 C 19.851562 -10.78125 20.15625 -12.644531 20.15625 -14.5625 C 20.15625 -14.5625 20.15625 -14.566406 20.15625 -14.578125 C 20.15625 -14.597656 20.15625 -14.664062 20.15625 -14.78125 C 20.113281 -14.957031 20.09375 -15.15625 20.09375 -15.375 C 20.09375 -15.550781 20.09375 -15.710938 20.09375 -15.859375 C 19.988281 -17.453125 19.664062 -18.945312 19.125 -20.34375 C 18.582031 -21.738281 17.820312 -22.859375 16.84375 -23.703125 C 15.863281 -24.554688 14.664062 -24.984375 13.25 -24.984375 C 12.488281 -24.984375 11.726562 -24.429688 10.96875 -23.328125 C 10.207031 -22.222656 9.570312 -20.800781 9.0625 -19.0625 C 8.5625 -17.332031 8.3125 -15.523438 8.3125 -13.640625 C 8.3125 -11.753906 8.507812 -9.976562 8.90625 -8.3125 C 9.300781 -6.644531 9.804688 -5.296875 10.421875 -4.265625 C 11.046875 -3.234375 11.644531 -2.71875 12.21875 -2.71875 Z M 21.78125 -40.484375 C 22.351562 -40.484375 22.640625 -40.210938 22.640625 -39.671875 C 22.640625 -39.378906 22.566406 -39.09375 22.421875 -38.8125 C 22.347656 -38.664062 22.117188 -38.3125 21.734375 -37.75 C 21.359375 -37.1875 20.925781 -36.539062 20.4375 -35.8125 C 19.957031 -35.09375 19.515625 -34.429688 19.109375 -33.828125 C 18.710938 -33.234375 18.460938 -32.847656 18.359375 -32.671875 C 18.140625 -32.304688 17.820312 -31.878906 17.40625 -31.390625 C 16.988281 -30.898438 16.613281 -30.65625 16.28125 -30.65625 L 12.96875 -30.65625 C 12.539062 -30.65625 12.328125 -30.910156 12.328125 -31.421875 C 12.328125 -31.816406 12.453125 -32.234375 12.703125 -32.671875 C 12.804688 -32.890625 13.019531 -33.273438 13.34375 -33.828125 C 13.675781 -34.390625 14.023438 -35.023438 14.390625 -35.734375 C 14.753906 -36.441406 15.085938 -37.082031 15.390625 -37.65625 C 15.703125 -38.238281 15.910156 -38.640625 16.015625 -38.859375 C 16.265625 -39.296875 16.535156 -39.675781 16.828125 -40 C 17.117188 -40.320312 17.519531 -40.484375 18.03125 -40.484375 Z M 21.78125 -40.484375" transform="translate(134.586 356.969)"/></g></g></g><g fill="#0FF"><g><g><path d="M 5.96875 6.734375 C 5.570312 6.335938 5.375 5.90625 5.375 5.4375 C 5.375 4.488281 5.921875 3.835938 7.015625 3.484375 L 8.75 2.9375 C 8.851562 2.894531 9 2.875 9.1875 2.875 C 9.800781 2.875 10.285156 3.144531 10.640625 3.6875 C 11.585938 5.070312 12.378906 5.976562 13.015625 6.40625 C 13.648438 6.84375 14.472656 7.0625 15.484375 7.0625 C 17.441406 7.0625 18.972656 6.632812 20.078125 5.78125 C 21.179688 4.9375 21.734375 3.625 21.734375 1.84375 L 21.734375 -1.953125 C 20.785156 -1.160156 19.722656 -0.546875 18.546875 -0.109375 C 17.367188 0.328125 16.054688 0.546875 14.609375 0.546875 C 12.035156 0.546875 9.769531 -0.09375 7.8125 -1.375 C 5.863281 -2.664062 4.34375 -4.425781 3.25 -6.65625 C 2.164062 -8.882812 1.625 -11.390625 1.625 -14.171875 C 1.625 -16.929688 2.113281 -19.359375 3.09375 -21.453125 C 4.070312 -23.554688 5.472656 -25.210938 7.296875 -26.421875 C 9.128906 -27.640625 11.332031 -28.25 13.90625 -28.25 C 15.539062 -28.25 17.007812 -28.050781 18.3125 -27.65625 C 19.613281 -27.257812 20.753906 -26.695312 21.734375 -25.96875 C 21.765625 -26.476562 21.941406 -26.894531 22.265625 -27.21875 C 22.597656 -27.539062 23.035156 -27.703125 23.578125 -27.703125 L 26.296875 -27.703125 C 26.804688 -27.703125 27.238281 -27.519531 27.59375 -27.15625 C 27.957031 -26.800781 28.140625 -26.367188 28.140625 -25.859375 L 28.140625 1.84375 C 28.140625 3.507812 27.585938 4.976562 26.484375 6.25 C 25.378906 7.519531 23.863281 8.515625 21.9375 9.234375 C 20.019531 9.960938 17.867188 10.328125 15.484375 10.328125 C 11.609375 10.328125 8.4375 9.128906 5.96875 6.734375 Z M 14.609375 -2.765625 C 15.734375 -2.765625 16.835938 -3.144531 17.921875 -3.90625 C 19.015625 -4.664062 19.910156 -5.867188 20.609375 -7.515625 C 21.316406 -9.171875 21.671875 -11.285156 21.671875 -13.859375 C 21.671875 -17.804688 21 -20.640625 19.65625 -22.359375 C 18.320312 -24.078125 16.40625 -24.9375 13.90625 -24.9375 C 13 -24.9375 12.09375 -24.546875 11.1875 -23.765625 C 10.28125 -22.984375 9.53125 -21.796875 8.9375 -20.203125 C 8.34375 -18.609375 8.046875 -16.597656 8.046875 -14.171875 C 8.046875 -12.003906 8.269531 -10.0625 8.71875 -8.34375 C 9.175781 -6.625 9.882812 -5.265625 10.84375 -4.265625 C 11.800781 -3.265625 13.054688 -2.765625 14.609375 -2.765625 Z M 14.609375 -2.765625" transform="translate(165.494 356.969)"/></g></g></g><g fill="#0FF"><g><g><path d="M 11.84375 -34.609375 C 11.84375 -34.097656 11.660156 -33.660156 11.296875 -33.296875 C 10.929688 -32.941406 10.5 -32.765625 10 -32.765625 L 6.734375 -32.765625 C 6.222656 -32.765625 5.785156 -32.941406 5.421875 -33.296875 C 5.066406 -33.660156 4.890625 -34.097656 4.890625 -34.609375 L 4.890625 -37.8125 C 4.890625 -38.320312 5.066406 -38.753906 5.421875 -39.109375 C 5.785156 -39.472656 6.222656 -39.65625 6.734375 -39.65625 L 10 -39.65625 C 10.5 -39.65625 10.929688 -39.472656 11.296875 -39.109375 C 11.660156 -38.753906 11.84375 -38.320312 11.84375 -37.8125 Z M 11.84375 -1.84375 C 11.84375 -1.34375 11.660156 -0.910156 11.296875 -0.546875 C 10.929688 -0.179688 10.5 0 10 0 L 6.734375 0 C 6.222656 0 5.785156 -0.179688 5.421875 -0.546875 C 5.066406 -0.910156 4.890625 -1.34375 4.890625 -1.84375 L 4.890625 -25.859375 C 4.890625 -26.367188 5.066406 -26.800781 5.421875 -27.15625 C 5.785156 -27.519531 6.222656 -27.703125 6.734375 -27.703125 L 10 -27.703125 C 10.5 -27.703125 10.929688 -27.519531 11.296875 -27.15625 C 11.660156 -26.800781 11.84375 -26.367188 11.84375 -25.859375 Z M 11.84375 -1.84375" transform="translate(197.435 356.969)"/></g></g></g><g fill="#0FF"><g><g><path d="M 27.984375 -20.265625 C 28.085938 -20.015625 28.140625 -19.78125 28.140625 -19.5625 C 28.140625 -19.09375 27.957031 -18.703125 27.59375 -18.390625 C 27.238281 -18.078125 26.804688 -17.882812 26.296875 -17.8125 L 23.359375 -17.546875 C 22.921875 -17.515625 22.53125 -17.625 22.1875 -17.875 C 21.84375 -18.125 21.617188 -18.46875 21.515625 -18.90625 C 20.972656 -20.71875 20.148438 -22.179688 19.046875 -23.296875 C 17.941406 -24.421875 16.609375 -24.984375 15.046875 -24.984375 C 13.847656 -24.984375 12.757812 -24.476562 11.78125 -23.46875 C 10.8125 -22.457031 10.035156 -21.097656 9.453125 -19.390625 C 8.867188 -17.691406 8.578125 -15.828125 8.578125 -13.796875 C 8.578125 -10.316406 9.191406 -7.597656 10.421875 -5.640625 C 11.660156 -3.691406 13.457031 -2.71875 15.8125 -2.71875 C 17.40625 -2.71875 18.691406 -3.3125 19.671875 -4.5 C 20.648438 -5.695312 21.375 -7.398438 21.84375 -9.609375 C 22.09375 -10.660156 22.722656 -11.148438 23.734375 -11.078125 L 26.84375 -10.8125 C 27.34375 -10.769531 27.765625 -10.585938 28.109375 -10.265625 C 28.453125 -9.941406 28.625 -9.546875 28.625 -9.078125 C 28.625 -8.929688 28.585938 -8.75 28.515625 -8.53125 C 27.722656 -5.8125 26.222656 -3.617188 24.015625 -1.953125 C 21.804688 -0.285156 19.070312 0.546875 15.8125 0.546875 C 11.320312 0.546875 7.832031 -0.742188 5.34375 -3.328125 C 2.863281 -5.921875 1.625 -9.410156 1.625 -13.796875 C 1.625 -16.546875 2.191406 -19.007812 3.328125 -21.1875 C 4.472656 -23.363281 6.050781 -25.082031 8.0625 -26.34375 C 10.070312 -27.613281 12.398438 -28.25 15.046875 -28.25 C 17.035156 -28.25 18.890625 -27.882812 20.609375 -27.15625 C 22.335938 -26.4375 23.84375 -25.476562 25.125 -24.28125 C 26.414062 -23.082031 27.367188 -21.742188 27.984375 -20.265625 Z M 27.984375 -20.265625" transform="translate(214.165 356.969)"/></g></g></g><g fill="#0FF"><g><g><path d="M 14.5625 -28.25 C 17.238281 -28.25 19.59375 -27.601562 21.625 -26.3125 C 23.65625 -25.03125 25.238281 -23.285156 26.375 -21.078125 C 27.519531 -18.867188 28.09375 -16.367188 28.09375 -13.578125 C 28.09375 -10.898438 27.554688 -8.492188 26.484375 -6.359375 C 25.410156 -4.222656 23.914062 -2.535156 22 -1.296875 C 20.082031 -0.0664062 17.835938 0.546875 15.265625 0.546875 C 12.546875 0.546875 10.160156 -0.078125 8.109375 -1.328125 C 6.066406 -2.578125 4.472656 -4.285156 3.328125 -6.453125 C 2.191406 -8.628906 1.625 -11.097656 1.625 -13.859375 C 1.625 -16.640625 2.15625 -19.117188 3.21875 -21.296875 C 4.289062 -23.472656 5.796875 -25.175781 7.734375 -26.40625 C 9.671875 -27.632812 11.945312 -28.25 14.5625 -28.25 Z M 14.5625 -24.984375 C 13.144531 -24.984375 11.929688 -24.503906 10.921875 -23.546875 C 9.910156 -22.585938 9.128906 -21.265625 8.578125 -19.578125 C 8.035156 -17.898438 7.765625 -15.992188 7.765625 -13.859375 C 7.765625 -10.015625 8.488281 -7.195312 9.9375 -5.40625 C 11.382812 -3.613281 13.160156 -2.71875 15.265625 -2.71875 C 16.898438 -2.71875 18.203125 -3.242188 19.171875 -4.296875 C 20.148438 -5.347656 20.859375 -6.703125 21.296875 -8.359375 C 21.734375 -10.023438 21.953125 -11.765625 21.953125 -13.578125 C 21.953125 -16.910156 21.296875 -19.644531 19.984375 -21.78125 C 18.679688 -23.914062 16.875 -24.984375 14.5625 -24.984375 Z M 14.5625 -24.984375" transform="translate(244.421 356.969)"/></g></g></g><g fill="#FFF"><g><g><path d="M 20.703125 -7.828125 C 20.367188 -7.097656 19.96875 -6.734375 19.5 -6.734375 C 19.03125 -6.734375 18.632812 -7.097656 18.3125 -7.828125 L 8.6875 -28.796875 L 8.6875 -1.796875 C 8.6875 -0.597656 8.09375 0 6.90625 0 L 4.515625 0 C 3.316406 0 2.71875 -0.597656 2.71875 -1.796875 L 2.71875 -39.5 C 2.71875 -40.695312 3.316406 -41.296875 4.515625 -41.296875 L 6.578125 -41.296875 C 7.554688 -41.296875 8.257812 -40.84375 8.6875 -39.9375 L 19.390625 -17.546875 L 30.046875 -39.9375 C 30.441406 -40.84375 31.144531 -41.296875 32.15625 -41.296875 L 34.234375 -41.296875 C 35.421875 -41.296875 36.015625 -40.695312 36.015625 -39.5 L 36.015625 -1.796875 C 36.015625 -0.597656 35.421875 0 34.234375 0 L 31.84375 0 C 30.644531 0 30.046875 -0.597656 30.046875 -1.796875 L 30.046875 -28.625 Z M 20.703125 -7.828125" transform="translate(98.356 358.412)"/></g></g></g><g fill="#FFF"><g><g><path d="M 12.21875 0.546875 C 9.90625 0.546875 7.941406 -0.0546875 6.328125 -1.265625 C 4.710938 -2.484375 3.476562 -4.160156 2.625 -6.296875 C 1.78125 -8.429688 1.359375 -10.878906 1.359375 -13.640625 C 1.359375 -16.359375 1.851562 -18.820312 2.84375 -21.03125 C 3.84375 -23.238281 5.226562 -24.992188 7 -26.296875 C 8.78125 -27.597656 10.863281 -28.25 13.25 -28.25 C 16.363281 -28.25 18.953125 -27.585938 21.015625 -26.265625 C 23.085938 -24.941406 24.628906 -23.226562 25.640625 -21.125 C 26.660156 -19.03125 27.171875 -16.804688 27.171875 -14.453125 C 27.171875 -14.304688 27.171875 -14.160156 27.171875 -14.015625 C 27.421875 -11.585938 27.707031 -9.382812 28.03125 -7.40625 C 28.351562 -5.4375 28.679688 -3.800781 29.015625 -2.5 C 29.046875 -2.394531 29.0625 -2.25 29.0625 -2.0625 C 29.0625 -0.976562 28.5 -0.34375 27.375 -0.15625 L 24.28125 0.21875 C 23.269531 0.320312 22.640625 -0.09375 22.390625 -1.03125 C 22.242188 -1.613281 22.113281 -2.210938 22 -2.828125 C 20.769531 -1.773438 19.335938 -0.945312 17.703125 -0.34375 C 16.078125 0.25 14.25 0.546875 12.21875 0.546875 Z M 12.21875 -2.71875 C 14 -2.71875 15.46875 -3.304688 16.625 -4.484375 C 17.78125 -5.660156 18.65625 -7.15625 19.25 -8.96875 C 19.851562 -10.78125 20.15625 -12.644531 20.15625 -14.5625 C 20.15625 -14.5625 20.15625 -14.566406 20.15625 -14.578125 C 20.15625 -14.597656 20.15625 -14.664062 20.15625 -14.78125 C 20.113281 -14.957031 20.09375 -15.15625 20.09375 -15.375 C 20.09375 -15.550781 20.09375 -15.710938 20.09375 -15.859375 C 19.988281 -17.453125 19.664062 -18.945312 19.125 -20.34375 C 18.582031 -21.738281 17.820312 -22.859375 16.84375 -23.703125 C 15.863281 -24.554688 14.664062 -24.984375 13.25 -24.984375 C 12.488281 -24.984375 11.726562 -24.429688 10.96875 -23.328125 C 10.207031 -22.222656 9.570312 -20.800781 9.0625 -19.0625 C 8.5625 -17.332031 8.3125 -15.523438 8.3125 -13.640625 C 8.3125 -11.753906 8.507812 -9.976562 8.90625 -8.3125 C 9.300781 -6.644531 9.804688 -5.296875 10.421875 -4.265625 C 11.046875 -3.234375 11.644531 -2.71875 12.21875 -2.71875 Z M 21.78125 -40.484375 C 22.351562 -40.484375 22.640625 -40.210938 22.640625 -39.671875 C 22.640625 -39.378906 22.566406 -39.09375 22.421875 -38.8125 C 22.347656 -38.664062 22.117188 -38.3125 21.734375 -37.75 C 21.359375 -37.1875 20.925781 -36.539062 20.4375 -35.8125 C 19.957031 -35.09375 19.515625 -34.429688 19.109375 -33.828125 C 18.710938 -33.234375 18.460938 -32.847656 18.359375 -32.671875 C 18.140625 -32.304688 17.820312 -31.878906 17.40625 -31.390625 C 16.988281 -30.898438 16.613281 -30.65625 16.28125 -30.65625 L 12.96875 -30.65625 C 12.539062 -30.65625 12.328125 -30.910156 12.328125 -31.421875 C 12.328125 -31.816406 12.453125 -32.234375 12.703125 -32.671875 C 12.804688 -32.890625 13.019531 -33.273438 13.34375 -33.828125 C 13.675781 -34.390625 14.023438 -35.023438 14.390625 -35.734375 C 14.753906 -36.441406 15.085938 -37.082031 15.390625 -37.65625 C 15.703125 -38.238281 15.910156 -38.640625 16.015625 -38.859375 C 16.265625 -39.296875 16.535156 -39.675781 16.828125 -40 C 17.117188 -40.320312 17.519531 -40.484375 18.03125 -40.484375 Z M 21.78125 -40.484375" transform="translate(137.086 358.412)"/></g></g></g><g fill="#FFF"><g><g><path d="M 5.96875 6.734375 C 5.570312 6.335938 5.375 5.90625 5.375 5.4375 C 5.375 4.488281 5.921875 3.835938 7.015625 3.484375 L 8.75 2.9375 C 8.851562 2.894531 9 2.875 9.1875 2.875 C 9.800781 2.875 10.285156 3.144531 10.640625 3.6875 C 11.585938 5.070312 12.378906 5.976562 13.015625 6.40625 C 13.648438 6.84375 14.472656 7.0625 15.484375 7.0625 C 17.441406 7.0625 18.972656 6.632812 20.078125 5.78125 C 21.179688 4.9375 21.734375 3.625 21.734375 1.84375 L 21.734375 -1.953125 C 20.785156 -1.160156 19.722656 -0.546875 18.546875 -0.109375 C 17.367188 0.328125 16.054688 0.546875 14.609375 0.546875 C 12.035156 0.546875 9.769531 -0.09375 7.8125 -1.375 C 5.863281 -2.664062 4.34375 -4.425781 3.25 -6.65625 C 2.164062 -8.882812 1.625 -11.390625 1.625 -14.171875 C 1.625 -16.929688 2.113281 -19.359375 3.09375 -21.453125 C 4.070312 -23.554688 5.472656 -25.210938 7.296875 -26.421875 C 9.128906 -27.640625 11.332031 -28.25 13.90625 -28.25 C 15.539062 -28.25 17.007812 -28.050781 18.3125 -27.65625 C 19.613281 -27.257812 20.753906 -26.695312 21.734375 -25.96875 C 21.765625 -26.476562 21.941406 -26.894531 22.265625 -27.21875 C 22.597656 -27.539062 23.035156 -27.703125 23.578125 -27.703125 L 26.296875 -27.703125 C 26.804688 -27.703125 27.238281 -27.519531 27.59375 -27.15625 C 27.957031 -26.800781 28.140625 -26.367188 28.140625 -25.859375 L 28.140625 1.84375 C 28.140625 3.507812 27.585938 4.976562 26.484375 6.25 C 25.378906 7.519531 23.863281 8.515625 21.9375 9.234375 C 20.019531 9.960938 17.867188 10.328125 15.484375 10.328125 C 11.609375 10.328125 8.4375 9.128906 5.96875 6.734375 Z M 14.609375 -2.765625 C 15.734375 -2.765625 16.835938 -3.144531 17.921875 -3.90625 C 19.015625 -4.664062 19.910156 -5.867188 20.609375 -7.515625 C 21.316406 -9.171875 21.671875 -11.285156 21.671875 -13.859375 C 21.671875 -17.804688 21 -20.640625 19.65625 -22.359375 C 18.320312 -24.078125 16.40625 -24.9375 13.90625 -24.9375 C 13 -24.9375 12.09375 -24.546875 11.1875 -23.765625 C 10.28125 -22.984375 9.53125 -21.796875 8.9375 -20.203125 C 8.34375 -18.609375 8.046875 -16.597656 8.046875 -14.171875 C 8.046875 -12.003906 8.269531 -10.0625 8.71875 -8.34375 C 9.175781 -6.625 9.882812 -5.265625 10.84375 -4.265625 C 11.800781 -3.265625 13.054688 -2.765625 14.609375 -2.765625 Z M 14.609375 -2.765625" transform="translate(167.994 358.412)"/></g></g></g><g fill="#FFF"><g><g><path d="M 11.84375 -34.609375 C 11.84375 -34.097656 11.660156 -33.660156 11.296875 -33.296875 C 10.929688 -32.941406 10.5 -32.765625 10 -32.765625 L 6.734375 -32.765625 C 6.222656 -32.765625 5.785156 -32.941406 5.421875 -33.296875 C 5.066406 -33.660156 4.890625 -34.097656 4.890625 -34.609375 L 4.890625 -37.8125 C 4.890625 -38.320312 5.066406 -38.753906 5.421875 -39.109375 C 5.785156 -39.472656 6.222656 -39.65625 6.734375 -39.65625 L 10 -39.65625 C 10.5 -39.65625 10.929688 -39.472656 11.296875 -39.109375 C 11.660156 -38.753906 11.84375 -38.320312 11.84375 -37.8125 Z M 11.84375 -1.84375 C 11.84375 -1.34375 11.660156 -0.910156 11.296875 -0.546875 C 10.929688 -0.179688 10.5 0 10 0 L 6.734375 0 C 6.222656 0 5.785156 -0.179688 5.421875 -0.546875 C 5.066406 -0.910156 4.890625 -1.34375 4.890625 -1.84375 L 4.890625 -25.859375 C 4.890625 -26.367188 5.066406 -26.800781 5.421875 -27.15625 C 5.785156 -27.519531 6.222656 -27.703125 6.734375 -27.703125 L 10 -27.703125 C 10.5 -27.703125 10.929688 -27.519531 11.296875 -27.15625 C 11.660156 -26.800781 11.84375 -26.367188 11.84375 -25.859375 Z M 11.84375 -1.84375" transform="translate(199.934 358.412)"/></g></g></g><g fill="#FFF"><g><g><path d="M 27.984375 -20.265625 C 28.085938 -20.015625 28.140625 -19.78125 28.140625 -19.5625 C 28.140625 -19.09375 27.957031 -18.703125 27.59375 -18.390625 C 27.238281 -18.078125 26.804688 -17.882812 26.296875 -17.8125 L 23.359375 -17.546875 C 22.921875 -17.515625 22.53125 -17.625 22.1875 -17.875 C 21.84375 -18.125 21.617188 -18.46875 21.515625 -18.90625 C 20.972656 -20.71875 20.148438 -22.179688 19.046875 -23.296875 C 17.941406 -24.421875 16.609375 -24.984375 15.046875 -24.984375 C 13.847656 -24.984375 12.757812 -24.476562 11.78125 -23.46875 C 10.8125 -22.457031 10.035156 -21.097656 9.453125 -19.390625 C 8.867188 -17.691406 8.578125 -15.828125 8.578125 -13.796875 C 8.578125 -10.316406 9.191406 -7.597656 10.421875 -5.640625 C 11.660156 -3.691406 13.457031 -2.71875 15.8125 -2.71875 C 17.40625 -2.71875 18.691406 -3.3125 19.671875 -4.5 C 20.648438 -5.695312 21.375 -7.398438 21.84375 -9.609375 C 22.09375 -10.660156 22.722656 -11.148438 23.734375 -11.078125 L 26.84375 -10.8125 C 27.34375 -10.769531 27.765625 -10.585938 28.109375 -10.265625 C 28.453125 -9.941406 28.625 -9.546875 28.625 -9.078125 C 28.625 -8.929688 28.585938 -8.75 28.515625 -8.53125 C 27.722656 -5.8125 26.222656 -3.617188 24.015625 -1.953125 C 21.804688 -0.285156 19.070312 0.546875 15.8125 0.546875 C 11.320312 0.546875 7.832031 -0.742188 5.34375 -3.328125 C 2.863281 -5.921875 1.625 -9.410156 1.625 -13.796875 C 1.625 -16.546875 2.191406 -19.007812 3.328125 -21.1875 C 4.472656 -23.363281 6.050781 -25.082031 8.0625 -26.34375 C 10.070312 -27.613281 12.398438 -28.25 15.046875 -28.25 C 17.035156 -28.25 18.890625 -27.882812 20.609375 -27.15625 C 22.335938 -26.4375 23.84375 -25.476562 25.125 -24.28125 C 26.414062 -23.082031 27.367188 -21.742188 27.984375 -20.265625 Z M 27.984375 -20.265625" transform="translate(216.665 358.412)"/></g></g></g><g fill="#FFF"><g><g><path d="M 14.5625 -28.25 C 17.238281 -28.25 19.59375 -27.601562 21.625 -26.3125 C 23.65625 -25.03125 25.238281 -23.285156 26.375 -21.078125 C 27.519531 -18.867188 28.09375 -16.367188 28.09375 -13.578125 C 28.09375 -10.898438 27.554688 -8.492188 26.484375 -6.359375 C 25.410156 -4.222656 23.914062 -2.535156 22 -1.296875 C 20.082031 -0.0664062 17.835938 0.546875 15.265625 0.546875 C 12.546875 0.546875 10.160156 -0.078125 8.109375 -1.328125 C 6.066406 -2.578125 4.472656 -4.285156 3.328125 -6.453125 C 2.191406 -8.628906 1.625 -11.097656 1.625 -13.859375 C 1.625 -16.640625 2.15625 -19.117188 3.21875 -21.296875 C 4.289062 -23.472656 5.796875 -25.175781 7.734375 -26.40625 C 9.671875 -27.632812 11.945312 -28.25 14.5625 -28.25 Z M 14.5625 -24.984375 C 13.144531 -24.984375 11.929688 -24.503906 10.921875 -23.546875 C 9.910156 -22.585938 9.128906 -21.265625 8.578125 -19.578125 C 8.035156 -17.898438 7.765625 -15.992188 7.765625 -13.859375 C 7.765625 -10.015625 8.488281 -7.195312 9.9375 -5.40625 C 11.382812 -3.613281 13.160156 -2.71875 15.265625 -2.71875 C 16.898438 -2.71875 18.203125 -3.242188 19.171875 -4.296875 C 20.148438 -5.347656 20.859375 -6.703125 21.296875 -8.359375 C 21.734375 -10.023438 21.953125 -11.765625 21.953125 -13.578125 C 21.953125 -16.910156 21.296875 -19.644531 19.984375 -21.78125 C 18.679688 -23.914062 16.875 -24.984375 14.5625 -24.984375 Z M 14.5625 -24.984375" transform="translate(246.92 358.412)"/></g></g></g></svg>