<svg xmlns="http://www.w3.org/2000/svg" width="595.5" viewBox="0 0 595.5 842.25" height="842.25" version="1.0"><defs><clipPath id="a"><path d="M 59.539062 441 L 268.777344 441 L 268.777344 547.480469 L 59.539062 547.480469 Z M 59.539062 441"/></clipPath><clipPath id="b"><path d="M 123 437.984375 L 205 437.984375 L 205 472 L 123 472 Z M 123 437.984375"/></clipPath><clipPath id="c"><path d="M 70 512 L 133 512 L 133 547.480469 L 70 547.480469 Z M 70 512"/></clipPath><clipPath id="d"><path d="M 131.40625 460.695312 L 197.402344 460.695312 L 197.402344 492.945312 L 131.40625 492.945312 Z M 131.40625 460.695312"/></clipPath><clipPath id="e"><path d="M 148 468 L 164 468 L 164 482.148438 L 148 482.148438 Z M 148 468"/></clipPath><clipPath id="f"><path d="M 168 470 L 184 470 L 184 482.148438 L 168 482.148438 Z M 168 470"/></clipPath><clipPath id="g"><path d="M 104.28125 317 L 224 317 L 224 414 L 104.28125 414 Z M 104.28125 317"/></clipPath></defs><g clip-path="url(#a)"><path fill="#6FA52C" d="M 104.109375 441.671875 L 224.316406 441.671875 L 268.605469 547.875 L 59.824219 547.875 L 104.109375 441.671875"/></g><path fill="#F8A62B" d="M 182.488281 473.769531 C 182.488281 478.042969 174.394531 481.5 164.421875 481.5 C 154.433594 481.5 146.351562 478.042969 146.351562 473.769531 C 146.351562 469.496094 154.433594 466.03125 164.421875 466.03125 C 174.394531 466.03125 182.488281 469.496094 182.488281 473.769531"/><path fill="#FBD14E" d="M 182.121094 471.894531 C 182.121094 476.167969 174.113281 479.625 164.234375 479.625 C 154.359375 479.625 146.351562 476.167969 146.351562 471.894531 C 146.351562 467.621094 154.359375 464.15625 164.234375 464.15625 C 174.113281 464.15625 182.121094 467.621094 182.121094 471.894531"/><g clip-path="url(#b)"><path fill="#E33924" d="M 164.921875 343.910156 C 164.691406 343.910156 164.453125 343.917969 164.214844 343.917969 C 163.972656 343.917969 163.734375 343.910156 163.507812 343.910156 C 141.566406 343.910156 123.777344 362.496094 123.777344 385.425781 C 123.777344 389.328125 125.289062 398.378906 127.5625 402.128906 L 164.214844 471.894531 L 200.863281 402.128906 C 203.136719 398.378906 204.648438 389.328125 204.648438 385.425781 C 204.648438 362.496094 186.875 343.910156 164.921875 343.910156"/></g><path stroke-linecap="square" transform="matrix(.10879 0 0 -.10903 -67.066 677.684)" fill="none" d="M 2792.993621 1846.808035 C 2792.993621 1846.808035 2781.503193 1847.882883 2763.082601 1847.811227" stroke="#351F16" stroke-width="20" stroke-miterlimit="10"/><path fill="#351F16" d="M 226.804688 475.625 C 224.433594 475.96875 222.234375 476.488281 220.207031 477.179688 L 219.179688 477.53125 L 219.878906 479.59375 L 220.910156 479.242188 C 222.808594 478.59375 224.878906 478.109375 227.117188 477.78125 L 228.195312 477.625 L 227.882812 475.46875 Z M 214.042969 480.207031 C 212.03125 481.585938 210.382812 483.226562 209.105469 485.121094 L 208.496094 486.027344 L 210.300781 487.246094 L 210.90625 486.34375 C 212.03125 484.675781 213.488281 483.230469 215.269531 482.007812 L 216.167969 481.390625 L 214.9375 479.589844 Z M 206.402344 491.550781 C 205.941406 493.660156 205.78125 495.945312 205.921875 498.414062 L 205.984375 499.5 L 208.15625 499.378906 L 208.09375 498.289062 C 207.964844 496.019531 208.109375 493.929688 208.527344 492.019531 L 208.757812 490.953125 L 206.632812 490.488281 Z M 205.691406 504.652344 C 205.214844 506.648438 204.398438 508.546875 203.242188 510.355469 L 202.652344 511.273438 L 204.484375 512.449219 L 205.070312 511.53125 C 206.363281 509.519531 207.273438 507.394531 207.808594 505.15625 L 208.0625 504.097656 L 205.945312 503.589844 Z M 199.125 515.078125 C 197.605469 516.40625 195.863281 517.609375 193.898438 518.691406 L 192.945312 519.214844 L 193.992188 521.125 L 194.945312 520.601562 C 197.046875 519.445312 198.917969 518.152344 200.554688 516.722656 L 201.375 516.003906 L 199.945312 514.359375 Z M 188.058594 521.304688 C 186.132812 522 184.066406 522.613281 181.859375 523.132812 L 180.800781 523.382812 L 181.300781 525.507812 L 182.359375 525.253906 C 184.648438 524.714844 186.792969 524.082031 188.796875 523.355469 L 189.820312 522.984375 L 189.082031 520.933594 Z M 175.488281 524.339844 C 173.421875 524.644531 171.261719 524.882812 169.007812 525.058594 L 167.921875 525.144531 L 168.09375 527.320312 L 169.175781 527.234375 C 171.480469 527.054688 173.6875 526.808594 175.804688 526.496094 L 176.878906 526.339844 L 176.5625 524.183594 Z M 162.492188 525.386719 C 160.511719 525.4375 158.46875 525.441406 156.367188 525.40625 L 155.914062 525.402344 L 154.828125 525.394531 L 154.8125 527.578125 L 155.902344 527.582031 L 156.328125 527.585938 C 158.460938 527.625 160.894531 527.609375 163.632812 527.542969 L 163.578125 525.363281 Z M 149.269531 525.546875 C 147.050781 525.640625 144.847656 525.773438 142.660156 525.945312 L 141.574219 526.027344 L 141.746094 528.203125 L 142.828125 528.117188 C 144.988281 527.949219 147.167969 527.820312 149.363281 527.726562 L 150.449219 527.683594 L 150.359375 525.503906 Z M 136.074219 526.589844 C 133.78125 526.863281 131.585938 527.175781 129.480469 527.535156 L 128.40625 527.714844 L 128.769531 529.867188 L 129.84375 529.683594 C 131.914062 529.332031 134.074219 529.023438 136.328125 528.753906 L 137.410156 528.625 L 137.152344 526.460938 Z M 122.9375 528.851562 C 120.621094 529.402344 118.472656 530.015625 116.492188 530.683594 L 115.464844 531.03125 L 116.160156 533.097656 L 117.191406 532.75 C 119.105469 532.101562 121.1875 531.511719 123.441406 530.976562 L 124.5 530.722656 L 123.996094 528.601562 Z M 110.273438 533.269531 C 108.007812 534.429688 106.113281 535.710938 104.59375 537.113281 L 103.789062 537.847656 L 105.261719 539.457031 L 106.0625 538.71875 C 107.441406 537.453125 109.175781 536.28125 111.265625 535.210938 L 112.234375 534.710938 L 111.242188 532.773438 Z M 110.273438 533.269531"/><g clip-path="url(#c)"><path stroke-linecap="square" transform="matrix(.10879 0 0 -.10903 -67.066 677.684)" fill="none" d="M 1550.806557 1232.209986 C 1547.682597 1223.002122 1545.815402 1213.185177 1545.492234 1202.794981" stroke="#351F16" stroke-width="20" stroke-miterlimit="10"/></g><g clip-path="url(#d)"><path fill="#FBD14E" d="M 197.070312 476.820312 C 197.070312 477.34375 197.015625 477.863281 196.910156 478.382812 C 196.804688 478.902344 196.648438 479.421875 196.441406 479.933594 C 196.230469 480.445312 195.972656 480.953125 195.660156 481.453125 C 195.351562 481.953125 194.992188 482.441406 194.582031 482.925781 C 194.171875 483.40625 193.714844 483.878906 193.210938 484.339844 C 192.707031 484.800781 192.15625 485.25 191.5625 485.683594 C 190.96875 486.117188 190.332031 486.535156 189.652344 486.941406 C 188.976562 487.34375 188.257812 487.730469 187.5 488.101562 C 186.746094 488.46875 185.953125 488.820312 185.125 489.152344 C 184.300781 489.484375 183.441406 489.792969 182.550781 490.085938 C 181.664062 490.375 180.746094 490.644531 179.800781 490.890625 C 178.859375 491.136719 177.894531 491.359375 176.90625 491.558594 C 175.917969 491.757812 174.910156 491.933594 173.886719 492.085938 C 172.863281 492.238281 171.828125 492.363281 170.777344 492.464844 C 169.726562 492.570312 168.671875 492.644531 167.605469 492.695312 C 166.542969 492.746094 165.476562 492.773438 164.40625 492.773438 C 163.335938 492.773438 162.269531 492.746094 161.203125 492.695312 C 160.140625 492.644531 159.082031 492.570312 158.03125 492.464844 C 156.984375 492.363281 155.945312 492.238281 154.921875 492.085938 C 153.898438 491.933594 152.894531 491.757812 151.90625 491.558594 C 150.917969 491.359375 149.949219 491.136719 149.007812 490.890625 C 148.0625 490.644531 147.148438 490.375 146.257812 490.085938 C 145.367188 489.792969 144.511719 489.484375 143.683594 489.152344 C 142.855469 488.820312 142.066406 488.46875 141.308594 488.101562 C 140.550781 487.730469 139.835938 487.34375 139.15625 486.941406 C 138.476562 486.535156 137.839844 486.117188 137.246094 485.683594 C 136.652344 485.25 136.101562 484.800781 135.597656 484.339844 C 135.09375 483.878906 134.636719 483.40625 134.226562 482.925781 C 133.820312 482.441406 133.457031 481.953125 133.148438 481.453125 C 132.835938 480.953125 132.578125 480.445312 132.371094 479.933594 C 132.160156 479.421875 132.003906 478.902344 131.898438 478.382812 C 131.792969 477.863281 131.742188 477.34375 131.742188 476.820312 C 131.742188 476.296875 131.792969 475.777344 131.898438 475.257812 C 132.003906 474.738281 132.160156 474.21875 132.371094 473.707031 C 132.578125 473.195312 132.835938 472.691406 133.148438 472.191406 C 133.457031 471.691406 133.820312 471.199219 134.226562 470.714844 C 134.636719 470.234375 135.09375 469.761719 135.597656 469.300781 C 136.101562 468.839844 136.652344 468.390625 137.246094 467.957031 C 137.839844 467.523438 138.476562 467.105469 139.15625 466.699219 C 139.835938 466.296875 140.550781 465.910156 141.308594 465.539062 C 142.066406 465.171875 142.855469 464.820312 143.683594 464.488281 C 144.511719 464.15625 145.367188 463.847656 146.257812 463.554688 C 147.148438 463.265625 148.0625 462.996094 149.007812 462.75 C 149.949219 462.503906 150.917969 462.28125 151.90625 462.082031 C 152.894531 461.882812 153.898438 461.707031 154.921875 461.554688 C 155.945312 461.402344 156.984375 461.277344 158.03125 461.175781 C 159.082031 461.074219 160.140625 460.996094 161.203125 460.945312 C 162.269531 460.894531 163.335938 460.867188 164.40625 460.867188 C 165.476562 460.867188 166.542969 460.894531 167.605469 460.945312 C 168.671875 460.996094 169.726562 461.074219 170.777344 461.175781 C 171.828125 461.277344 172.863281 461.402344 173.886719 461.554688 C 174.910156 461.707031 175.917969 461.882812 176.90625 462.082031 C 177.894531 462.28125 178.859375 462.503906 179.800781 462.75 C 180.746094 462.996094 181.664062 463.265625 182.550781 463.554688 C 183.441406 463.847656 184.300781 464.15625 185.125 464.488281 C 185.953125 464.820312 186.746094 465.171875 187.5 465.539062 C 188.257812 465.910156 188.976562 466.296875 189.652344 466.699219 C 190.332031 467.105469 190.96875 467.523438 191.5625 467.957031 C 192.15625 468.390625 192.707031 468.839844 193.210938 469.300781 C 193.714844 469.761719 194.171875 470.234375 194.582031 470.714844 C 194.992188 471.199219 195.351562 471.691406 195.660156 472.191406 C 195.972656 472.691406 196.230469 473.195312 196.441406 473.707031 C 196.648438 474.21875 196.804688 474.738281 196.910156 475.257812 C 197.015625 475.777344 197.070312 476.296875 197.070312 476.820312 Z M 197.070312 476.820312"/><path fill="#F8A62B" d="M 164.40625 462.675781 C 168.71875 462.675781 172.902344 463.082031 176.851562 463.898438 C 180.613281 464.679688 183.988281 465.785156 186.867188 467.195312 C 189.613281 468.539062 191.84375 470.148438 193.308594 471.835938 C 194.707031 473.457031 195.417969 475.132812 195.417969 476.820312 C 195.417969 478.507812 194.707031 480.183594 193.308594 481.804688 C 191.84375 483.492188 189.613281 485.101562 186.867188 486.445312 C 183.988281 487.855469 180.613281 488.964844 176.851562 489.742188 C 172.917969 490.558594 168.734375 490.96875 164.40625 490.96875 C 160.078125 490.96875 155.90625 490.558594 151.960938 489.742188 C 148.199219 488.964844 144.820312 487.855469 141.941406 486.445312 C 139.199219 485.101562 136.96875 483.492188 135.503906 481.804688 C 134.105469 480.183594 133.390625 478.507812 133.390625 476.820312 C 133.390625 475.132812 134.105469 473.457031 135.503906 471.835938 C 136.96875 470.148438 139.199219 468.539062 141.941406 467.195312 C 144.820312 465.785156 148.199219 464.679688 151.960938 463.898438 C 155.90625 463.097656 160.089844 462.675781 164.40625 462.675781 M 164.40625 460.695312 C 146.179688 460.695312 131.410156 467.921875 131.410156 476.820312 C 131.410156 485.71875 146.179688 492.945312 164.40625 492.945312 C 182.628906 492.945312 197.398438 485.734375 197.398438 476.820312 C 197.398438 467.921875 182.628906 460.695312 164.40625 460.695312 Z M 164.40625 460.695312"/></g><g clip-path="url(#e)"><path fill="#73C9A8" d="M 161.890625 480.730469 C 160.601562 481.628906 158.992188 481.964844 157.417969 482.058594 C 155.847656 482.148438 154.242188 482.015625 152.777344 481.441406 C 151.3125 480.867188 149.996094 479.820312 149.300781 478.417969 C 148.472656 476.757812 148.570312 474.8125 148.621094 472.960938 C 148.664062 471.351562 148.65625 469.734375 148.601562 468.125 C 149.597656 468.609375 150.617188 469.042969 151.636719 469.453125 C 154.015625 470.402344 156.46875 471.171875 158.976562 471.710938 C 159.003906 472.085938 159.03125 472.464844 159.058594 472.839844 C 159.144531 474.101562 159.304688 475.492188 160.25 476.324219 C 161.171875 477.144531 162.769531 477.375 163.050781 478.574219 C 163.246094 479.417969 162.601562 480.230469 161.890625 480.730469"/></g><g clip-path="url(#f)"><path fill="#73C9A8" d="M 182.203125 480.730469 C 180.910156 481.628906 179.300781 481.964844 177.726562 482.058594 C 176.160156 482.148438 174.554688 482.015625 173.085938 481.441406 C 171.621094 480.867188 170.308594 479.820312 169.605469 478.417969 C 168.78125 476.757812 168.878906 474.8125 168.925781 472.960938 C 168.929688 472.828125 168.933594 472.695312 168.9375 472.5625 C 170.816406 472.472656 172.683594 472.21875 174.527344 471.804688 C 176.113281 471.449219 177.675781 470.960938 179.1875 470.355469 C 179.246094 471.183594 179.304688 472.011719 179.363281 472.839844 C 179.457031 474.101562 179.609375 475.492188 180.554688 476.324219 C 181.480469 477.144531 183.078125 477.375 183.355469 478.574219 C 183.554688 479.417969 182.910156 480.230469 182.203125 480.730469"/></g><path fill="#8AD6B8" d="M 197.535156 439.695312 C 197.449219 444.5625 196.691406 449.453125 194.949219 454.019531 C 193.285156 458.382812 190.730469 462.429688 187.195312 465.519531 C 183.597656 468.652344 179.171875 470.753906 174.527344 471.804688 C 169.542969 472.933594 164.359375 472.824219 159.363281 471.792969 C 156.722656 471.25 154.140625 470.453125 151.636719 469.453125 C 149.238281 468.484375 146.832031 467.390625 144.707031 465.90625 C 140.839844 463.203125 138.292969 459.085938 136.902344 454.632812 C 135.296875 449.484375 135.289062 443.996094 135.675781 438.667969 C 136.085938 432.964844 136.773438 427.273438 137.566406 421.609375 C 137.832031 419.707031 138.128906 417.8125 138.425781 415.917969 L 138.492188 415.9375 C 145.007812 417.957031 152.003906 416.949219 158.828125 416.78125 C 162.074219 416.699219 165.324219 416.808594 168.5625 417.113281 C 171.03125 417.34375 173.503906 417.6875 175.984375 417.667969 C 178.191406 417.648438 180.390625 417.34375 182.582031 417.03125 C 186.578125 416.472656 190.578125 415.910156 194.578125 415.347656 C 194.765625 416.40625 194.964844 417.464844 195.15625 418.519531 C 195.40625 419.894531 195.652344 421.269531 195.890625 422.644531 C 196.855469 428.273438 197.640625 433.972656 197.535156 439.695312"/><path fill="#F9B0C1" d="M 136.234375 410.113281 C 136.066406 410.113281 135.910156 410.023438 135.824219 409.875 C 135.726562 409.699219 135.746094 409.484375 135.878906 409.332031 L 135.988281 409.210938 C 136.078125 409.105469 136.210938 409.046875 136.34375 409.046875 C 136.398438 409.046875 136.457031 409.054688 136.507812 409.078125 C 136.695312 409.144531 136.816406 409.320312 136.816406 409.519531 L 136.816406 409.574219 C 136.84375 409.824219 136.667969 410.054688 136.417969 410.089844 L 136.320312 410.105469 L 136.234375 410.113281"/><path fill="#5C43A4" d="M 136.34375 408.574219 C 136.078125 408.574219 135.816406 408.6875 135.632812 408.898438 L 135.523438 409.023438 C 135.261719 409.324219 135.214844 409.757812 135.414062 410.105469 C 135.582031 410.40625 135.898438 410.585938 136.234375 410.585938 C 136.289062 410.585938 136.347656 410.582031 136.402344 410.570312 L 136.488281 410.558594 C 136.988281 410.480469 137.339844 410.027344 137.285156 409.527344 L 137.289062 409.519531 C 137.289062 409.125 137.042969 408.773438 136.675781 408.636719 C 136.566406 408.59375 136.457031 408.574219 136.34375 408.574219 Z M 136.34375 409.519531 L 136.347656 409.625 L 136.234375 409.644531 L 136.34375 409.519531"/><path fill="#A565B9" d="M 198.265625 412.003906 C 198.214844 412.589844 198.136719 413.179688 198.027344 413.757812 C 197.96875 414.058594 197.902344 414.367188 197.707031 414.59375 C 197.421875 414.933594 196.9375 415.015625 196.5 415.078125 C 191.859375 415.730469 187.222656 416.382812 182.582031 417.03125 C 180.390625 417.34375 178.191406 417.648438 175.984375 417.667969 C 173.503906 417.6875 171.03125 417.34375 168.5625 417.113281 C 165.324219 416.808594 162.074219 416.699219 158.828125 416.78125 C 152.003906 416.949219 145.007812 417.957031 138.492188 415.9375 C 138.042969 415.800781 137.574219 415.632812 137.261719 415.28125 C 136.953125 414.933594 136.847656 414.457031 136.761719 414 C 136.574219 412.972656 136.445312 411.941406 136.390625 410.902344 C 137.210938 410.769531 138.035156 410.644531 138.855469 410.539062 C 139.367188 410.480469 139.882812 410.421875 140.398438 410.375 C 141.710938 410.257812 143.023438 410.214844 144.347656 410.292969 C 147.890625 410.503906 151.230469 411.835938 154.613281 412.804688 C 157.996094 413.773438 161.402344 414.164062 164.910156 413.871094 C 166 413.777344 167.082031 413.640625 168.15625 413.464844 C 168.601562 413.394531 169.046875 413.320312 169.492188 413.238281 C 174.800781 412.269531 180 410.683594 185.410156 410.515625 C 188.871094 410.410156 192.296875 411.078125 195.722656 411.628906 L 195.726562 411.628906 C 196.175781 411.703125 196.628906 411.773438 197.078125 411.839844 C 197.476562 411.902344 197.871094 411.953125 198.265625 412.003906"/><g clip-path="url(#g)"><path fill="#F575C1" d="M 223.777344 384.859375 C 223.320312 390.691406 222.058594 396.589844 219.246094 401.765625 C 216.53125 406.753906 212.171875 410.960938 206.414062 412.007812 C 203.285156 412.574219 200.179688 412.304688 197.078125 411.839844 C 196.625 411.773438 196.175781 411.703125 195.722656 411.628906 C 192.296875 411.078125 188.871094 410.410156 185.410156 410.515625 C 180 410.683594 174.796875 412.269531 169.492188 413.238281 C 169.046875 413.320312 168.601562 413.394531 168.15625 413.464844 C 167.082031 413.640625 166 413.777344 164.910156 413.871094 C 161.402344 414.164062 157.996094 413.773438 154.613281 412.804688 C 151.230469 411.835938 147.890625 410.503906 144.347656 410.292969 C 143.023438 410.214844 141.710938 410.257812 140.398438 410.375 C 139.882812 410.421875 139.367188 410.480469 138.855469 410.539062 C 133.710938 411.191406 128.613281 412.613281 123.410156 411.554688 C 117.753906 410.402344 112.945312 406.628906 109.671875 401.984375 C 105.875 396.605469 104.359375 390.007812 104.328125 383.5 C 104.292969 376.515625 105.792969 369.496094 107.949219 362.878906 C 113.347656 346.285156 125.355469 329.785156 141.433594 322.214844 C 155.367188 315.660156 171.207031 316.828125 184.816406 323.53125 C 190.945312 326.546875 196.65625 330.398438 201.925781 334.734375 C 207.054688 338.960938 211.582031 343.828125 215.101562 349.476562 C 218.363281 354.714844 220.773438 360.496094 222.242188 366.484375 C 223.710938 372.472656 224.265625 378.707031 223.777344 384.859375"/></g><path fill="#459178" d="M 161.691406 440.691406 C 161.292969 439.398438 160.386719 438.171875 158.988281 437.050781 C 158.3125 436.507812 157.582031 436.03125 156.878906 435.566406 C 156.394531 435.246094 155.894531 434.917969 155.421875 434.570312 C 152.441406 432.402344 149.890625 429.171875 147.839844 424.957031 C 147.726562 424.722656 147.441406 424.625 147.207031 424.742188 C 146.972656 424.855469 146.875 425.136719 146.988281 425.371094 C 149.109375 429.722656 151.757812 433.074219 154.863281 435.335938 C 155.355469 435.695312 155.867188 436.03125 156.363281 436.355469 C 157.046875 436.804688 157.753906 437.273438 158.394531 437.785156 C 159.644531 438.789062 160.449219 439.859375 160.789062 440.964844 C 161.191406 442.28125 160.871094 443.679688 159.996094 444.453125 C 159.605469 444.796875 159.066406 445.046875 158.40625 445.207031 C 157.039062 445.535156 155.449219 445.390625 153.808594 444.785156 C 150.824219 443.691406 148.074219 441.253906 146.070312 437.925781 C 144.152344 434.746094 143.050781 431.117188 142.167969 427.964844 C 142.09375 427.710938 141.835938 427.566406 141.582031 427.636719 C 141.332031 427.703125 141.1875 427.964844 141.253906 428.21875 C 142.15625 431.429688 143.28125 435.132812 145.261719 438.414062 C 147.378906 441.925781 150.296875 444.503906 153.484375 445.671875 C 154.660156 446.101562 155.816406 446.320312 156.90625 446.320312 C 157.503906 446.320312 158.078125 446.253906 158.628906 446.125 C 159.441406 445.929688 160.109375 445.605469 160.617188 445.160156 C 161.769531 444.148438 162.199219 442.355469 161.691406 440.691406"/><path fill="#459178" d="M 194.546875 426.269531 C 194.289062 426.230469 194.050781 426.40625 194.011719 426.664062 C 193.492188 430.222656 192.546875 433.082031 191.125 435.40625 C 189.398438 438.226562 186.945312 440.226562 184.214844 441.039062 C 183.109375 441.367188 182.128906 441.433594 181.296875 441.238281 C 180.328125 441.011719 179.527344 440.394531 179.199219 439.617188 C 178.628906 438.25 179.511719 436.636719 180.4375 435.675781 C 181.324219 434.75 182.4375 434.007812 183.511719 433.292969 C 184.761719 432.453125 186.054688 431.589844 187.070312 430.414062 C 189.390625 427.707031 189.792969 423.871094 189.875 420.472656 C 189.882812 420.214844 189.675781 419.996094 189.414062 419.992188 C 189.144531 419.984375 188.9375 420.191406 188.933594 420.453125 C 188.84375 423.84375 188.476562 427.324219 186.351562 429.796875 C 185.421875 430.878906 184.238281 431.667969 182.984375 432.503906 C 181.871094 433.253906 180.714844 434.023438 179.757812 435.019531 C 178.578125 436.25 177.582031 438.195312 178.328125 439.980469 C 178.777344 441.046875 179.804688 441.859375 181.082031 442.15625 C 181.460938 442.246094 181.859375 442.289062 182.28125 442.289062 C 182.964844 442.289062 183.703125 442.175781 184.484375 441.941406 C 187.4375 441.0625 190.082031 438.917969 191.929688 435.898438 C 193.421875 433.464844 194.410156 430.484375 194.949219 426.800781 C 194.984375 426.542969 194.808594 426.304688 194.546875 426.269531"/><path fill="#BC3D8D" d="M 204.578125 399.523438 C 203.320312 403.996094 201.101562 407.917969 198.171875 410.855469 C 197.863281 411.167969 197.496094 411.511719 197.078125 411.839844 C 196.628906 411.773438 196.175781 411.703125 195.726562 411.628906 C 196.433594 411.214844 197.039062 410.660156 197.503906 410.191406 C 200.324219 407.363281 202.457031 403.585938 203.671875 399.265625 C 204.722656 395.523438 205.113281 391.265625 204.84375 386.621094 C 204.832031 386.359375 205.027344 386.136719 205.285156 386.121094 C 205.542969 386.105469 205.769531 386.304688 205.789062 386.566406 C 206.066406 391.316406 205.660156 395.675781 204.578125 399.523438"/><path fill="#BC3D8D" d="M 140.398438 410.375 C 139.882812 410.421875 139.367188 410.480469 138.855469 410.539062 C 138.269531 410.121094 137.691406 409.585938 137.132812 408.941406 C 134.308594 405.699219 132.992188 401.535156 132.082031 397.882812 C 131.273438 394.652344 130.5625 390.859375 131.4375 387.261719 C 131.496094 387.011719 131.75 386.855469 132.003906 386.914062 C 132.257812 386.976562 132.414062 387.230469 132.351562 387.484375 C 131.527344 390.878906 132.21875 394.53125 132.996094 397.65625 C 133.886719 401.195312 135.148438 405.230469 137.84375 408.320312 C 138.683594 409.285156 139.539062 409.972656 140.398438 410.375"/><path fill="#BC3D8D" d="M 169.492188 413.238281 C 169.046875 413.320312 168.601562 413.394531 168.15625 413.464844 C 167.148438 412.679688 166.355469 411.675781 165.726562 410.785156 C 161.519531 404.863281 159.609375 397.332031 160.484375 390.125 C 160.515625 389.867188 160.75 389.683594 161.007812 389.71875 C 161.265625 389.75 161.453125 389.984375 161.421875 390.242188 C 160.574219 397.21875 162.421875 404.507812 166.496094 410.238281 C 167.238281 411.289062 168.21875 412.5 169.492188 413.238281"/><path fill="#2C6A55" d="M 157.871094 421.035156 C 157.796875 420.554688 157.378906 420.035156 156.847656 420.167969 C 156.664062 420.21875 156.519531 420.332031 156.414062 420.476562 C 156.328125 420.582031 156.265625 420.707031 156.230469 420.84375 C 156.171875 421.074219 156.15625 421.316406 156.195312 421.550781 C 156.265625 422.035156 156.769531 422.441406 157.265625 422.289062 C 157.5625 422.199219 157.734375 421.953125 157.835938 421.679688 C 157.90625 421.46875 157.90625 421.246094 157.871094 421.035156"/><path fill="#2C6A55" d="M 179.667969 421.035156 C 179.59375 420.554688 179.175781 420.035156 178.640625 420.167969 C 178.457031 420.21875 178.316406 420.332031 178.210938 420.476562 C 178.125 420.582031 178.058594 420.707031 178.023438 420.84375 C 177.96875 421.074219 177.953125 421.316406 177.988281 421.550781 C 178.0625 422.035156 178.566406 422.441406 179.0625 422.289062 C 179.355469 422.199219 179.53125 421.953125 179.628906 421.679688 C 179.703125 421.46875 179.703125 421.246094 179.667969 421.035156"/><path fill="#2C6A55" d="M 170.457031 423.910156 C 170.246094 423.910156 170.128906 424.070312 170.105469 424.261719 C 169.984375 425.203125 169.675781 426.703125 168.410156 426.558594 C 167.304688 426.433594 166.828125 425.269531 166.773438 424.296875 C 166.75 423.847656 166.042969 423.84375 166.066406 424.296875 C 166.105469 425 166.28125 425.71875 166.707031 426.289062 C 167.121094 426.839844 167.71875 427.203125 168.410156 427.265625 C 169.109375 427.332031 169.730469 426.980469 170.140625 426.425781 C 170.609375 425.804688 170.714844 425.015625 170.8125 424.261719 C 170.835938 424.070312 170.632812 423.910156 170.457031 423.910156"/><path fill="#B0E4D1" d="M 181.875 423.882812 C 181.539062 423.390625 181.011719 423.085938 180.464844 422.875 C 179.140625 422.371094 175.894531 422.78125 176.121094 424.816406 C 176.257812 426.015625 177.832031 426.5625 178.855469 426.65625 C 179.933594 426.761719 181.304688 426.429688 181.902344 425.445312 C 182.199219 424.957031 182.191406 424.355469 181.875 423.882812"/><path fill="#B0E4D1" d="M 159.867188 423.882812 C 159.53125 423.390625 159.003906 423.085938 158.457031 422.875 C 157.132812 422.371094 153.882812 422.78125 154.113281 424.816406 C 154.246094 426.015625 155.824219 426.5625 156.847656 426.65625 C 157.929688 426.761719 159.292969 426.429688 159.898438 425.445312 C 160.191406 424.957031 160.183594 424.355469 159.867188 423.882812"/><path fill="#FFF" d="M 121.445312 360.921875 C 121.265625 370.1875 121.117188 370.335938 111.84375 370.515625 C 121.117188 370.695312 121.265625 370.84375 121.445312 380.105469 C 121.628906 370.84375 121.773438 370.695312 131.046875 370.515625 C 121.773438 370.335938 121.628906 370.1875 121.445312 360.921875"/><path fill="#FFF" d="M 144.1875 383.296875 C 144.078125 388.824219 143.992188 388.910156 138.460938 389.019531 C 143.992188 389.125 144.078125 389.210938 144.1875 394.738281 C 144.292969 389.210938 144.382812 389.125 149.914062 389.019531 C 144.382812 388.910156 144.292969 388.824219 144.1875 383.296875"/><path fill="#FFF" d="M 160.207031 320.476562 C 160.101562 326 160.015625 326.089844 154.484375 326.195312 C 160.015625 326.304688 160.101562 326.390625 160.207031 331.914062 C 160.3125 326.390625 160.40625 326.304688 165.9375 326.195312 C 160.40625 326.089844 160.3125 326 160.207031 320.476562"/><path fill="#FFF" d="M 165.722656 335.621094 C 165.613281 341.144531 165.527344 341.234375 159.996094 341.339844 C 165.527344 341.449219 165.613281 341.535156 165.722656 347.0625 C 165.828125 341.535156 165.917969 341.449219 171.449219 341.339844 C 165.917969 341.234375 165.828125 341.144531 165.722656 335.621094"/><path fill="#FFF" d="M 182.429688 370.84375 C 182.351562 374.820312 182.292969 374.882812 178.316406 374.957031 C 182.292969 375.035156 182.351562 375.097656 182.429688 379.074219 C 182.507812 375.097656 182.574219 375.035156 186.550781 374.957031 C 182.574219 374.882812 182.507812 374.820312 182.429688 370.84375"/><path fill="#FFF" d="M 213.441406 353.976562 C 213.363281 357.953125 213.300781 358.019531 209.320312 358.09375 C 213.300781 358.171875 213.363281 358.234375 213.441406 362.207031 C 213.519531 358.234375 213.582031 358.171875 217.5625 358.09375 C 213.582031 358.019531 213.519531 357.953125 213.441406 353.976562"/><path fill="#FFF" d="M 208.273438 395.457031 C 208.199219 399.433594 208.132812 399.492188 204.152344 399.570312 C 208.132812 399.648438 208.199219 399.710938 208.273438 403.6875 C 208.351562 399.710938 208.414062 399.648438 212.394531 399.570312 C 208.414062 399.492188 208.351562 399.433594 208.273438 395.457031"/><path fill="#FFF" d="M 142.976562 447.261719 C 142.90625 451.238281 142.839844 451.300781 138.863281 451.375 C 142.839844 451.453125 142.90625 451.515625 142.976562 455.492188 C 143.058594 451.515625 143.121094 451.453125 147.097656 451.375 C 143.121094 451.300781 143.058594 451.238281 142.976562 447.261719"/><g fill="#F0F"><g><g><path d="M 26.078125 -9.859375 C 25.671875 -8.941406 25.171875 -8.484375 24.578125 -8.484375 C 23.984375 -8.484375 23.476562 -8.941406 23.0625 -9.859375 L 10.953125 -36.28125 L 10.953125 -2.265625 C 10.953125 -0.753906 10.195312 0 8.6875 0 L 5.6875 0 C 4.175781 0 3.421875 -0.753906 3.421875 -2.265625 L 3.421875 -49.765625 C 3.421875 -51.273438 4.175781 -52.03125 5.6875 -52.03125 L 8.28125 -52.03125 C 9.507812 -52.03125 10.398438 -51.457031 10.953125 -50.3125 L 24.4375 -22.109375 L 37.859375 -50.3125 C 38.359375 -51.457031 39.25 -52.03125 40.53125 -52.03125 L 43.125 -52.03125 C 44.632812 -52.03125 45.390625 -51.273438 45.390625 -49.765625 L 45.390625 -2.265625 C 45.390625 -0.753906 44.632812 0 43.125 0 L 40.109375 0 C 38.609375 0 37.859375 -0.753906 37.859375 -2.265625 L 37.859375 -36.078125 Z M 26.078125 -9.859375" transform="translate(308.195 475.179)"/></g></g></g><g fill="#F0F"><g><g><path d="M 15.40625 0.6875 C 12.476562 0.6875 10 -0.078125 7.96875 -1.609375 C 5.9375 -3.140625 4.382812 -5.25 3.3125 -7.9375 C 2.25 -10.632812 1.71875 -13.71875 1.71875 -17.1875 C 1.71875 -20.601562 2.34375 -23.703125 3.59375 -26.484375 C 4.84375 -29.273438 6.585938 -31.488281 8.828125 -33.125 C 11.066406 -34.769531 13.691406 -35.59375 16.703125 -35.59375 C 20.628906 -35.59375 23.890625 -34.757812 26.484375 -33.09375 C 29.085938 -31.425781 31.023438 -29.269531 32.296875 -26.625 C 33.578125 -23.976562 34.21875 -21.171875 34.21875 -18.203125 C 34.21875 -18.023438 34.21875 -17.84375 34.21875 -17.65625 C 34.539062 -14.601562 34.90625 -11.832031 35.3125 -9.34375 C 35.726562 -6.851562 36.140625 -4.789062 36.546875 -3.15625 C 36.597656 -3.007812 36.625 -2.820312 36.625 -2.59375 C 36.625 -1.226562 35.914062 -0.429688 34.5 -0.203125 L 30.59375 0.28125 C 29.320312 0.414062 28.523438 -0.109375 28.203125 -1.296875 C 28.015625 -2.023438 27.851562 -2.78125 27.71875 -3.5625 C 26.164062 -2.238281 24.363281 -1.195312 22.3125 -0.4375 C 20.257812 0.3125 17.957031 0.6875 15.40625 0.6875 Z M 15.40625 -3.421875 C 17.632812 -3.421875 19.476562 -4.160156 20.9375 -5.640625 C 22.40625 -7.128906 23.515625 -9.015625 24.265625 -11.296875 C 25.015625 -13.578125 25.390625 -15.925781 25.390625 -18.34375 C 25.390625 -18.34375 25.390625 -18.351562 25.390625 -18.375 C 25.390625 -18.394531 25.390625 -18.476562 25.390625 -18.625 C 25.347656 -18.851562 25.328125 -19.101562 25.328125 -19.375 C 25.328125 -19.601562 25.328125 -19.804688 25.328125 -19.984375 C 25.191406 -21.992188 24.78125 -23.875 24.09375 -25.625 C 23.40625 -27.382812 22.445312 -28.800781 21.21875 -29.875 C 19.988281 -30.945312 18.484375 -31.484375 16.703125 -31.484375 C 15.742188 -31.484375 14.785156 -30.785156 13.828125 -29.390625 C 12.867188 -28.003906 12.066406 -26.210938 11.421875 -24.015625 C 10.785156 -21.828125 10.46875 -19.550781 10.46875 -17.1875 C 10.46875 -14.8125 10.71875 -12.570312 11.21875 -10.46875 C 11.726562 -8.375 12.367188 -6.675781 13.140625 -5.375 C 13.921875 -4.070312 14.675781 -3.421875 15.40625 -3.421875 Z M 15.40625 -3.421875" transform="translate(356.996 475.179)"/></g></g></g><g fill="#F0F"><g><g><path d="M 12.53125 11.359375 C 12.53125 12.003906 12.300781 12.550781 11.84375 13 C 11.382812 13.457031 10.835938 13.6875 10.203125 13.6875 L 7.125 13.6875 C 6.476562 13.6875 5.925781 13.457031 5.46875 13 C 5.019531 12.550781 4.796875 12.003906 4.796875 11.359375 L 4.796875 -32.578125 C 4.796875 -33.222656 5.019531 -33.769531 5.46875 -34.21875 C 5.925781 -34.675781 6.476562 -34.90625 7.125 -34.90625 L 10.203125 -34.90625 C 11.390625 -34.90625 12.140625 -34.335938 12.453125 -33.203125 C 14.691406 -34.796875 17.773438 -35.59375 21.703125 -35.59375 C 24.941406 -35.59375 27.828125 -34.78125 30.359375 -33.15625 C 32.890625 -31.539062 34.882812 -29.382812 36.34375 -26.6875 C 37.8125 -24 38.546875 -21.035156 38.546875 -17.796875 C 38.546875 -14.554688 37.859375 -11.585938 36.484375 -8.890625 C 35.117188 -6.203125 33.210938 -4.046875 30.765625 -2.421875 C 28.328125 -0.804688 25.460938 0 22.171875 0 C 20.210938 0 18.421875 -0.285156 16.796875 -0.859375 C 15.179688 -1.429688 13.757812 -2.238281 12.53125 -3.28125 Z M 21.96875 -4.171875 C 24.164062 -4.171875 25.9375 -4.820312 27.28125 -6.125 C 28.625 -7.425781 29.601562 -9.125 30.21875 -11.21875 C 30.832031 -13.320312 31.140625 -15.515625 31.140625 -17.796875 C 31.140625 -20.078125 30.726562 -22.265625 29.90625 -24.359375 C 29.09375 -26.460938 27.96875 -28.175781 26.53125 -29.5 C 25.09375 -30.820312 23.484375 -31.484375 21.703125 -31.484375 C 19.140625 -31.484375 16.976562 -30.273438 15.21875 -27.859375 C 13.46875 -25.441406 12.59375 -21.972656 12.59375 -17.453125 C 12.59375 -14.941406 13.117188 -12.679688 14.171875 -10.671875 C 15.222656 -8.671875 16.476562 -7.085938 17.9375 -5.921875 C 19.394531 -4.753906 20.738281 -4.171875 21.96875 -4.171875 Z M 21.96875 -4.171875" transform="translate(395.942 475.179)"/></g></g></g><g fill="#F0F"><g><g><path d="M 15.40625 0.6875 C 12.476562 0.6875 10 -0.078125 7.96875 -1.609375 C 5.9375 -3.140625 4.382812 -5.25 3.3125 -7.9375 C 2.25 -10.632812 1.71875 -13.71875 1.71875 -17.1875 C 1.71875 -20.601562 2.34375 -23.703125 3.59375 -26.484375 C 4.84375 -29.273438 6.585938 -31.488281 8.828125 -33.125 C 11.066406 -34.769531 13.691406 -35.59375 16.703125 -35.59375 C 20.628906 -35.59375 23.890625 -34.757812 26.484375 -33.09375 C 29.085938 -31.425781 31.023438 -29.269531 32.296875 -26.625 C 33.578125 -23.976562 34.21875 -21.171875 34.21875 -18.203125 C 34.21875 -18.023438 34.21875 -17.84375 34.21875 -17.65625 C 34.539062 -14.601562 34.90625 -11.832031 35.3125 -9.34375 C 35.726562 -6.851562 36.140625 -4.789062 36.546875 -3.15625 C 36.597656 -3.007812 36.625 -2.820312 36.625 -2.59375 C 36.625 -1.226562 35.914062 -0.429688 34.5 -0.203125 L 30.59375 0.28125 C 29.320312 0.414062 28.523438 -0.109375 28.203125 -1.296875 C 28.015625 -2.023438 27.851562 -2.78125 27.71875 -3.5625 C 26.164062 -2.238281 24.363281 -1.195312 22.3125 -0.4375 C 20.257812 0.3125 17.957031 0.6875 15.40625 0.6875 Z M 15.40625 -3.421875 C 17.632812 -3.421875 19.476562 -4.160156 20.9375 -5.640625 C 22.40625 -7.128906 23.515625 -9.015625 24.265625 -11.296875 C 25.015625 -13.578125 25.390625 -15.925781 25.390625 -18.34375 C 25.390625 -18.34375 25.390625 -18.351562 25.390625 -18.375 C 25.390625 -18.394531 25.390625 -18.476562 25.390625 -18.625 C 25.347656 -18.851562 25.328125 -19.101562 25.328125 -19.375 C 25.328125 -19.601562 25.328125 -19.804688 25.328125 -19.984375 C 25.191406 -21.992188 24.78125 -23.875 24.09375 -25.625 C 23.40625 -27.382812 22.445312 -28.800781 21.21875 -29.875 C 19.988281 -30.945312 18.484375 -31.484375 16.703125 -31.484375 C 15.742188 -31.484375 14.785156 -30.785156 13.828125 -29.390625 C 12.867188 -28.003906 12.066406 -26.210938 11.421875 -24.015625 C 10.785156 -21.828125 10.46875 -19.550781 10.46875 -17.1875 C 10.46875 -14.8125 10.71875 -12.570312 11.21875 -10.46875 C 11.726562 -8.375 12.367188 -6.675781 13.140625 -5.375 C 13.921875 -4.070312 14.675781 -3.421875 15.40625 -3.421875 Z M 15.40625 -3.421875" transform="translate(436.53 475.179)"/></g></g></g><g fill="#0FF"><g><g><path d="M 26.078125 -9.859375 C 25.671875 -8.941406 25.171875 -8.484375 24.578125 -8.484375 C 23.984375 -8.484375 23.476562 -8.941406 23.0625 -9.859375 L 10.953125 -36.28125 L 10.953125 -2.265625 C 10.953125 -0.753906 10.195312 0 8.6875 0 L 5.6875 0 C 4.175781 0 3.421875 -0.753906 3.421875 -2.265625 L 3.421875 -49.765625 C 3.421875 -51.273438 4.175781 -52.03125 5.6875 -52.03125 L 8.28125 -52.03125 C 9.507812 -52.03125 10.398438 -51.457031 10.953125 -50.3125 L 24.4375 -22.109375 L 37.859375 -50.3125 C 38.359375 -51.457031 39.25 -52.03125 40.53125 -52.03125 L 43.125 -52.03125 C 44.632812 -52.03125 45.390625 -51.273438 45.390625 -49.765625 L 45.390625 -2.265625 C 45.390625 -0.753906 44.632812 0 43.125 0 L 40.109375 0 C 38.609375 0 37.859375 -0.753906 37.859375 -2.265625 L 37.859375 -36.078125 Z M 26.078125 -9.859375" transform="translate(303.916 475.179)"/></g></g></g><g fill="#0FF"><g><g><path d="M 15.40625 0.6875 C 12.476562 0.6875 10 -0.078125 7.96875 -1.609375 C 5.9375 -3.140625 4.382812 -5.25 3.3125 -7.9375 C 2.25 -10.632812 1.71875 -13.71875 1.71875 -17.1875 C 1.71875 -20.601562 2.34375 -23.703125 3.59375 -26.484375 C 4.84375 -29.273438 6.585938 -31.488281 8.828125 -33.125 C 11.066406 -34.769531 13.691406 -35.59375 16.703125 -35.59375 C 20.628906 -35.59375 23.890625 -34.757812 26.484375 -33.09375 C 29.085938 -31.425781 31.023438 -29.269531 32.296875 -26.625 C 33.578125 -23.976562 34.21875 -21.171875 34.21875 -18.203125 C 34.21875 -18.023438 34.21875 -17.84375 34.21875 -17.65625 C 34.539062 -14.601562 34.90625 -11.832031 35.3125 -9.34375 C 35.726562 -6.851562 36.140625 -4.789062 36.546875 -3.15625 C 36.597656 -3.007812 36.625 -2.820312 36.625 -2.59375 C 36.625 -1.226562 35.914062 -0.429688 34.5 -0.203125 L 30.59375 0.28125 C 29.320312 0.414062 28.523438 -0.109375 28.203125 -1.296875 C 28.015625 -2.023438 27.851562 -2.78125 27.71875 -3.5625 C 26.164062 -2.238281 24.363281 -1.195312 22.3125 -0.4375 C 20.257812 0.3125 17.957031 0.6875 15.40625 0.6875 Z M 15.40625 -3.421875 C 17.632812 -3.421875 19.476562 -4.160156 20.9375 -5.640625 C 22.40625 -7.128906 23.515625 -9.015625 24.265625 -11.296875 C 25.015625 -13.578125 25.390625 -15.925781 25.390625 -18.34375 C 25.390625 -18.34375 25.390625 -18.351562 25.390625 -18.375 C 25.390625 -18.394531 25.390625 -18.476562 25.390625 -18.625 C 25.347656 -18.851562 25.328125 -19.101562 25.328125 -19.375 C 25.328125 -19.601562 25.328125 -19.804688 25.328125 -19.984375 C 25.191406 -21.992188 24.78125 -23.875 24.09375 -25.625 C 23.40625 -27.382812 22.445312 -28.800781 21.21875 -29.875 C 19.988281 -30.945312 18.484375 -31.484375 16.703125 -31.484375 C 15.742188 -31.484375 14.785156 -30.785156 13.828125 -29.390625 C 12.867188 -28.003906 12.066406 -26.210938 11.421875 -24.015625 C 10.785156 -21.828125 10.46875 -19.550781 10.46875 -17.1875 C 10.46875 -14.8125 10.71875 -12.570312 11.21875 -10.46875 C 11.726562 -8.375 12.367188 -6.675781 13.140625 -5.375 C 13.921875 -4.070312 14.675781 -3.421875 15.40625 -3.421875 Z M 15.40625 -3.421875" transform="translate(352.718 475.179)"/></g></g></g><g fill="#0FF"><g><g><path d="M 12.53125 11.359375 C 12.53125 12.003906 12.300781 12.550781 11.84375 13 C 11.382812 13.457031 10.835938 13.6875 10.203125 13.6875 L 7.125 13.6875 C 6.476562 13.6875 5.925781 13.457031 5.46875 13 C 5.019531 12.550781 4.796875 12.003906 4.796875 11.359375 L 4.796875 -32.578125 C 4.796875 -33.222656 5.019531 -33.769531 5.46875 -34.21875 C 5.925781 -34.675781 6.476562 -34.90625 7.125 -34.90625 L 10.203125 -34.90625 C 11.390625 -34.90625 12.140625 -34.335938 12.453125 -33.203125 C 14.691406 -34.796875 17.773438 -35.59375 21.703125 -35.59375 C 24.941406 -35.59375 27.828125 -34.78125 30.359375 -33.15625 C 32.890625 -31.539062 34.882812 -29.382812 36.34375 -26.6875 C 37.8125 -24 38.546875 -21.035156 38.546875 -17.796875 C 38.546875 -14.554688 37.859375 -11.585938 36.484375 -8.890625 C 35.117188 -6.203125 33.210938 -4.046875 30.765625 -2.421875 C 28.328125 -0.804688 25.460938 0 22.171875 0 C 20.210938 0 18.421875 -0.285156 16.796875 -0.859375 C 15.179688 -1.429688 13.757812 -2.238281 12.53125 -3.28125 Z M 21.96875 -4.171875 C 24.164062 -4.171875 25.9375 -4.820312 27.28125 -6.125 C 28.625 -7.425781 29.601562 -9.125 30.21875 -11.21875 C 30.832031 -13.320312 31.140625 -15.515625 31.140625 -17.796875 C 31.140625 -20.078125 30.726562 -22.265625 29.90625 -24.359375 C 29.09375 -26.460938 27.96875 -28.175781 26.53125 -29.5 C 25.09375 -30.820312 23.484375 -31.484375 21.703125 -31.484375 C 19.140625 -31.484375 16.976562 -30.273438 15.21875 -27.859375 C 13.46875 -25.441406 12.59375 -21.972656 12.59375 -17.453125 C 12.59375 -14.941406 13.117188 -12.679688 14.171875 -10.671875 C 15.222656 -8.671875 16.476562 -7.085938 17.9375 -5.921875 C 19.394531 -4.753906 20.738281 -4.171875 21.96875 -4.171875 Z M 21.96875 -4.171875" transform="translate(391.664 475.179)"/></g></g></g><g fill="#0FF"><g><g><path d="M 15.40625 0.6875 C 12.476562 0.6875 10 -0.078125 7.96875 -1.609375 C 5.9375 -3.140625 4.382812 -5.25 3.3125 -7.9375 C 2.25 -10.632812 1.71875 -13.71875 1.71875 -17.1875 C 1.71875 -20.601562 2.34375 -23.703125 3.59375 -26.484375 C 4.84375 -29.273438 6.585938 -31.488281 8.828125 -33.125 C 11.066406 -34.769531 13.691406 -35.59375 16.703125 -35.59375 C 20.628906 -35.59375 23.890625 -34.757812 26.484375 -33.09375 C 29.085938 -31.425781 31.023438 -29.269531 32.296875 -26.625 C 33.578125 -23.976562 34.21875 -21.171875 34.21875 -18.203125 C 34.21875 -18.023438 34.21875 -17.84375 34.21875 -17.65625 C 34.539062 -14.601562 34.90625 -11.832031 35.3125 -9.34375 C 35.726562 -6.851562 36.140625 -4.789062 36.546875 -3.15625 C 36.597656 -3.007812 36.625 -2.820312 36.625 -2.59375 C 36.625 -1.226562 35.914062 -0.429688 34.5 -0.203125 L 30.59375 0.28125 C 29.320312 0.414062 28.523438 -0.109375 28.203125 -1.296875 C 28.015625 -2.023438 27.851562 -2.78125 27.71875 -3.5625 C 26.164062 -2.238281 24.363281 -1.195312 22.3125 -0.4375 C 20.257812 0.3125 17.957031 0.6875 15.40625 0.6875 Z M 15.40625 -3.421875 C 17.632812 -3.421875 19.476562 -4.160156 20.9375 -5.640625 C 22.40625 -7.128906 23.515625 -9.015625 24.265625 -11.296875 C 25.015625 -13.578125 25.390625 -15.925781 25.390625 -18.34375 C 25.390625 -18.34375 25.390625 -18.351562 25.390625 -18.375 C 25.390625 -18.394531 25.390625 -18.476562 25.390625 -18.625 C 25.347656 -18.851562 25.328125 -19.101562 25.328125 -19.375 C 25.328125 -19.601562 25.328125 -19.804688 25.328125 -19.984375 C 25.191406 -21.992188 24.78125 -23.875 24.09375 -25.625 C 23.40625 -27.382812 22.445312 -28.800781 21.21875 -29.875 C 19.988281 -30.945312 18.484375 -31.484375 16.703125 -31.484375 C 15.742188 -31.484375 14.785156 -30.785156 13.828125 -29.390625 C 12.867188 -28.003906 12.066406 -26.210938 11.421875 -24.015625 C 10.785156 -21.828125 10.46875 -19.550781 10.46875 -17.1875 C 10.46875 -14.8125 10.71875 -12.570312 11.21875 -10.46875 C 11.726562 -8.375 12.367188 -6.675781 13.140625 -5.375 C 13.921875 -4.070312 14.675781 -3.421875 15.40625 -3.421875 Z M 15.40625 -3.421875" transform="translate(432.252 475.179)"/></g></g></g><g><g><g><path d="M 26.078125 -9.859375 C 25.671875 -8.941406 25.171875 -8.484375 24.578125 -8.484375 C 23.984375 -8.484375 23.476562 -8.941406 23.0625 -9.859375 L 10.953125 -36.28125 L 10.953125 -2.265625 C 10.953125 -0.753906 10.195312 0 8.6875 0 L 5.6875 0 C 4.175781 0 3.421875 -0.753906 3.421875 -2.265625 L 3.421875 -49.765625 C 3.421875 -51.273438 4.175781 -52.03125 5.6875 -52.03125 L 8.28125 -52.03125 C 9.507812 -52.03125 10.398438 -51.457031 10.953125 -50.3125 L 24.4375 -22.109375 L 37.859375 -50.3125 C 38.359375 -51.457031 39.25 -52.03125 40.53125 -52.03125 L 43.125 -52.03125 C 44.632812 -52.03125 45.390625 -51.273438 45.390625 -49.765625 L 45.390625 -2.265625 C 45.390625 -0.753906 44.632812 0 43.125 0 L 40.109375 0 C 38.609375 0 37.859375 -0.753906 37.859375 -2.265625 L 37.859375 -36.078125 Z M 26.078125 -9.859375" transform="translate(306.055 475.179)"/></g></g></g><g><g><g><path d="M 15.40625 0.6875 C 12.476562 0.6875 10 -0.078125 7.96875 -1.609375 C 5.9375 -3.140625 4.382812 -5.25 3.3125 -7.9375 C 2.25 -10.632812 1.71875 -13.71875 1.71875 -17.1875 C 1.71875 -20.601562 2.34375 -23.703125 3.59375 -26.484375 C 4.84375 -29.273438 6.585938 -31.488281 8.828125 -33.125 C 11.066406 -34.769531 13.691406 -35.59375 16.703125 -35.59375 C 20.628906 -35.59375 23.890625 -34.757812 26.484375 -33.09375 C 29.085938 -31.425781 31.023438 -29.269531 32.296875 -26.625 C 33.578125 -23.976562 34.21875 -21.171875 34.21875 -18.203125 C 34.21875 -18.023438 34.21875 -17.84375 34.21875 -17.65625 C 34.539062 -14.601562 34.90625 -11.832031 35.3125 -9.34375 C 35.726562 -6.851562 36.140625 -4.789062 36.546875 -3.15625 C 36.597656 -3.007812 36.625 -2.820312 36.625 -2.59375 C 36.625 -1.226562 35.914062 -0.429688 34.5 -0.203125 L 30.59375 0.28125 C 29.320312 0.414062 28.523438 -0.109375 28.203125 -1.296875 C 28.015625 -2.023438 27.851562 -2.78125 27.71875 -3.5625 C 26.164062 -2.238281 24.363281 -1.195312 22.3125 -0.4375 C 20.257812 0.3125 17.957031 0.6875 15.40625 0.6875 Z M 15.40625 -3.421875 C 17.632812 -3.421875 19.476562 -4.160156 20.9375 -5.640625 C 22.40625 -7.128906 23.515625 -9.015625 24.265625 -11.296875 C 25.015625 -13.578125 25.390625 -15.925781 25.390625 -18.34375 C 25.390625 -18.34375 25.390625 -18.351562 25.390625 -18.375 C 25.390625 -18.394531 25.390625 -18.476562 25.390625 -18.625 C 25.347656 -18.851562 25.328125 -19.101562 25.328125 -19.375 C 25.328125 -19.601562 25.328125 -19.804688 25.328125 -19.984375 C 25.191406 -21.992188 24.78125 -23.875 24.09375 -25.625 C 23.40625 -27.382812 22.445312 -28.800781 21.21875 -29.875 C 19.988281 -30.945312 18.484375 -31.484375 16.703125 -31.484375 C 15.742188 -31.484375 14.785156 -30.785156 13.828125 -29.390625 C 12.867188 -28.003906 12.066406 -26.210938 11.421875 -24.015625 C 10.785156 -21.828125 10.46875 -19.550781 10.46875 -17.1875 C 10.46875 -14.8125 10.71875 -12.570312 11.21875 -10.46875 C 11.726562 -8.375 12.367188 -6.675781 13.140625 -5.375 C 13.921875 -4.070312 14.675781 -3.421875 15.40625 -3.421875 Z M 15.40625 -3.421875" transform="translate(354.857 475.179)"/></g></g></g><g><g><g><path d="M 12.53125 11.359375 C 12.53125 12.003906 12.300781 12.550781 11.84375 13 C 11.382812 13.457031 10.835938 13.6875 10.203125 13.6875 L 7.125 13.6875 C 6.476562 13.6875 5.925781 13.457031 5.46875 13 C 5.019531 12.550781 4.796875 12.003906 4.796875 11.359375 L 4.796875 -32.578125 C 4.796875 -33.222656 5.019531 -33.769531 5.46875 -34.21875 C 5.925781 -34.675781 6.476562 -34.90625 7.125 -34.90625 L 10.203125 -34.90625 C 11.390625 -34.90625 12.140625 -34.335938 12.453125 -33.203125 C 14.691406 -34.796875 17.773438 -35.59375 21.703125 -35.59375 C 24.941406 -35.59375 27.828125 -34.78125 30.359375 -33.15625 C 32.890625 -31.539062 34.882812 -29.382812 36.34375 -26.6875 C 37.8125 -24 38.546875 -21.035156 38.546875 -17.796875 C 38.546875 -14.554688 37.859375 -11.585938 36.484375 -8.890625 C 35.117188 -6.203125 33.210938 -4.046875 30.765625 -2.421875 C 28.328125 -0.804688 25.460938 0 22.171875 0 C 20.210938 0 18.421875 -0.285156 16.796875 -0.859375 C 15.179688 -1.429688 13.757812 -2.238281 12.53125 -3.28125 Z M 21.96875 -4.171875 C 24.164062 -4.171875 25.9375 -4.820312 27.28125 -6.125 C 28.625 -7.425781 29.601562 -9.125 30.21875 -11.21875 C 30.832031 -13.320312 31.140625 -15.515625 31.140625 -17.796875 C 31.140625 -20.078125 30.726562 -22.265625 29.90625 -24.359375 C 29.09375 -26.460938 27.96875 -28.175781 26.53125 -29.5 C 25.09375 -30.820312 23.484375 -31.484375 21.703125 -31.484375 C 19.140625 -31.484375 16.976562 -30.273438 15.21875 -27.859375 C 13.46875 -25.441406 12.59375 -21.972656 12.59375 -17.453125 C 12.59375 -14.941406 13.117188 -12.679688 14.171875 -10.671875 C 15.222656 -8.671875 16.476562 -7.085938 17.9375 -5.921875 C 19.394531 -4.753906 20.738281 -4.171875 21.96875 -4.171875 Z M 21.96875 -4.171875" transform="translate(393.803 475.179)"/></g></g></g><g><g><g><path d="M 15.40625 0.6875 C 12.476562 0.6875 10 -0.078125 7.96875 -1.609375 C 5.9375 -3.140625 4.382812 -5.25 3.3125 -7.9375 C 2.25 -10.632812 1.71875 -13.71875 1.71875 -17.1875 C 1.71875 -20.601562 2.34375 -23.703125 3.59375 -26.484375 C 4.84375 -29.273438 6.585938 -31.488281 8.828125 -33.125 C 11.066406 -34.769531 13.691406 -35.59375 16.703125 -35.59375 C 20.628906 -35.59375 23.890625 -34.757812 26.484375 -33.09375 C 29.085938 -31.425781 31.023438 -29.269531 32.296875 -26.625 C 33.578125 -23.976562 34.21875 -21.171875 34.21875 -18.203125 C 34.21875 -18.023438 34.21875 -17.84375 34.21875 -17.65625 C 34.539062 -14.601562 34.90625 -11.832031 35.3125 -9.34375 C 35.726562 -6.851562 36.140625 -4.789062 36.546875 -3.15625 C 36.597656 -3.007812 36.625 -2.820312 36.625 -2.59375 C 36.625 -1.226562 35.914062 -0.429688 34.5 -0.203125 L 30.59375 0.28125 C 29.320312 0.414062 28.523438 -0.109375 28.203125 -1.296875 C 28.015625 -2.023438 27.851562 -2.78125 27.71875 -3.5625 C 26.164062 -2.238281 24.363281 -1.195312 22.3125 -0.4375 C 20.257812 0.3125 17.957031 0.6875 15.40625 0.6875 Z M 15.40625 -3.421875 C 17.632812 -3.421875 19.476562 -4.160156 20.9375 -5.640625 C 22.40625 -7.128906 23.515625 -9.015625 24.265625 -11.296875 C 25.015625 -13.578125 25.390625 -15.925781 25.390625 -18.34375 C 25.390625 -18.34375 25.390625 -18.351562 25.390625 -18.375 C 25.390625 -18.394531 25.390625 -18.476562 25.390625 -18.625 C 25.347656 -18.851562 25.328125 -19.101562 25.328125 -19.375 C 25.328125 -19.601562 25.328125 -19.804688 25.328125 -19.984375 C 25.191406 -21.992188 24.78125 -23.875 24.09375 -25.625 C 23.40625 -27.382812 22.445312 -28.800781 21.21875 -29.875 C 19.988281 -30.945312 18.484375 -31.484375 16.703125 -31.484375 C 15.742188 -31.484375 14.785156 -30.785156 13.828125 -29.390625 C 12.867188 -28.003906 12.066406 -26.210938 11.421875 -24.015625 C 10.785156 -21.828125 10.46875 -19.550781 10.46875 -17.1875 C 10.46875 -14.8125 10.71875 -12.570312 11.21875 -10.46875 C 11.726562 -8.375 12.367188 -6.675781 13.140625 -5.375 C 13.921875 -4.070312 14.675781 -3.421875 15.40625 -3.421875 Z M 15.40625 -3.421875" transform="translate(434.391 475.179)"/></g></g></g><g fill="#F0F"><g><g><path d="M 26.078125 -9.859375 C 25.671875 -8.941406 25.171875 -8.484375 24.578125 -8.484375 C 23.984375 -8.484375 23.476562 -8.941406 23.0625 -9.859375 L 10.953125 -36.28125 L 10.953125 -2.265625 C 10.953125 -0.753906 10.195312 0 8.6875 0 L 5.6875 0 C 4.175781 0 3.421875 -0.753906 3.421875 -2.265625 L 3.421875 -49.765625 C 3.421875 -51.273438 4.175781 -52.03125 5.6875 -52.03125 L 8.28125 -52.03125 C 9.507812 -52.03125 10.398438 -51.457031 10.953125 -50.3125 L 24.4375 -22.109375 L 37.859375 -50.3125 C 38.359375 -51.457031 39.25 -52.03125 40.53125 -52.03125 L 43.125 -52.03125 C 44.632812 -52.03125 45.390625 -51.273438 45.390625 -49.765625 L 45.390625 -2.265625 C 45.390625 -0.753906 44.632812 0 43.125 0 L 40.109375 0 C 38.609375 0 37.859375 -0.753906 37.859375 -2.265625 L 37.859375 -36.078125 Z M 26.078125 -9.859375" transform="translate(279.509 547.925)"/></g></g></g><g fill="#F0F"><g><g><path d="M 15.40625 0.6875 C 12.476562 0.6875 10 -0.078125 7.96875 -1.609375 C 5.9375 -3.140625 4.382812 -5.25 3.3125 -7.9375 C 2.25 -10.632812 1.71875 -13.71875 1.71875 -17.1875 C 1.71875 -20.601562 2.34375 -23.703125 3.59375 -26.484375 C 4.84375 -29.273438 6.585938 -31.488281 8.828125 -33.125 C 11.066406 -34.769531 13.691406 -35.59375 16.703125 -35.59375 C 20.628906 -35.59375 23.890625 -34.757812 26.484375 -33.09375 C 29.085938 -31.425781 31.023438 -29.269531 32.296875 -26.625 C 33.578125 -23.976562 34.21875 -21.171875 34.21875 -18.203125 C 34.21875 -18.023438 34.21875 -17.84375 34.21875 -17.65625 C 34.539062 -14.601562 34.90625 -11.832031 35.3125 -9.34375 C 35.726562 -6.851562 36.140625 -4.789062 36.546875 -3.15625 C 36.597656 -3.007812 36.625 -2.820312 36.625 -2.59375 C 36.625 -1.226562 35.914062 -0.429688 34.5 -0.203125 L 30.59375 0.28125 C 29.320312 0.414062 28.523438 -0.109375 28.203125 -1.296875 C 28.015625 -2.023438 27.851562 -2.78125 27.71875 -3.5625 C 26.164062 -2.238281 24.363281 -1.195312 22.3125 -0.4375 C 20.257812 0.3125 17.957031 0.6875 15.40625 0.6875 Z M 15.40625 -3.421875 C 17.632812 -3.421875 19.476562 -4.160156 20.9375 -5.640625 C 22.40625 -7.128906 23.515625 -9.015625 24.265625 -11.296875 C 25.015625 -13.578125 25.390625 -15.925781 25.390625 -18.34375 C 25.390625 -18.34375 25.390625 -18.351562 25.390625 -18.375 C 25.390625 -18.394531 25.390625 -18.476562 25.390625 -18.625 C 25.347656 -18.851562 25.328125 -19.101562 25.328125 -19.375 C 25.328125 -19.601562 25.328125 -19.804688 25.328125 -19.984375 C 25.191406 -21.992188 24.78125 -23.875 24.09375 -25.625 C 23.40625 -27.382812 22.445312 -28.800781 21.21875 -29.875 C 19.988281 -30.945312 18.484375 -31.484375 16.703125 -31.484375 C 15.742188 -31.484375 14.785156 -30.785156 13.828125 -29.390625 C 12.867188 -28.003906 12.066406 -26.210938 11.421875 -24.015625 C 10.785156 -21.828125 10.46875 -19.550781 10.46875 -17.1875 C 10.46875 -14.8125 10.71875 -12.570312 11.21875 -10.46875 C 11.726562 -8.375 12.367188 -6.675781 13.140625 -5.375 C 13.921875 -4.070312 14.675781 -3.421875 15.40625 -3.421875 Z M 27.921875 -51.65625 C 28.648438 -51.65625 29.015625 -51.3125 29.015625 -50.625 C 29.015625 -50.257812 28.921875 -49.894531 28.734375 -49.53125 C 28.640625 -49.351562 28.351562 -48.910156 27.875 -48.203125 C 27.394531 -47.492188 26.847656 -46.679688 26.234375 -45.765625 C 25.617188 -44.859375 25.0625 -44.023438 24.5625 -43.265625 C 24.0625 -42.515625 23.742188 -42.023438 23.609375 -41.796875 C 23.328125 -41.335938 22.925781 -40.800781 22.40625 -40.1875 C 21.882812 -39.570312 21.414062 -39.265625 21 -39.265625 L 16.828125 -39.265625 C 16.273438 -39.265625 16 -39.585938 16 -40.234375 C 16 -40.734375 16.160156 -41.253906 16.484375 -41.796875 C 16.617188 -42.078125 16.890625 -42.566406 17.296875 -43.265625 C 17.710938 -43.972656 18.148438 -44.769531 18.609375 -45.65625 C 19.066406 -46.550781 19.488281 -47.363281 19.875 -48.09375 C 20.257812 -48.820312 20.519531 -49.328125 20.65625 -49.609375 C 20.976562 -50.148438 21.320312 -50.625 21.6875 -51.03125 C 22.050781 -51.445312 22.550781 -51.65625 23.1875 -51.65625 Z M 27.921875 -51.65625" transform="translate(328.31 547.925)"/></g></g></g><g fill="#F0F"><g><g><path d="M 7.53125 8.484375 C 7.03125 7.984375 6.78125 7.4375 6.78125 6.84375 C 6.78125 5.65625 7.460938 4.832031 8.828125 4.375 L 11.015625 3.703125 C 11.148438 3.648438 11.332031 3.625 11.5625 3.625 C 12.34375 3.625 12.960938 3.96875 13.421875 4.65625 C 14.609375 6.382812 15.597656 7.523438 16.390625 8.078125 C 17.191406 8.628906 18.234375 8.90625 19.515625 8.90625 C 21.972656 8.90625 23.894531 8.367188 25.28125 7.296875 C 26.675781 6.222656 27.375 4.566406 27.375 2.328125 L 27.375 -2.46875 C 26.1875 -1.457031 24.851562 -0.675781 23.375 -0.125 C 21.894531 0.414062 20.238281 0.6875 18.40625 0.6875 C 15.164062 0.6875 12.3125 -0.117188 9.84375 -1.734375 C 7.382812 -3.359375 5.46875 -5.570312 4.09375 -8.375 C 2.726562 -11.1875 2.046875 -14.347656 2.046875 -17.859375 C 2.046875 -21.328125 2.660156 -24.382812 3.890625 -27.03125 C 5.128906 -29.6875 6.898438 -31.773438 9.203125 -33.296875 C 11.503906 -34.828125 14.28125 -35.59375 17.53125 -35.59375 C 19.582031 -35.59375 21.425781 -35.34375 23.0625 -34.84375 C 24.707031 -34.34375 26.144531 -33.632812 27.375 -32.71875 C 27.425781 -33.351562 27.65625 -33.875 28.0625 -34.28125 C 28.476562 -34.695312 29.023438 -34.90625 29.703125 -34.90625 L 33.125 -34.90625 C 33.769531 -34.90625 34.316406 -34.675781 34.765625 -34.21875 C 35.222656 -33.769531 35.453125 -33.222656 35.453125 -32.578125 L 35.453125 2.328125 C 35.453125 4.421875 34.753906 6.265625 33.359375 7.859375 C 31.972656 9.460938 30.070312 10.71875 27.65625 11.625 C 25.238281 12.539062 22.523438 13 19.515625 13 C 14.628906 13 10.632812 11.492188 7.53125 8.484375 Z M 18.40625 -3.484375 C 19.820312 -3.484375 21.210938 -3.960938 22.578125 -4.921875 C 23.953125 -5.878906 25.082031 -7.394531 25.96875 -9.46875 C 26.863281 -11.550781 27.3125 -14.210938 27.3125 -17.453125 C 27.3125 -22.429688 26.46875 -26.003906 24.78125 -28.171875 C 23.09375 -30.335938 20.675781 -31.421875 17.53125 -31.421875 C 16.382812 -31.421875 15.238281 -30.925781 14.09375 -29.9375 C 12.957031 -28.957031 12.007812 -27.460938 11.25 -25.453125 C 10.5 -23.453125 10.125 -20.921875 10.125 -17.859375 C 10.125 -15.128906 10.410156 -12.675781 10.984375 -10.5 C 11.554688 -8.332031 12.445312 -6.617188 13.65625 -5.359375 C 14.863281 -4.109375 16.445312 -3.484375 18.40625 -3.484375 Z M 18.40625 -3.484375" transform="translate(367.256 547.925)"/></g></g></g><g fill="#F0F"><g><g><path d="M 14.921875 -43.609375 C 14.921875 -42.960938 14.691406 -42.410156 14.234375 -41.953125 C 13.773438 -41.503906 13.226562 -41.28125 12.59375 -41.28125 L 8.484375 -41.28125 C 7.847656 -41.28125 7.300781 -41.503906 6.84375 -41.953125 C 6.382812 -42.410156 6.15625 -42.960938 6.15625 -43.609375 L 6.15625 -47.640625 C 6.15625 -48.285156 6.382812 -48.832031 6.84375 -49.28125 C 7.300781 -49.738281 7.847656 -49.96875 8.484375 -49.96875 L 12.59375 -49.96875 C 13.226562 -49.96875 13.773438 -49.738281 14.234375 -49.28125 C 14.691406 -48.832031 14.921875 -48.285156 14.921875 -47.640625 Z M 14.921875 -2.328125 C 14.921875 -1.691406 14.691406 -1.144531 14.234375 -0.6875 C 13.773438 -0.226562 13.226562 0 12.59375 0 L 8.484375 0 C 7.847656 0 7.300781 -0.226562 6.84375 -0.6875 C 6.382812 -1.144531 6.15625 -1.691406 6.15625 -2.328125 L 6.15625 -32.578125 C 6.15625 -33.222656 6.382812 -33.769531 6.84375 -34.21875 C 7.300781 -34.675781 7.847656 -34.90625 8.484375 -34.90625 L 12.59375 -34.90625 C 13.226562 -34.90625 13.773438 -34.675781 14.234375 -34.21875 C 14.691406 -33.769531 14.921875 -33.222656 14.921875 -32.578125 Z M 14.921875 -2.328125" transform="translate(407.502 547.925)"/></g></g></g><g fill="#F0F"><g><g><path d="M 35.25 -25.53125 C 35.382812 -25.207031 35.453125 -24.910156 35.453125 -24.640625 C 35.453125 -24.046875 35.222656 -23.554688 34.765625 -23.171875 C 34.316406 -22.785156 33.769531 -22.546875 33.125 -22.453125 L 29.4375 -22.109375 C 28.882812 -22.066406 28.390625 -22.203125 27.953125 -22.515625 C 27.523438 -22.835938 27.242188 -23.273438 27.109375 -23.828125 C 26.421875 -26.109375 25.378906 -27.953125 23.984375 -29.359375 C 22.597656 -30.773438 20.925781 -31.484375 18.96875 -31.484375 C 17.457031 -31.484375 16.082031 -30.84375 14.84375 -29.5625 C 13.613281 -28.289062 12.632812 -26.582031 11.90625 -24.4375 C 11.175781 -22.289062 10.8125 -19.941406 10.8125 -17.390625 C 10.8125 -13.003906 11.585938 -9.578125 13.140625 -7.109375 C 14.691406 -4.648438 16.953125 -3.421875 19.921875 -3.421875 C 21.929688 -3.421875 23.550781 -4.171875 24.78125 -5.671875 C 26.007812 -7.179688 26.921875 -9.328125 27.515625 -12.109375 C 27.835938 -13.429688 28.632812 -14.050781 29.90625 -13.96875 L 33.8125 -13.625 C 34.457031 -13.570312 34.992188 -13.34375 35.421875 -12.9375 C 35.859375 -12.53125 36.078125 -12.03125 36.078125 -11.4375 C 36.078125 -11.25 36.03125 -11.019531 35.9375 -10.75 C 34.9375 -7.320312 33.039062 -4.554688 30.25 -2.453125 C 27.46875 -0.359375 24.023438 0.6875 19.921875 0.6875 C 14.265625 0.6875 9.867188 -0.941406 6.734375 -4.203125 C 3.609375 -7.472656 2.046875 -11.867188 2.046875 -17.390625 C 2.046875 -20.859375 2.765625 -23.957031 4.203125 -26.6875 C 5.640625 -29.425781 7.625 -31.59375 10.15625 -33.1875 C 12.695312 -34.789062 15.632812 -35.59375 18.96875 -35.59375 C 21.46875 -35.59375 23.800781 -35.132812 25.96875 -34.21875 C 28.144531 -33.3125 30.039062 -32.101562 31.65625 -30.59375 C 33.28125 -29.09375 34.476562 -27.40625 35.25 -25.53125 Z M 35.25 -25.53125" transform="translate(428.583 547.925)"/></g></g></g><g fill="#F0F"><g><g><path d="M 18.34375 -35.59375 C 21.71875 -35.59375 24.679688 -34.78125 27.234375 -33.15625 C 29.796875 -31.539062 31.796875 -29.34375 33.234375 -26.5625 C 34.671875 -23.78125 35.390625 -20.628906 35.390625 -17.109375 C 35.390625 -13.734375 34.710938 -10.695312 33.359375 -8 C 32.015625 -5.3125 30.132812 -3.191406 27.71875 -1.640625 C 25.300781 -0.0859375 22.472656 0.6875 19.234375 0.6875 C 15.804688 0.6875 12.800781 -0.0976562 10.21875 -1.671875 C 7.644531 -3.242188 5.640625 -5.398438 4.203125 -8.140625 C 2.765625 -10.878906 2.046875 -13.984375 2.046875 -17.453125 C 2.046875 -20.960938 2.71875 -24.085938 4.0625 -26.828125 C 5.414062 -29.566406 7.3125 -31.710938 9.75 -33.265625 C 12.195312 -34.816406 15.0625 -35.59375 18.34375 -35.59375 Z M 18.34375 -31.484375 C 16.5625 -31.484375 15.03125 -30.878906 13.75 -29.671875 C 12.476562 -28.460938 11.5 -26.796875 10.8125 -24.671875 C 10.125 -22.554688 9.78125 -20.148438 9.78125 -17.453125 C 9.78125 -12.617188 10.691406 -9.070312 12.515625 -6.8125 C 14.347656 -4.550781 16.585938 -3.421875 19.234375 -3.421875 C 21.285156 -3.421875 22.925781 -4.082031 24.15625 -5.40625 C 25.394531 -6.726562 26.285156 -8.4375 26.828125 -10.53125 C 27.378906 -12.632812 27.65625 -14.828125 27.65625 -17.109375 C 27.65625 -21.304688 26.832031 -24.75 25.1875 -27.4375 C 23.539062 -30.132812 21.257812 -31.484375 18.34375 -31.484375 Z M 18.34375 -31.484375" transform="translate(466.708 547.925)"/></g></g></g><g fill="#0FF"><g><g><path d="M 26.078125 -9.859375 C 25.671875 -8.941406 25.171875 -8.484375 24.578125 -8.484375 C 23.984375 -8.484375 23.476562 -8.941406 23.0625 -9.859375 L 10.953125 -36.28125 L 10.953125 -2.265625 C 10.953125 -0.753906 10.195312 0 8.6875 0 L 5.6875 0 C 4.175781 0 3.421875 -0.753906 3.421875 -2.265625 L 3.421875 -49.765625 C 3.421875 -51.273438 4.175781 -52.03125 5.6875 -52.03125 L 8.28125 -52.03125 C 9.507812 -52.03125 10.398438 -51.457031 10.953125 -50.3125 L 24.4375 -22.109375 L 37.859375 -50.3125 C 38.359375 -51.457031 39.25 -52.03125 40.53125 -52.03125 L 43.125 -52.03125 C 44.632812 -52.03125 45.390625 -51.273438 45.390625 -49.765625 L 45.390625 -2.265625 C 45.390625 -0.753906 44.632812 0 43.125 0 L 40.109375 0 C 38.609375 0 37.859375 -0.753906 37.859375 -2.265625 L 37.859375 -36.078125 Z M 26.078125 -9.859375" transform="translate(275.23 547.925)"/></g></g></g><g fill="#0FF"><g><g><path d="M 15.40625 0.6875 C 12.476562 0.6875 10 -0.078125 7.96875 -1.609375 C 5.9375 -3.140625 4.382812 -5.25 3.3125 -7.9375 C 2.25 -10.632812 1.71875 -13.71875 1.71875 -17.1875 C 1.71875 -20.601562 2.34375 -23.703125 3.59375 -26.484375 C 4.84375 -29.273438 6.585938 -31.488281 8.828125 -33.125 C 11.066406 -34.769531 13.691406 -35.59375 16.703125 -35.59375 C 20.628906 -35.59375 23.890625 -34.757812 26.484375 -33.09375 C 29.085938 -31.425781 31.023438 -29.269531 32.296875 -26.625 C 33.578125 -23.976562 34.21875 -21.171875 34.21875 -18.203125 C 34.21875 -18.023438 34.21875 -17.84375 34.21875 -17.65625 C 34.539062 -14.601562 34.90625 -11.832031 35.3125 -9.34375 C 35.726562 -6.851562 36.140625 -4.789062 36.546875 -3.15625 C 36.597656 -3.007812 36.625 -2.820312 36.625 -2.59375 C 36.625 -1.226562 35.914062 -0.429688 34.5 -0.203125 L 30.59375 0.28125 C 29.320312 0.414062 28.523438 -0.109375 28.203125 -1.296875 C 28.015625 -2.023438 27.851562 -2.78125 27.71875 -3.5625 C 26.164062 -2.238281 24.363281 -1.195312 22.3125 -0.4375 C 20.257812 0.3125 17.957031 0.6875 15.40625 0.6875 Z M 15.40625 -3.421875 C 17.632812 -3.421875 19.476562 -4.160156 20.9375 -5.640625 C 22.40625 -7.128906 23.515625 -9.015625 24.265625 -11.296875 C 25.015625 -13.578125 25.390625 -15.925781 25.390625 -18.34375 C 25.390625 -18.34375 25.390625 -18.351562 25.390625 -18.375 C 25.390625 -18.394531 25.390625 -18.476562 25.390625 -18.625 C 25.347656 -18.851562 25.328125 -19.101562 25.328125 -19.375 C 25.328125 -19.601562 25.328125 -19.804688 25.328125 -19.984375 C 25.191406 -21.992188 24.78125 -23.875 24.09375 -25.625 C 23.40625 -27.382812 22.445312 -28.800781 21.21875 -29.875 C 19.988281 -30.945312 18.484375 -31.484375 16.703125 -31.484375 C 15.742188 -31.484375 14.785156 -30.785156 13.828125 -29.390625 C 12.867188 -28.003906 12.066406 -26.210938 11.421875 -24.015625 C 10.785156 -21.828125 10.46875 -19.550781 10.46875 -17.1875 C 10.46875 -14.8125 10.71875 -12.570312 11.21875 -10.46875 C 11.726562 -8.375 12.367188 -6.675781 13.140625 -5.375 C 13.921875 -4.070312 14.675781 -3.421875 15.40625 -3.421875 Z M 27.921875 -51.65625 C 28.648438 -51.65625 29.015625 -51.3125 29.015625 -50.625 C 29.015625 -50.257812 28.921875 -49.894531 28.734375 -49.53125 C 28.640625 -49.351562 28.351562 -48.910156 27.875 -48.203125 C 27.394531 -47.492188 26.847656 -46.679688 26.234375 -45.765625 C 25.617188 -44.859375 25.0625 -44.023438 24.5625 -43.265625 C 24.0625 -42.515625 23.742188 -42.023438 23.609375 -41.796875 C 23.328125 -41.335938 22.925781 -40.800781 22.40625 -40.1875 C 21.882812 -39.570312 21.414062 -39.265625 21 -39.265625 L 16.828125 -39.265625 C 16.273438 -39.265625 16 -39.585938 16 -40.234375 C 16 -40.734375 16.160156 -41.253906 16.484375 -41.796875 C 16.617188 -42.078125 16.890625 -42.566406 17.296875 -43.265625 C 17.710938 -43.972656 18.148438 -44.769531 18.609375 -45.65625 C 19.066406 -46.550781 19.488281 -47.363281 19.875 -48.09375 C 20.257812 -48.820312 20.519531 -49.328125 20.65625 -49.609375 C 20.976562 -50.148438 21.320312 -50.625 21.6875 -51.03125 C 22.050781 -51.445312 22.550781 -51.65625 23.1875 -51.65625 Z M 27.921875 -51.65625" transform="translate(324.032 547.925)"/></g></g></g><g fill="#0FF"><g><g><path d="M 7.53125 8.484375 C 7.03125 7.984375 6.78125 7.4375 6.78125 6.84375 C 6.78125 5.65625 7.460938 4.832031 8.828125 4.375 L 11.015625 3.703125 C 11.148438 3.648438 11.332031 3.625 11.5625 3.625 C 12.34375 3.625 12.960938 3.96875 13.421875 4.65625 C 14.609375 6.382812 15.597656 7.523438 16.390625 8.078125 C 17.191406 8.628906 18.234375 8.90625 19.515625 8.90625 C 21.972656 8.90625 23.894531 8.367188 25.28125 7.296875 C 26.675781 6.222656 27.375 4.566406 27.375 2.328125 L 27.375 -2.46875 C 26.1875 -1.457031 24.851562 -0.675781 23.375 -0.125 C 21.894531 0.414062 20.238281 0.6875 18.40625 0.6875 C 15.164062 0.6875 12.3125 -0.117188 9.84375 -1.734375 C 7.382812 -3.359375 5.46875 -5.570312 4.09375 -8.375 C 2.726562 -11.1875 2.046875 -14.347656 2.046875 -17.859375 C 2.046875 -21.328125 2.660156 -24.382812 3.890625 -27.03125 C 5.128906 -29.6875 6.898438 -31.773438 9.203125 -33.296875 C 11.503906 -34.828125 14.28125 -35.59375 17.53125 -35.59375 C 19.582031 -35.59375 21.425781 -35.34375 23.0625 -34.84375 C 24.707031 -34.34375 26.144531 -33.632812 27.375 -32.71875 C 27.425781 -33.351562 27.65625 -33.875 28.0625 -34.28125 C 28.476562 -34.695312 29.023438 -34.90625 29.703125 -34.90625 L 33.125 -34.90625 C 33.769531 -34.90625 34.316406 -34.675781 34.765625 -34.21875 C 35.222656 -33.769531 35.453125 -33.222656 35.453125 -32.578125 L 35.453125 2.328125 C 35.453125 4.421875 34.753906 6.265625 33.359375 7.859375 C 31.972656 9.460938 30.070312 10.71875 27.65625 11.625 C 25.238281 12.539062 22.523438 13 19.515625 13 C 14.628906 13 10.632812 11.492188 7.53125 8.484375 Z M 18.40625 -3.484375 C 19.820312 -3.484375 21.210938 -3.960938 22.578125 -4.921875 C 23.953125 -5.878906 25.082031 -7.394531 25.96875 -9.46875 C 26.863281 -11.550781 27.3125 -14.210938 27.3125 -17.453125 C 27.3125 -22.429688 26.46875 -26.003906 24.78125 -28.171875 C 23.09375 -30.335938 20.675781 -31.421875 17.53125 -31.421875 C 16.382812 -31.421875 15.238281 -30.925781 14.09375 -29.9375 C 12.957031 -28.957031 12.007812 -27.460938 11.25 -25.453125 C 10.5 -23.453125 10.125 -20.921875 10.125 -17.859375 C 10.125 -15.128906 10.410156 -12.675781 10.984375 -10.5 C 11.554688 -8.332031 12.445312 -6.617188 13.65625 -5.359375 C 14.863281 -4.109375 16.445312 -3.484375 18.40625 -3.484375 Z M 18.40625 -3.484375" transform="translate(362.978 547.925)"/></g></g></g><g fill="#0FF"><g><g><path d="M 14.921875 -43.609375 C 14.921875 -42.960938 14.691406 -42.410156 14.234375 -41.953125 C 13.773438 -41.503906 13.226562 -41.28125 12.59375 -41.28125 L 8.484375 -41.28125 C 7.847656 -41.28125 7.300781 -41.503906 6.84375 -41.953125 C 6.382812 -42.410156 6.15625 -42.960938 6.15625 -43.609375 L 6.15625 -47.640625 C 6.15625 -48.285156 6.382812 -48.832031 6.84375 -49.28125 C 7.300781 -49.738281 7.847656 -49.96875 8.484375 -49.96875 L 12.59375 -49.96875 C 13.226562 -49.96875 13.773438 -49.738281 14.234375 -49.28125 C 14.691406 -48.832031 14.921875 -48.285156 14.921875 -47.640625 Z M 14.921875 -2.328125 C 14.921875 -1.691406 14.691406 -1.144531 14.234375 -0.6875 C 13.773438 -0.226562 13.226562 0 12.59375 0 L 8.484375 0 C 7.847656 0 7.300781 -0.226562 6.84375 -0.6875 C 6.382812 -1.144531 6.15625 -1.691406 6.15625 -2.328125 L 6.15625 -32.578125 C 6.15625 -33.222656 6.382812 -33.769531 6.84375 -34.21875 C 7.300781 -34.675781 7.847656 -34.90625 8.484375 -34.90625 L 12.59375 -34.90625 C 13.226562 -34.90625 13.773438 -34.675781 14.234375 -34.21875 C 14.691406 -33.769531 14.921875 -33.222656 14.921875 -32.578125 Z M 14.921875 -2.328125" transform="translate(403.224 547.925)"/></g></g></g><g fill="#0FF"><g><g><path d="M 35.25 -25.53125 C 35.382812 -25.207031 35.453125 -24.910156 35.453125 -24.640625 C 35.453125 -24.046875 35.222656 -23.554688 34.765625 -23.171875 C 34.316406 -22.785156 33.769531 -22.546875 33.125 -22.453125 L 29.4375 -22.109375 C 28.882812 -22.066406 28.390625 -22.203125 27.953125 -22.515625 C 27.523438 -22.835938 27.242188 -23.273438 27.109375 -23.828125 C 26.421875 -26.109375 25.378906 -27.953125 23.984375 -29.359375 C 22.597656 -30.773438 20.925781 -31.484375 18.96875 -31.484375 C 17.457031 -31.484375 16.082031 -30.84375 14.84375 -29.5625 C 13.613281 -28.289062 12.632812 -26.582031 11.90625 -24.4375 C 11.175781 -22.289062 10.8125 -19.941406 10.8125 -17.390625 C 10.8125 -13.003906 11.585938 -9.578125 13.140625 -7.109375 C 14.691406 -4.648438 16.953125 -3.421875 19.921875 -3.421875 C 21.929688 -3.421875 23.550781 -4.171875 24.78125 -5.671875 C 26.007812 -7.179688 26.921875 -9.328125 27.515625 -12.109375 C 27.835938 -13.429688 28.632812 -14.050781 29.90625 -13.96875 L 33.8125 -13.625 C 34.457031 -13.570312 34.992188 -13.34375 35.421875 -12.9375 C 35.859375 -12.53125 36.078125 -12.03125 36.078125 -11.4375 C 36.078125 -11.25 36.03125 -11.019531 35.9375 -10.75 C 34.9375 -7.320312 33.039062 -4.554688 30.25 -2.453125 C 27.46875 -0.359375 24.023438 0.6875 19.921875 0.6875 C 14.265625 0.6875 9.867188 -0.941406 6.734375 -4.203125 C 3.609375 -7.472656 2.046875 -11.867188 2.046875 -17.390625 C 2.046875 -20.859375 2.765625 -23.957031 4.203125 -26.6875 C 5.640625 -29.425781 7.625 -31.59375 10.15625 -33.1875 C 12.695312 -34.789062 15.632812 -35.59375 18.96875 -35.59375 C 21.46875 -35.59375 23.800781 -35.132812 25.96875 -34.21875 C 28.144531 -33.3125 30.039062 -32.101562 31.65625 -30.59375 C 33.28125 -29.09375 34.476562 -27.40625 35.25 -25.53125 Z M 35.25 -25.53125" transform="translate(424.305 547.925)"/></g></g></g><g fill="#0FF"><g><g><path d="M 18.34375 -35.59375 C 21.71875 -35.59375 24.679688 -34.78125 27.234375 -33.15625 C 29.796875 -31.539062 31.796875 -29.34375 33.234375 -26.5625 C 34.671875 -23.78125 35.390625 -20.628906 35.390625 -17.109375 C 35.390625 -13.734375 34.710938 -10.695312 33.359375 -8 C 32.015625 -5.3125 30.132812 -3.191406 27.71875 -1.640625 C 25.300781 -0.0859375 22.472656 0.6875 19.234375 0.6875 C 15.804688 0.6875 12.800781 -0.0976562 10.21875 -1.671875 C 7.644531 -3.242188 5.640625 -5.398438 4.203125 -8.140625 C 2.765625 -10.878906 2.046875 -13.984375 2.046875 -17.453125 C 2.046875 -20.960938 2.71875 -24.085938 4.0625 -26.828125 C 5.414062 -29.566406 7.3125 -31.710938 9.75 -33.265625 C 12.195312 -34.816406 15.0625 -35.59375 18.34375 -35.59375 Z M 18.34375 -31.484375 C 16.5625 -31.484375 15.03125 -30.878906 13.75 -29.671875 C 12.476562 -28.460938 11.5 -26.796875 10.8125 -24.671875 C 10.125 -22.554688 9.78125 -20.148438 9.78125 -17.453125 C 9.78125 -12.617188 10.691406 -9.070312 12.515625 -6.8125 C 14.347656 -4.550781 16.585938 -3.421875 19.234375 -3.421875 C 21.285156 -3.421875 22.925781 -4.082031 24.15625 -5.40625 C 25.394531 -6.726562 26.285156 -8.4375 26.828125 -10.53125 C 27.378906 -12.632812 27.65625 -14.828125 27.65625 -17.109375 C 27.65625 -21.304688 26.832031 -24.75 25.1875 -27.4375 C 23.539062 -30.132812 21.257812 -31.484375 18.34375 -31.484375 Z M 18.34375 -31.484375" transform="translate(462.43 547.925)"/></g></g></g><g><g><g><path d="M 26.078125 -9.859375 C 25.671875 -8.941406 25.171875 -8.484375 24.578125 -8.484375 C 23.984375 -8.484375 23.476562 -8.941406 23.0625 -9.859375 L 10.953125 -36.28125 L 10.953125 -2.265625 C 10.953125 -0.753906 10.195312 0 8.6875 0 L 5.6875 0 C 4.175781 0 3.421875 -0.753906 3.421875 -2.265625 L 3.421875 -49.765625 C 3.421875 -51.273438 4.175781 -52.03125 5.6875 -52.03125 L 8.28125 -52.03125 C 9.507812 -52.03125 10.398438 -51.457031 10.953125 -50.3125 L 24.4375 -22.109375 L 37.859375 -50.3125 C 38.359375 -51.457031 39.25 -52.03125 40.53125 -52.03125 L 43.125 -52.03125 C 44.632812 -52.03125 45.390625 -51.273438 45.390625 -49.765625 L 45.390625 -2.265625 C 45.390625 -0.753906 44.632812 0 43.125 0 L 40.109375 0 C 38.609375 0 37.859375 -0.753906 37.859375 -2.265625 L 37.859375 -36.078125 Z M 26.078125 -9.859375" transform="translate(277.37 547.925)"/></g></g></g><g><g><g><path d="M 15.40625 0.6875 C 12.476562 0.6875 10 -0.078125 7.96875 -1.609375 C 5.9375 -3.140625 4.382812 -5.25 3.3125 -7.9375 C 2.25 -10.632812 1.71875 -13.71875 1.71875 -17.1875 C 1.71875 -20.601562 2.34375 -23.703125 3.59375 -26.484375 C 4.84375 -29.273438 6.585938 -31.488281 8.828125 -33.125 C 11.066406 -34.769531 13.691406 -35.59375 16.703125 -35.59375 C 20.628906 -35.59375 23.890625 -34.757812 26.484375 -33.09375 C 29.085938 -31.425781 31.023438 -29.269531 32.296875 -26.625 C 33.578125 -23.976562 34.21875 -21.171875 34.21875 -18.203125 C 34.21875 -18.023438 34.21875 -17.84375 34.21875 -17.65625 C 34.539062 -14.601562 34.90625 -11.832031 35.3125 -9.34375 C 35.726562 -6.851562 36.140625 -4.789062 36.546875 -3.15625 C 36.597656 -3.007812 36.625 -2.820312 36.625 -2.59375 C 36.625 -1.226562 35.914062 -0.429688 34.5 -0.203125 L 30.59375 0.28125 C 29.320312 0.414062 28.523438 -0.109375 28.203125 -1.296875 C 28.015625 -2.023438 27.851562 -2.78125 27.71875 -3.5625 C 26.164062 -2.238281 24.363281 -1.195312 22.3125 -0.4375 C 20.257812 0.3125 17.957031 0.6875 15.40625 0.6875 Z M 15.40625 -3.421875 C 17.632812 -3.421875 19.476562 -4.160156 20.9375 -5.640625 C 22.40625 -7.128906 23.515625 -9.015625 24.265625 -11.296875 C 25.015625 -13.578125 25.390625 -15.925781 25.390625 -18.34375 C 25.390625 -18.34375 25.390625 -18.351562 25.390625 -18.375 C 25.390625 -18.394531 25.390625 -18.476562 25.390625 -18.625 C 25.347656 -18.851562 25.328125 -19.101562 25.328125 -19.375 C 25.328125 -19.601562 25.328125 -19.804688 25.328125 -19.984375 C 25.191406 -21.992188 24.78125 -23.875 24.09375 -25.625 C 23.40625 -27.382812 22.445312 -28.800781 21.21875 -29.875 C 19.988281 -30.945312 18.484375 -31.484375 16.703125 -31.484375 C 15.742188 -31.484375 14.785156 -30.785156 13.828125 -29.390625 C 12.867188 -28.003906 12.066406 -26.210938 11.421875 -24.015625 C 10.785156 -21.828125 10.46875 -19.550781 10.46875 -17.1875 C 10.46875 -14.8125 10.71875 -12.570312 11.21875 -10.46875 C 11.726562 -8.375 12.367188 -6.675781 13.140625 -5.375 C 13.921875 -4.070312 14.675781 -3.421875 15.40625 -3.421875 Z M 27.921875 -51.65625 C 28.648438 -51.65625 29.015625 -51.3125 29.015625 -50.625 C 29.015625 -50.257812 28.921875 -49.894531 28.734375 -49.53125 C 28.640625 -49.351562 28.351562 -48.910156 27.875 -48.203125 C 27.394531 -47.492188 26.847656 -46.679688 26.234375 -45.765625 C 25.617188 -44.859375 25.0625 -44.023438 24.5625 -43.265625 C 24.0625 -42.515625 23.742188 -42.023438 23.609375 -41.796875 C 23.328125 -41.335938 22.925781 -40.800781 22.40625 -40.1875 C 21.882812 -39.570312 21.414062 -39.265625 21 -39.265625 L 16.828125 -39.265625 C 16.273438 -39.265625 16 -39.585938 16 -40.234375 C 16 -40.734375 16.160156 -41.253906 16.484375 -41.796875 C 16.617188 -42.078125 16.890625 -42.566406 17.296875 -43.265625 C 17.710938 -43.972656 18.148438 -44.769531 18.609375 -45.65625 C 19.066406 -46.550781 19.488281 -47.363281 19.875 -48.09375 C 20.257812 -48.820312 20.519531 -49.328125 20.65625 -49.609375 C 20.976562 -50.148438 21.320312 -50.625 21.6875 -51.03125 C 22.050781 -51.445312 22.550781 -51.65625 23.1875 -51.65625 Z M 27.921875 -51.65625" transform="translate(326.171 547.925)"/></g></g></g><g><g><g><path d="M 7.53125 8.484375 C 7.03125 7.984375 6.78125 7.4375 6.78125 6.84375 C 6.78125 5.65625 7.460938 4.832031 8.828125 4.375 L 11.015625 3.703125 C 11.148438 3.648438 11.332031 3.625 11.5625 3.625 C 12.34375 3.625 12.960938 3.96875 13.421875 4.65625 C 14.609375 6.382812 15.597656 7.523438 16.390625 8.078125 C 17.191406 8.628906 18.234375 8.90625 19.515625 8.90625 C 21.972656 8.90625 23.894531 8.367188 25.28125 7.296875 C 26.675781 6.222656 27.375 4.566406 27.375 2.328125 L 27.375 -2.46875 C 26.1875 -1.457031 24.851562 -0.675781 23.375 -0.125 C 21.894531 0.414062 20.238281 0.6875 18.40625 0.6875 C 15.164062 0.6875 12.3125 -0.117188 9.84375 -1.734375 C 7.382812 -3.359375 5.46875 -5.570312 4.09375 -8.375 C 2.726562 -11.1875 2.046875 -14.347656 2.046875 -17.859375 C 2.046875 -21.328125 2.660156 -24.382812 3.890625 -27.03125 C 5.128906 -29.6875 6.898438 -31.773438 9.203125 -33.296875 C 11.503906 -34.828125 14.28125 -35.59375 17.53125 -35.59375 C 19.582031 -35.59375 21.425781 -35.34375 23.0625 -34.84375 C 24.707031 -34.34375 26.144531 -33.632812 27.375 -32.71875 C 27.425781 -33.351562 27.65625 -33.875 28.0625 -34.28125 C 28.476562 -34.695312 29.023438 -34.90625 29.703125 -34.90625 L 33.125 -34.90625 C 33.769531 -34.90625 34.316406 -34.675781 34.765625 -34.21875 C 35.222656 -33.769531 35.453125 -33.222656 35.453125 -32.578125 L 35.453125 2.328125 C 35.453125 4.421875 34.753906 6.265625 33.359375 7.859375 C 31.972656 9.460938 30.070312 10.71875 27.65625 11.625 C 25.238281 12.539062 22.523438 13 19.515625 13 C 14.628906 13 10.632812 11.492188 7.53125 8.484375 Z M 18.40625 -3.484375 C 19.820312 -3.484375 21.210938 -3.960938 22.578125 -4.921875 C 23.953125 -5.878906 25.082031 -7.394531 25.96875 -9.46875 C 26.863281 -11.550781 27.3125 -14.210938 27.3125 -17.453125 C 27.3125 -22.429688 26.46875 -26.003906 24.78125 -28.171875 C 23.09375 -30.335938 20.675781 -31.421875 17.53125 -31.421875 C 16.382812 -31.421875 15.238281 -30.925781 14.09375 -29.9375 C 12.957031 -28.957031 12.007812 -27.460938 11.25 -25.453125 C 10.5 -23.453125 10.125 -20.921875 10.125 -17.859375 C 10.125 -15.128906 10.410156 -12.675781 10.984375 -10.5 C 11.554688 -8.332031 12.445312 -6.617188 13.65625 -5.359375 C 14.863281 -4.109375 16.445312 -3.484375 18.40625 -3.484375 Z M 18.40625 -3.484375" transform="translate(365.117 547.925)"/></g></g></g><g><g><g><path d="M 14.921875 -43.609375 C 14.921875 -42.960938 14.691406 -42.410156 14.234375 -41.953125 C 13.773438 -41.503906 13.226562 -41.28125 12.59375 -41.28125 L 8.484375 -41.28125 C 7.847656 -41.28125 7.300781 -41.503906 6.84375 -41.953125 C 6.382812 -42.410156 6.15625 -42.960938 6.15625 -43.609375 L 6.15625 -47.640625 C 6.15625 -48.285156 6.382812 -48.832031 6.84375 -49.28125 C 7.300781 -49.738281 7.847656 -49.96875 8.484375 -49.96875 L 12.59375 -49.96875 C 13.226562 -49.96875 13.773438 -49.738281 14.234375 -49.28125 C 14.691406 -48.832031 14.921875 -48.285156 14.921875 -47.640625 Z M 14.921875 -2.328125 C 14.921875 -1.691406 14.691406 -1.144531 14.234375 -0.6875 C 13.773438 -0.226562 13.226562 0 12.59375 0 L 8.484375 0 C 7.847656 0 7.300781 -0.226562 6.84375 -0.6875 C 6.382812 -1.144531 6.15625 -1.691406 6.15625 -2.328125 L 6.15625 -32.578125 C 6.15625 -33.222656 6.382812 -33.769531 6.84375 -34.21875 C 7.300781 -34.675781 7.847656 -34.90625 8.484375 -34.90625 L 12.59375 -34.90625 C 13.226562 -34.90625 13.773438 -34.675781 14.234375 -34.21875 C 14.691406 -33.769531 14.921875 -33.222656 14.921875 -32.578125 Z M 14.921875 -2.328125" transform="translate(405.363 547.925)"/></g></g></g><g><g><g><path d="M 35.25 -25.53125 C 35.382812 -25.207031 35.453125 -24.910156 35.453125 -24.640625 C 35.453125 -24.046875 35.222656 -23.554688 34.765625 -23.171875 C 34.316406 -22.785156 33.769531 -22.546875 33.125 -22.453125 L 29.4375 -22.109375 C 28.882812 -22.066406 28.390625 -22.203125 27.953125 -22.515625 C 27.523438 -22.835938 27.242188 -23.273438 27.109375 -23.828125 C 26.421875 -26.109375 25.378906 -27.953125 23.984375 -29.359375 C 22.597656 -30.773438 20.925781 -31.484375 18.96875 -31.484375 C 17.457031 -31.484375 16.082031 -30.84375 14.84375 -29.5625 C 13.613281 -28.289062 12.632812 -26.582031 11.90625 -24.4375 C 11.175781 -22.289062 10.8125 -19.941406 10.8125 -17.390625 C 10.8125 -13.003906 11.585938 -9.578125 13.140625 -7.109375 C 14.691406 -4.648438 16.953125 -3.421875 19.921875 -3.421875 C 21.929688 -3.421875 23.550781 -4.171875 24.78125 -5.671875 C 26.007812 -7.179688 26.921875 -9.328125 27.515625 -12.109375 C 27.835938 -13.429688 28.632812 -14.050781 29.90625 -13.96875 L 33.8125 -13.625 C 34.457031 -13.570312 34.992188 -13.34375 35.421875 -12.9375 C 35.859375 -12.53125 36.078125 -12.03125 36.078125 -11.4375 C 36.078125 -11.25 36.03125 -11.019531 35.9375 -10.75 C 34.9375 -7.320312 33.039062 -4.554688 30.25 -2.453125 C 27.46875 -0.359375 24.023438 0.6875 19.921875 0.6875 C 14.265625 0.6875 9.867188 -0.941406 6.734375 -4.203125 C 3.609375 -7.472656 2.046875 -11.867188 2.046875 -17.390625 C 2.046875 -20.859375 2.765625 -23.957031 4.203125 -26.6875 C 5.640625 -29.425781 7.625 -31.59375 10.15625 -33.1875 C 12.695312 -34.789062 15.632812 -35.59375 18.96875 -35.59375 C 21.46875 -35.59375 23.800781 -35.132812 25.96875 -34.21875 C 28.144531 -33.3125 30.039062 -32.101562 31.65625 -30.59375 C 33.28125 -29.09375 34.476562 -27.40625 35.25 -25.53125 Z M 35.25 -25.53125" transform="translate(426.444 547.925)"/></g></g></g><g><g><g><path d="M 18.34375 -35.59375 C 21.71875 -35.59375 24.679688 -34.78125 27.234375 -33.15625 C 29.796875 -31.539062 31.796875 -29.34375 33.234375 -26.5625 C 34.671875 -23.78125 35.390625 -20.628906 35.390625 -17.109375 C 35.390625 -13.734375 34.710938 -10.695312 33.359375 -8 C 32.015625 -5.3125 30.132812 -3.191406 27.71875 -1.640625 C 25.300781 -0.0859375 22.472656 0.6875 19.234375 0.6875 C 15.804688 0.6875 12.800781 -0.0976562 10.21875 -1.671875 C 7.644531 -3.242188 5.640625 -5.398438 4.203125 -8.140625 C 2.765625 -10.878906 2.046875 -13.984375 2.046875 -17.453125 C 2.046875 -20.960938 2.71875 -24.085938 4.0625 -26.828125 C 5.414062 -29.566406 7.3125 -31.710938 9.75 -33.265625 C 12.195312 -34.816406 15.0625 -35.59375 18.34375 -35.59375 Z M 18.34375 -31.484375 C 16.5625 -31.484375 15.03125 -30.878906 13.75 -29.671875 C 12.476562 -28.460938 11.5 -26.796875 10.8125 -24.671875 C 10.125 -22.554688 9.78125 -20.148438 9.78125 -17.453125 C 9.78125 -12.617188 10.691406 -9.070312 12.515625 -6.8125 C 14.347656 -4.550781 16.585938 -3.421875 19.234375 -3.421875 C 21.285156 -3.421875 22.925781 -4.082031 24.15625 -5.40625 C 25.394531 -6.726562 26.285156 -8.4375 26.828125 -10.53125 C 27.378906 -12.632812 27.65625 -14.828125 27.65625 -17.109375 C 27.65625 -21.304688 26.832031 -24.75 25.1875 -27.4375 C 23.539062 -30.132812 21.257812 -31.484375 18.34375 -31.484375 Z M 18.34375 -31.484375" transform="translate(464.569 547.925)"/></g></g></g></svg>